<svg width="93" height="93" viewBox="0 0 93 93" fill="none" xmlns="http://www.w3.org/2000/svg">
<path d="M58.1047 6.19907C55.856 7.90066 53.8599 9.91243 52.1759 12.1743L54.5009 16.5628C56.0091 14.3732 57.6677 12.2912 59.4648 10.3318C59.5927 10.1894 59.6624 10.1225 59.6624 10.1225L59.4648 10.3318C57.7577 12.3175 56.2032 14.4296 54.8148 16.6499C57.846 16.4343 60.8638 16.0608 63.8561 15.531C64.1953 14.3221 64.2928 13.0581 64.1432 11.8115C63.9936 10.5648 63.5998 9.3598 62.9843 8.26541C62.9843 8.26541 60.7406 4.65004 58.1047 6.19907Z" fill="url(#paint0_linear_38_56)"/>
<path d="M50.2927 43.0648L49.3772 43.2247L49.8451 43.152C49.9875 43.1258 50.1415 43.0968 50.2927 43.0648Z" fill="#BE202E"/>
<path opacity="0.35" d="M50.2927 43.0648L49.3772 43.2247L49.8451 43.152C49.9875 43.1258 50.1415 43.0968 50.2927 43.0648Z" fill="#BE202E"/>
<path d="M51.0715 39.2343L51.2168 39.214C51.4145 39.1849 51.6092 39.1501 51.7981 39.1094L51.0773 39.2314L51.0715 39.2343Z" fill="#BE202E"/>
<path opacity="0.35" d="M51.0715 39.2343L51.2168 39.214C51.4145 39.1849 51.6092 39.1501 51.7981 39.1094L51.0773 39.2314L51.0715 39.2343Z" fill="#BE202E"/>
<path d="M47.6451 27.9C48.3522 26.5786 49.0682 25.2882 49.7928 24.0289C50.5445 22.723 51.304 21.4588 52.0713 20.2362L52.205 20.0182C52.9645 18.817 53.7298 17.6632 54.5009 16.5569L52.1759 12.1685L51.647 12.8224C50.9756 13.6594 50.281 14.5661 49.5661 15.5106C48.7611 16.586 47.9328 17.731 47.0929 18.9371C46.3169 20.0502 45.5293 21.2156 44.7417 22.4246C44.0704 23.4505 43.399 24.5084 42.7306 25.5924L42.655 25.7145L45.6804 31.6781C46.3276 30.4071 46.9824 29.1477 47.6451 27.9Z" fill="url(#paint1_linear_38_56)"/>
<path d="M33.8607 61.5893C33.4597 62.6898 33.0576 63.8126 32.6546 64.9576L32.6372 65.007L32.4657 65.4924C32.1954 66.2655 31.9571 66.9455 31.4166 68.541C32.4257 69.1944 33.2201 70.1304 33.7009 71.2322C33.6354 69.9499 33.0674 68.745 32.1199 67.8784C34.026 68.187 35.9802 67.9652 37.7687 67.2373C39.5572 66.5094 41.1109 65.3035 42.2598 63.7515C42.4387 63.4588 42.5989 63.1549 42.7393 62.8419C42.2595 63.4353 41.6276 63.8874 40.9111 64.1499C40.1945 64.4125 39.4202 64.4757 38.6706 64.3328C41.1391 63.4216 43.2321 61.7112 44.6168 59.4735C44.9393 58.9562 45.2503 58.3924 45.57 57.7676C44.4486 58.9994 43.0256 59.9179 41.4412 60.4326C39.8569 60.9473 38.1658 61.0405 36.5345 60.7029L34.0874 60.9703C34.0031 61.1766 33.9363 61.3829 33.8607 61.5893Z" fill="url(#paint2_linear_38_56)"/>
<path d="M35.0029 56.108C35.5318 54.7401 36.0763 53.3587 36.6362 51.9637C37.171 50.6268 37.7202 49.2832 38.2841 47.9327C38.8479 46.5823 39.4233 45.226 40.0104 43.864C40.6071 42.4864 41.2165 41.1118 41.8384 39.74C42.4603 38.3683 43.0852 37.0227 43.7129 35.7032C43.9416 35.2227 44.1721 34.7432 44.4046 34.2646C44.8057 33.4393 45.2096 32.6207 45.6165 31.8089C45.6369 31.7653 45.6601 31.7217 45.6834 31.6781L42.6551 25.7115L42.5068 25.9528C41.8035 27.1153 41.1002 28.2778 40.4114 29.4868C39.7226 30.6958 39.031 31.9396 38.3771 33.1951C37.8132 34.255 37.263 35.3206 36.7263 36.392L36.4066 37.0459C35.7469 38.4031 35.1511 39.7139 34.6135 40.9752C34.0031 42.4031 33.4645 43.7652 32.9976 45.0614C32.6866 45.9129 32.4163 46.7354 32.149 47.523C31.9368 48.1972 31.7363 48.8715 31.5445 49.5573C31.0911 51.1422 30.7036 52.7222 30.382 54.2974L33.4219 60.2988C33.8249 59.2255 34.2376 58.1366 34.66 57.0322L35.0029 56.108Z" fill="url(#paint3_linear_38_56)"/>
<path d="M30.3267 54.5068C29.9448 56.4009 29.6808 58.3169 29.5362 60.2437C29.5362 60.3105 29.5362 60.3774 29.5217 60.4442C28.5615 59.2331 27.3776 58.2179 26.0342 57.4537C27.8194 59.7288 28.9921 62.4233 29.4403 65.2802C28.1216 65.3969 26.795 65.1707 25.5895 64.6234C26.4992 65.5535 27.6287 66.2392 28.8736 66.6171C27.1716 66.9421 25.592 67.7294 24.3079 68.8927C25.9782 68.05 27.8556 67.705 29.7164 67.8988C27.6384 73.7868 25.5547 80.2881 23.4709 87.1875C23.76 87.1053 24.0242 86.9526 24.2398 86.7431C24.4553 86.5336 24.6156 86.2739 24.706 85.9873C25.078 84.7376 27.5425 76.539 31.4079 65.7627L31.7421 64.8385L31.8351 64.5798C32.2439 63.4503 32.6672 62.2974 33.1051 61.1214L33.3957 60.3164V60.3018L30.3703 54.3004C30.3558 54.3673 30.3384 54.437 30.3267 54.5068Z" fill="url(#paint4_linear_38_56)"/>
<path d="M46.1512 32.1954L45.8897 32.7331C45.6281 33.2737 45.3627 33.8258 45.0933 34.3897C44.8027 35 44.5121 35.6248 44.2215 36.2642C44.0703 36.5868 43.9308 36.9094 43.771 37.2378C43.3176 38.222 42.8584 39.2383 42.3934 40.2864C41.8122 41.5768 41.2309 42.9176 40.6497 44.3087C40.0859 45.6359 39.5143 47.0096 38.935 48.4297C38.3848 49.786 37.8277 51.1771 37.2639 52.6031C36.7621 53.8838 36.2554 55.1984 35.7439 56.5469C35.7178 56.6138 35.6945 56.6777 35.6713 56.7445C35.1637 58.0872 34.6512 59.4648 34.1339 60.8772L34.099 60.9731L36.5461 60.7057L36.4007 60.6796C39.9842 59.9506 43.2477 58.1134 45.7298 55.428C46.9661 54.0826 48.0392 52.596 48.9267 50.9989C49.6981 49.6215 50.3834 48.1976 50.9785 46.7354C51.5452 45.3637 52.0887 43.8815 52.6118 42.2714C51.8885 42.6404 51.1179 42.9083 50.3217 43.0677C50.1735 43.0997 50.0311 43.1287 49.8683 43.1549C49.7056 43.1811 49.5573 43.2072 49.4004 43.2276C51.948 42.1806 53.9914 40.1882 55.1025 37.6679C54.1065 38.347 52.9928 38.8348 51.8184 39.1065C51.6266 39.1501 51.4348 39.1821 51.2372 39.2111L51.0918 39.2315C51.9588 38.8816 52.778 38.4236 53.5302 37.8684C53.6784 37.758 53.8208 37.6417 53.9603 37.5197C54.1725 37.3366 54.373 37.1448 54.5648 36.9384C54.6869 36.8106 54.806 36.6769 54.9223 36.5374C55.2008 36.2045 55.4562 35.853 55.6866 35.4853C55.7593 35.3691 55.8319 35.2528 55.9017 35.1307C55.9918 34.9564 56.079 34.7849 56.1633 34.6134C56.544 33.8462 56.8491 33.1603 57.0903 32.5616C57.2124 32.271 57.317 31.9804 57.4071 31.7246C57.4449 31.6229 57.4798 31.5212 57.5117 31.434C57.6077 31.1434 57.6861 30.8905 57.7472 30.6638C57.8216 30.4009 57.8817 30.1341 57.9273 29.8646C57.8266 29.9441 57.7208 30.0169 57.6106 30.0826C56.5521 30.6432 55.4128 31.0355 54.2335 31.2451H54.1812L53.8353 31.3003L53.8964 31.2742L46.2093 32.117L46.1512 32.1954Z" fill="url(#paint5_linear_38_56)"/>
<path d="M54.8061 16.6528C54.1231 17.7019 53.3762 18.8935 52.5741 20.2449L52.4462 20.46C51.7526 21.6225 51.0173 22.908 50.2403 24.3165C49.57 25.5294 48.8734 26.8343 48.1508 28.2313C47.5191 29.45 46.8681 30.7442 46.1978 32.114L53.8848 31.2712C55.5818 30.6015 57.0457 29.4498 58.0959 27.9581C58.3546 27.5861 58.6133 27.1966 58.8719 26.7956C59.6624 25.5633 60.4355 24.2061 61.1272 22.8576C61.7598 21.6336 62.3301 20.3785 62.836 19.0969C63.0984 18.4316 63.3245 17.7524 63.5132 17.0625C63.6527 16.5278 63.7631 16.0221 63.8474 15.5397C60.855 16.0672 57.8371 16.4387 54.8061 16.6528Z" fill="url(#paint6_linear_38_56)"/>
<path d="M49.8393 43.152C49.6853 43.1781 49.5283 43.2043 49.3714 43.2246C49.5283 43.2043 49.6969 43.1781 49.8393 43.152Z" fill="#BE202E"/>
<path opacity="0.35" d="M49.8393 43.152C49.6853 43.1781 49.5283 43.2043 49.3714 43.2246C49.5283 43.2043 49.6969 43.1781 49.8393 43.152Z" fill="#BE202E"/>
<path d="M49.8393 43.152C49.6853 43.1781 49.5283 43.2043 49.3714 43.2246C49.5283 43.2043 49.6969 43.1781 49.8393 43.152Z" fill="url(#paint7_linear_38_56)"/>
<defs>
<linearGradient id="paint0_linear_38_56" x1="48.3029" y1="6.93449" x2="65.3403" y2="2.20522" gradientUnits="userSpaceOnUse">
<stop stop-color="#F69923"/>
<stop offset="0.312" stop-color="#F79A23"/>
<stop offset="0.838" stop-color="#E97826"/>
</linearGradient>
<linearGradient id="paint1_linear_38_56" x1="10.9746" y1="83.376" x2="45.6605" y2="9.08413" gradientUnits="userSpaceOnUse">
<stop offset="0.323" stop-color="#9E2064"/>
<stop offset="0.63" stop-color="#C92037"/>
<stop offset="0.751" stop-color="#CD2335"/>
<stop offset="1" stop-color="#E97826"/>
</linearGradient>
<linearGradient id="paint2_linear_38_56" x1="22.6159" y1="77.8881" x2="43.2849" y2="33.6184" gradientUnits="userSpaceOnUse">
<stop stop-color="#282662"/>
<stop offset="0.095" stop-color="#662E8D"/>
<stop offset="0.788" stop-color="#9F2064"/>
<stop offset="0.949" stop-color="#CD2032"/>
</linearGradient>
<linearGradient id="paint3_linear_38_56" x1="12.228" y1="78.878" x2="46.9139" y2="4.58615" gradientUnits="userSpaceOnUse">
<stop offset="0.323" stop-color="#9E2064"/>
<stop offset="0.63" stop-color="#C92037"/>
<stop offset="0.751" stop-color="#CD2335"/>
<stop offset="1" stop-color="#E97826"/>
</linearGradient>
<linearGradient id="paint4_linear_38_56" x1="15.7652" y1="73.9327" x2="33.9939" y2="34.8897" gradientUnits="userSpaceOnUse">
<stop stop-color="#282662"/>
<stop offset="0.095" stop-color="#662E8D"/>
<stop offset="0.788" stop-color="#9F2064"/>
<stop offset="0.949" stop-color="#CD2032"/>
</linearGradient>
<linearGradient id="paint5_linear_38_56" x1="19.9217" y1="82.4702" x2="54.6077" y2="8.17834" gradientUnits="userSpaceOnUse">
<stop offset="0.323" stop-color="#9E2064"/>
<stop offset="0.63" stop-color="#C92037"/>
<stop offset="0.751" stop-color="#CD2335"/>
<stop offset="1" stop-color="#E97826"/>
</linearGradient>
<linearGradient id="paint6_linear_38_56" x1="17.3874" y1="86.9024" x2="52.0745" y2="12.6079" gradientUnits="userSpaceOnUse">
<stop offset="0.323" stop-color="#9E2064"/>
<stop offset="0.63" stop-color="#C92037"/>
<stop offset="0.751" stop-color="#CD2335"/>
<stop offset="1" stop-color="#E97826"/>
</linearGradient>
<linearGradient id="paint7_linear_38_56" x1="22.2074" y1="83.5382" x2="56.8947" y2="9.24533" gradientUnits="userSpaceOnUse">
<stop offset="0.323" stop-color="#9E2064"/>
<stop offset="0.63" stop-color="#C92037"/>
<stop offset="0.751" stop-color="#CD2335"/>
<stop offset="1" stop-color="#E97826"/>
</linearGradient>
</defs>
</svg>
