<svg width="86" height="86" viewBox="0 0 86 86" fill="none" xmlns="http://www.w3.org/2000/svg">
<path d="M49.6304 53.6723C49.7691 54.3668 49.8387 55.5821 49.8387 57.3184V70.9233H46.0884V57.4642C46.0884 55.9362 45.9426 54.7945 45.6511 54.0369C45.3593 53.2799 44.8419 52.6757 44.0989 52.2242C43.3558 51.7736 42.4842 51.5471 41.4841 51.5471C39.8867 51.5471 38.5082 52.0542 37.3484 53.0681C36.1885 54.0821 35.6087 56.0059 35.6087 58.8393V70.9233H31.8585V48.797H35.2336V51.943C36.8587 49.5122 39.2061 48.2969 42.2757 48.2969C43.6091 48.2969 44.8349 48.5365 45.9531 49.0157C47.0712 49.4949 47.9082 50.1234 48.4637 50.9013C49.0192 51.6792 49.408 52.6028 49.6304 53.6723ZM85.916 71.0596C84.8605 71.2818 83.9158 71.3928 83.0826 71.3928C81.7213 71.3928 80.6656 71.1776 79.9157 70.747C79.1657 70.3165 78.6379 69.7502 78.3322 69.049C78.0267 68.3482 77.8738 66.8718 77.8738 64.6217V51.2611H69.7316C69.7502 51.2812 69.771 51.2979 69.7898 51.318C71.665 53.332 72.6026 56.1654 72.6026 59.8186C72.6026 60.0406 72.5956 60.3742 72.5818 60.8185H56.0807C56.2196 63.2493 56.9071 65.1106 58.1432 66.4023C59.3795 67.694 60.9213 68.3398 62.7686 68.3398C64.1437 68.3398 65.3173 67.9788 66.2897 67.2564C67.2619 66.5341 68.0329 65.3814 68.6025 63.7979L72.4777 64.2771C71.8664 66.5412 70.7345 68.2981 69.0815 69.5483C67.4285 70.7985 65.3173 71.4235 62.7477 71.4235C59.5113 71.4235 56.9453 70.4268 55.0494 68.4337C53.1534 66.4413 52.2054 63.6451 52.2054 60.0477C52.2054 56.3252 53.1638 53.4361 55.0805 51.3803C56.9973 49.3247 59.4836 48.2969 62.5393 48.2969C62.9087 48.2969 63.2706 48.3129 63.6234 48.3441H77.8737V43.5438H81.6031V48.3441H85.3741V51.2609H81.6031V64.8298C81.6031 65.8992 81.6691 66.5869 81.8009 66.8924C81.933 67.198 82.1481 67.4412 82.447 67.6216C82.7454 67.8021 83.1726 67.8925 83.7282 67.8925C84.145 67.8925 84.6935 67.8438 85.3743 67.7465L85.916 71.0596ZM68.6441 57.7351C68.4773 55.8738 68.005 54.4778 67.2273 53.5473C66.0327 52.1026 64.484 51.3805 62.5811 51.3805C60.8588 51.3805 59.4107 51.957 58.2371 53.1097C57.0635 54.2627 56.414 55.8045 56.289 57.7351H68.6441ZM26.5191 66.4182C25.8413 66.4182 25.2662 66.6593 24.7925 67.1496C24.3189 67.6364 24.0842 68.2254 24.0842 68.9213C24.0842 69.5991 24.3189 70.186 24.7925 70.6805C25.2662 71.175 25.8413 71.4237 26.5191 71.4237C27.2143 71.4237 27.806 71.1751 28.2928 70.6805C28.7809 70.1861 29.0235 69.5991 29.0235 68.9213C29.0235 68.242 28.7811 67.6532 28.2928 67.1595C27.8059 66.6626 27.2143 66.4182 26.5191 66.4182ZM50.5665 44.8806C48.6219 45.7349 46.1704 46.1621 43.212 46.1621C38.017 46.1621 34.4197 45.162 32.4195 43.1618C32.4111 43.1534 32.4034 43.1445 32.395 43.1363L33.3363 45.6412H23.453L21.9243 40.5991H11.2097L9.72069 45.6412H0.0839844L11.564 15.0976H21.8591L29.5274 35.5048L38.0033 34.9738C38.1978 36.4323 38.5935 37.5437 39.1908 38.3075C40.1632 39.5439 41.5521 40.1617 43.3578 40.1617C44.7051 40.1617 45.7434 39.8461 46.4726 39.2137C47.2019 38.5816 47.5666 37.8489 47.5666 37.0157C47.5666 36.2238 47.2194 35.5154 46.5248 34.8905C45.8303 34.2653 44.2189 33.6753 41.6912 33.1194C37.5521 32.1892 34.6006 30.9528 32.8365 29.411C31.0586 27.8691 30.1697 25.9038 30.1697 23.5147C30.1697 21.9452 30.6246 20.4623 31.5345 19.0665C32.4442 17.6705 33.8124 16.5737 35.6389 15.7747C37.4654 14.976 39.969 14.5765 43.1498 14.5765C47.0529 14.5765 50.0288 15.3027 52.0775 16.7537C54.1263 18.2053 55.345 20.5146 55.734 23.6813L46.8376 24.2023C46.6016 22.8272 46.1049 21.8271 45.3479 21.2021C44.591 20.5771 43.5457 20.2646 42.2124 20.2646C41.1151 20.2646 40.2887 20.4973 39.733 20.9625C39.1774 21.428 38.8997 21.9939 38.8997 22.6604C38.8997 23.1468 39.1288 23.5845 39.5872 23.9729C40.0317 24.376 41.0873 24.7511 42.7541 25.0979C46.8794 25.987 49.8343 26.8866 51.6191 27.796C53.404 28.7057 54.7027 29.8347 55.5152 31.1816C55.9316 31.8718 56.2395 32.6046 56.4425 33.3785V15.0976H72.131C75.5478 15.0976 78.107 15.91 79.8085 17.5351C81.51 19.1604 82.3608 21.4728 82.3608 24.4733C82.3608 27.5567 81.4334 29.9667 79.5792 31.7028C77.7248 33.4394 74.8947 34.3072 71.0891 34.3072H65.922V45.6413H56.4422V38.1049C56.1778 39.1608 55.734 40.1661 55.1087 41.1203C54.0251 42.7731 52.5111 44.0265 50.5665 44.8806ZM65.9217 28.1192H68.2345C70.0539 28.1192 71.3318 27.8034 72.068 27.171C72.8042 26.5391 73.1721 25.7303 73.1721 24.7439C73.1721 23.7854 72.8528 22.973 72.2138 22.3061C71.5748 21.6395 70.3734 21.306 68.6094 21.306H65.9217V28.1192ZM19.9666 33.9946L16.5955 23.0148L13.2591 33.9946H19.9666Z" fill="#2E2F55"/>
</svg>
