<svg width="125" height="125" viewBox="0 0 125 125" fill="none" xmlns="http://www.w3.org/2000/svg">
<g clip-path="url(#clip0_38_26)">
<mask id="mask0_38_26" style="mask-type:luminance" maskUnits="userSpaceOnUse" x="0" y="0" width="125" height="125">
<path d="M0 0H125V125H0V0Z" fill="white"/>
</mask>
<g mask="url(#mask0_38_26)">
<path d="M94.3294 57.0618C99.2732 57.4425 103.877 59.7232 107.176 63.4253C110.474 67.1274 112.211 71.9632 112.021 76.918C111.831 81.8729 109.729 86.5617 106.156 90C102.583 93.4383 97.8173 95.3587 92.8587 95.3581M69.0221 41.207C71.6857 39.7303 74.6958 38.9928 77.7403 39.071C80.7849 39.1492 83.7531 40.0403 86.3374 41.6518C88.9216 43.2634 91.0278 45.5368 92.4376 48.2364C93.8475 50.936 94.5096 53.9635 94.3555 57.0052M28.9023 55.5195C27.895 50.4754 28.7357 45.2373 31.2708 40.7617C33.8059 36.2861 37.8662 32.8717 42.7104 31.142C47.5545 29.4123 52.8592 29.4827 57.6557 31.3404C62.4523 33.1981 66.4205 36.7191 68.8359 41.2604M33.4896 95.39H91.6934M33.1986 95.0977C29.5254 95.0973 25.9235 94.0843 22.7886 92.1701C19.6538 90.2558 17.1073 87.5144 15.4291 84.2471C13.7509 80.9798 13.0059 77.313 13.276 73.6498C13.5462 69.9867 14.8209 66.4689 16.9603 63.4831C19.827 59.4827 24.0695 56.6813 28.8743 55.6159M60.8548 57.4596V69.3463H71.4362" stroke="#2E2F55" stroke-width="8" stroke-linecap="round" stroke-linejoin="round"/>
<path d="M81.4401 67.4154C81.4394 72.3959 79.4606 77.1723 75.9388 80.694C72.417 84.2158 67.6407 86.1946 62.6602 86.1953C58.946 86.1952 55.3153 85.0937 52.2272 83.0302C49.139 80.9666 46.7322 78.0337 45.3109 74.6022C43.8896 71.1708 43.5178 67.395 44.2424 63.7522C44.967 60.1094 46.7555 56.7633 49.3818 54.1371C52.0081 51.5108 55.3542 49.7222 58.997 48.9976C62.6398 48.273 66.4156 48.6448 69.847 50.0661C73.2785 51.4874 76.2114 53.8943 78.2749 56.9824C80.3385 60.0705 81.44 63.7012 81.4401 67.4154Z" stroke="#2E2F55" stroke-width="8" stroke-linecap="round" stroke-linejoin="round"/>
</g>
</g>
<defs>
<clipPath id="clip0_38_26">
<rect width="125" height="125" fill="white"/>
</clipPath>
</defs>
</svg>
