<svg width="81" height="77" viewBox="0 0 81 77" fill="none" xmlns="http://www.w3.org/2000/svg">
<g filter="url(#filter0_d_19_150)">
<path d="M47.2914 2.05169L76.1176 30.8779L67.8082 39.1872L55.3955 26.7745L18.4651 63.7048L12.3101 57.5498L49.2404 20.6194L36.9304 8.30933L47.2914 2.05169Z" fill="#535592"/>
</g>
<g filter="url(#filter1_d_19_150)">
<path d="M29.6739 29.6739C34.2063 25.1414 34.2063 17.7929 29.6739 13.2604C26.5941 10.1806 22.214 9.19352 18.3007 10.2992L24.955 16.9534L23.4162 23.4163L16.7985 25.1099L10.2331 18.5445C9.23529 22.3949 10.2444 26.6579 13.2604 29.6739C17.7929 34.2064 25.1414 34.2064 29.6739 29.6739Z" fill="#2E2F55"/>
<path d="M23.5188 31.3152L31.3152 23.5188L59.6285 51.8321L54.3967 54.3967L51.8321 59.6285L23.5188 31.3152Z" fill="#2E2F55"/>
<path fill-rule="evenodd" clip-rule="evenodd" d="M59.8337 59.8338C61.9866 57.6808 61.9866 54.1903 59.8337 52.0373C57.6808 49.8844 54.1902 49.8844 52.0373 52.0373C49.8844 54.1903 49.8844 57.6808 52.0373 59.8338C54.1902 61.9867 57.6808 61.9867 59.8337 59.8338ZM54.2941 55.9355C54.2941 55.1149 55.1148 54.2942 55.9355 54.2942C56.7562 54.2942 57.5768 55.1149 57.5768 55.9355C57.5768 56.7562 56.7562 57.5769 55.9355 57.5769C55.1148 57.5769 54.2941 56.7562 54.2941 55.9355Z" fill="#2E2F55"/>
</g>
<defs>
<filter id="filter0_d_19_150" x="8.31006" y="2.0517" width="71.8075" height="69.6531" filterUnits="userSpaceOnUse" color-interpolation-filters="sRGB">
<feFlood flood-opacity="0" result="BackgroundImageFix"/>
<feColorMatrix in="SourceAlpha" type="matrix" values="0 0 0 0 0 0 0 0 0 0 0 0 0 0 0 0 0 0 127 0" result="hardAlpha"/>
<feOffset dy="4"/>
<feGaussianBlur stdDeviation="2"/>
<feComposite in2="hardAlpha" operator="out"/>
<feColorMatrix type="matrix" values="0 0 0 0 0 0 0 0 0 0 0 0 0 0 0 0 0 0 0.25 0"/>
<feBlend mode="normal" in2="BackgroundImageFix" result="effect1_dropShadow_19_150"/>
<feBlend mode="normal" in="SourceGraphic" in2="effect1_dropShadow_19_150" result="shape"/>
</filter>
<filter id="filter1_d_19_150" x="5.86105" y="9.86108" width="59.5873" height="59.5873" filterUnits="userSpaceOnUse" color-interpolation-filters="sRGB">
<feFlood flood-opacity="0" result="BackgroundImageFix"/>
<feColorMatrix in="SourceAlpha" type="matrix" values="0 0 0 0 0 0 0 0 0 0 0 0 0 0 0 0 0 0 127 0" result="hardAlpha"/>
<feOffset dy="4"/>
<feGaussianBlur stdDeviation="2"/>
<feComposite in2="hardAlpha" operator="out"/>
<feColorMatrix type="matrix" values="0 0 0 0 0 0 0 0 0 0 0 0 0 0 0 0 0 0 0.25 0"/>
<feBlend mode="normal" in2="BackgroundImageFix" result="effect1_dropShadow_19_150"/>
<feBlend mode="normal" in="SourceGraphic" in2="effect1_dropShadow_19_150" result="shape"/>
</filter>
</defs>
</svg>
