<svg width="94" height="68" viewBox="0 0 94 68" fill="none" xmlns="http://www.w3.org/2000/svg">
<g clip-path="url(#clip0_38_108)">
<path d="M92.0597 25.9125C89.943 24.4423 85.0922 23.8909 81.2998 24.626C80.8588 20.9505 78.8303 17.7344 75.3024 14.8859L73.2739 13.4157L71.8628 15.5291C70.0989 18.2858 69.2169 22.1451 69.4815 25.8206C69.5697 27.107 70.0107 29.4042 71.3336 31.4258C70.0989 32.1609 67.5412 33.0798 64.1897 33.0798H0.424017L0.247625 33.8149C-0.369747 37.4904 -0.369747 48.9764 6.86233 57.7977C12.3305 64.5055 20.4445 67.9054 31.1162 67.9054C54.2236 67.9054 71.3336 56.7869 79.3595 36.6634C82.5345 36.7553 89.3256 36.6634 92.7653 29.7718C92.8535 29.588 93.0298 29.2204 93.6472 27.8421L94 27.107L92.0597 25.9125ZM51.4013 0H41.6998V9.18882H51.4013V0ZM51.4013 11.0266H41.6998V20.2154H51.4013V11.0266ZM39.9358 11.0266H30.2343V20.2154H39.9358V11.0266ZM28.4704 11.0266H18.7688V20.2154H28.4704V11.0266ZM17.0049 22.0532H7.30331V31.242H17.0049V22.0532ZM28.4704 22.0532H18.7688V31.242H28.4704V22.0532ZM39.9358 22.0532H30.2343V31.242H39.9358V22.0532ZM51.4013 22.0532H41.6998V31.242H51.4013V22.0532ZM62.8668 22.0532H53.1652V31.242H62.8668V22.0532Z" fill="#2396ED"/>
</g>
<defs>
<clipPath id="clip0_38_108">
<rect width="94" height="68" fill="white"/>
</clipPath>
</defs>
</svg>
