<svg width="64" height="64" viewBox="0 0 64 64" fill="none" xmlns="http://www.w3.org/2000/svg">
<g clip-path="url(#clip0_38_204)">
<path d="M32 64C49.6731 64 64 49.6731 64 32C64 14.3269 49.6731 0 32 0C14.3269 0 0 14.3269 0 32C0 49.6731 14.3269 64 32 64Z" fill="#5C2D91"/>
<path opacity="0.1" d="M9.82 9C6.56696 11.8988 3.9402 15.4314 2.10072 19.3813C0.261235 23.3312 -0.752211 27.6152 -0.877499 31.9706C-1.00279 36.326 -0.23728 40.6611 1.3721 44.7102C2.98148 48.7593 5.40083 52.4371 8.48185 55.5181C11.5629 58.5992 15.2407 61.0185 19.2898 62.6279C23.3389 64.2373 27.674 65.0028 32.0294 64.8775C36.3848 64.7522 40.6688 63.7388 44.6187 61.8993C48.5686 60.0598 52.1012 57.433 55 54.18L9.82 9Z" fill="white"/>
<path d="M7.4 41.25C7.21334 41.253 7.02809 41.2172 6.85597 41.1449C6.68384 41.0726 6.52859 40.9654 6.4 40.83C6.26789 40.6995 6.16348 40.5437 6.09303 40.3718C6.02258 40.2 5.98754 40.0157 5.99 39.83C5.98867 39.6445 6.02423 39.4605 6.09461 39.2889C6.165 39.1172 6.26881 38.9612 6.4 38.83C6.52732 38.6924 6.68212 38.583 6.85437 38.5089C7.02663 38.4348 7.21251 38.3977 7.4 38.4C7.58722 38.3996 7.77255 38.4375 7.94454 38.5114C8.11653 38.5854 8.27154 38.6938 8.4 38.83C8.53346 38.96 8.63941 39.1156 8.71156 39.2874C8.78371 39.4592 8.82059 39.6437 8.82 39.83C8.82175 40.0165 8.7854 40.2014 8.71318 40.3734C8.64096 40.5453 8.53439 40.7007 8.4 40.83C8.27033 40.9639 8.11486 41.0702 7.94299 41.1424C7.77112 41.2146 7.58641 41.2512 7.4 41.25ZM27.27 41H24.65L15.28 26.46C15.047 26.1015 14.8526 25.7194 14.7 25.32H14.62C14.7091 26.1502 14.7425 26.9854 14.72 27.82V41H12.59V22.77H15.36L24.48 37.05C24.86 37.6434 25.1067 38.05 25.22 38.27H25.27C25.1645 37.3808 25.1211 36.4853 25.14 35.59V22.77H27.27V41ZM41.69 41H32V22.77H41.24V24.7H34.18V30.76H40.76V32.68H34.18V39H41.7L41.69 41ZM56 24.7H50.7V41H48.57V24.7H43.33V22.77H56V24.7Z" fill="white"/>
</g>
<defs>
<clipPath id="clip0_38_204">
<rect width="64" height="64" fill="white"/>
</clipPath>
</defs>
</svg>
