<svg width="110" height="88" viewBox="0 0 110 88" fill="none" xmlns="http://www.w3.org/2000/svg">
<g filter="url(#filter0_d_19_58)">
<path d="M33.7052 32.2311C34.1798 29.2015 38.5424 29.2015 39.017 32.2311C39.3779 34.535 42.3004 35.3181 43.7649 33.5033C45.6908 31.1169 49.4689 33.2982 48.3651 36.1592C47.5257 38.3349 49.6651 40.4743 51.8408 39.635C54.7019 38.5312 56.8832 42.3093 54.4967 44.2351C52.6819 45.6996 53.465 48.6221 55.7689 48.983C58.7986 49.4577 58.7986 53.8202 55.7689 54.2948C53.465 54.6558 52.6819 57.5782 54.4967 59.0428C56.8832 60.9686 54.7019 64.7467 51.8408 63.6429C49.6651 62.8035 47.5257 64.9429 48.3651 67.1187C49.4689 69.9797 45.6908 72.161 43.7649 69.7746C42.3004 67.9598 39.3779 68.7428 39.017 71.0468C38.5424 74.0764 34.1798 74.0764 33.7052 71.0468C33.3443 68.7429 30.4218 67.9598 28.9573 69.7746C27.0314 72.161 23.2533 69.9797 24.3571 67.1187C25.1965 64.9429 23.0571 62.8035 20.8814 63.6429C18.0203 64.7467 15.8391 60.9686 18.2255 59.0428C20.0403 57.5782 19.2572 54.6558 16.9533 54.2948C13.9237 53.8202 13.9237 49.4577 16.9533 48.983C19.2572 48.6221 20.0403 45.6996 18.2255 44.2351C15.8391 42.3093 18.0203 38.5312 20.8814 39.635C23.0571 40.4743 25.1965 38.3349 24.3571 36.1592C23.2533 33.2982 27.0314 31.1169 28.9573 33.5033C30.4218 35.3181 33.3443 34.535 33.7052 32.2311Z" fill="#2E2F55"/>
</g>
<g filter="url(#filter1_d_19_58)">
<path d="M70.983 16.9533C71.4576 13.9237 75.8202 13.9237 76.2948 16.9533C76.6557 19.2572 79.5782 20.0403 81.0427 18.2255C82.9686 15.8391 86.7466 18.0203 85.6429 20.8814C84.8035 23.0571 86.9429 25.1965 89.1186 24.3571C91.9796 23.2533 94.1609 27.0314 91.7745 28.9573C89.9597 30.4218 90.7428 33.3443 93.0467 33.7052C96.0763 34.1798 96.0763 38.5424 93.0467 39.017C90.7428 39.3779 89.9597 42.3004 91.7745 43.7649C94.1609 45.6908 91.9796 49.4689 89.1186 48.3651C86.9429 47.5257 84.8035 49.6651 85.6429 51.8408C86.7466 54.7019 82.9686 56.8832 81.0427 54.4967C79.5782 52.6819 76.6557 53.465 76.2948 55.7689C75.8202 58.7986 71.4576 58.7986 70.983 55.7689C70.6221 53.465 67.6996 52.6819 66.235 54.4967C64.3092 56.8832 60.5311 54.7019 61.6349 51.8408C62.4743 49.6651 60.3349 47.5257 58.1592 48.3651C55.2981 49.4689 53.1168 45.6908 55.5033 43.7649C57.318 42.3004 56.535 39.3779 54.2311 39.017C51.2014 38.5424 51.2014 34.1798 54.2311 33.7052C56.535 33.3443 57.318 30.4218 55.5033 28.9573C53.1168 27.0314 55.2981 23.2533 58.1592 24.3571C60.3349 25.1965 62.4743 23.0571 61.6349 20.8814C60.5311 18.0203 64.3092 15.8391 66.235 18.2255C67.6996 20.0403 70.6221 19.2572 70.983 16.9533Z" fill="#535592"/>
</g>
<defs>
<filter id="filter0_d_19_58" x="10.6811" y="29.9589" width="51.3601" height="51.36" filterUnits="userSpaceOnUse" color-interpolation-filters="sRGB">
<feFlood flood-opacity="0" result="BackgroundImageFix"/>
<feColorMatrix in="SourceAlpha" type="matrix" values="0 0 0 0 0 0 0 0 0 0 0 0 0 0 0 0 0 0 127 0" result="hardAlpha"/>
<feOffset dy="4"/>
<feGaussianBlur stdDeviation="2"/>
<feComposite in2="hardAlpha" operator="out"/>
<feColorMatrix type="matrix" values="0 0 0 0 0 0 0 0 0 0 0 0 0 0 0 0 0 0 0.25 0"/>
<feBlend mode="normal" in2="BackgroundImageFix" result="effect1_dropShadow_19_58"/>
<feBlend mode="normal" in="SourceGraphic" in2="effect1_dropShadow_19_58" result="shape"/>
</filter>
<filter id="filter1_d_19_58" x="47.9588" y="14.6811" width="51.3601" height="51.36" filterUnits="userSpaceOnUse" color-interpolation-filters="sRGB">
<feFlood flood-opacity="0" result="BackgroundImageFix"/>
<feColorMatrix in="SourceAlpha" type="matrix" values="0 0 0 0 0 0 0 0 0 0 0 0 0 0 0 0 0 0 127 0" result="hardAlpha"/>
<feOffset dy="4"/>
<feGaussianBlur stdDeviation="2"/>
<feComposite in2="hardAlpha" operator="out"/>
<feColorMatrix type="matrix" values="0 0 0 0 0 0 0 0 0 0 0 0 0 0 0 0 0 0 0.25 0"/>
<feBlend mode="normal" in2="BackgroundImageFix" result="effect1_dropShadow_19_58"/>
<feBlend mode="normal" in="SourceGraphic" in2="effect1_dropShadow_19_58" result="shape"/>
</filter>
</defs>
</svg>
