<svg width="84" height="87" viewBox="0 0 84 87" fill="none" xmlns="http://www.w3.org/2000/svg">
<g clip-path="url(#clip0_38_4)">
<path d="M83.9526 19.6474C83.9838 19.7631 84 19.8825 84 20.0025V38.6442C84 39.1312 83.7406 39.5811 83.3199 39.8233L67.741 48.8316V66.6867C67.741 67.1726 67.4839 67.6212 67.0643 67.8658L34.5446 86.6673C34.4702 86.7098 34.389 86.737 34.3078 86.7659C34.2774 86.776 34.2486 86.7947 34.2165 86.8032C33.9891 86.8634 33.7502 86.8634 33.5229 86.8032C33.4856 86.793 33.4518 86.7727 33.4163 86.7591C33.3418 86.7319 33.264 86.7081 33.193 86.6673L0.680066 67.8658C0.259669 67.6233 0 67.1737 0 66.6867V10.7614C0 10.6391 0.0169171 10.5202 0.0473678 10.4046C0.057518 10.3656 0.0812019 10.3299 0.0947356 10.2908C0.120111 10.2194 0.143795 10.1464 0.181013 10.0801C0.206388 10.036 0.243606 10.0003 0.274056 9.9595C0.312966 9.90513 0.348492 9.84906 0.394168 9.80149C0.433077 9.76241 0.483828 9.73353 0.527812 9.69954C0.576872 9.65877 0.620856 9.61459 0.676683 9.58231H0.678374L16.9357 0.181577C17.3546 -0.0605258 17.8701 -0.0605258 18.289 0.181577L34.5463 9.58231H34.5497C34.6039 9.61629 34.6495 9.65877 34.6986 9.69785C34.7426 9.73183 34.7916 9.76241 34.8305 9.79979C34.8779 9.84906 34.9117 9.90513 34.9524 9.9595C34.9811 10.0003 35.02 10.036 35.0437 10.0801C35.0826 10.1481 35.1046 10.2194 35.1317 10.2908C35.1452 10.3299 35.1689 10.3656 35.179 10.4063C35.2102 10.5221 35.2261 10.6415 35.2264 10.7614V45.6918L48.7736 37.8576V20.0008C48.7736 19.8818 48.7905 19.7612 48.821 19.6474C48.8328 19.6066 48.8548 19.5709 48.8683 19.5318C48.8954 19.4605 48.9191 19.3874 48.9563 19.3212C48.9817 19.277 49.0189 19.2413 49.0476 19.2005C49.0882 19.1462 49.1221 19.0901 49.1695 19.0425C49.2084 19.0034 49.2574 18.9746 49.3014 18.9406C49.3522 18.8998 49.3961 18.8556 49.4503 18.8233H49.452L65.711 9.4226C66.1298 9.18015 66.6455 9.18015 67.0643 9.4226L83.3216 18.8233C83.3791 18.8573 83.4231 18.8998 83.4739 18.9389C83.5162 18.9729 83.5652 19.0034 83.6041 19.0408C83.6515 19.0901 83.6853 19.1462 83.7259 19.2005C83.7564 19.2413 83.7936 19.277 83.8173 19.3212C83.8562 19.3874 83.8782 19.4605 83.9053 19.5318C83.9205 19.5709 83.9425 19.6066 83.9526 19.6474ZM81.2899 37.8576V22.3556L75.6007 25.6449L67.741 30.1898V45.6918L81.2916 37.8576H81.2899ZM65.0326 65.9001V50.3879L57.3015 54.8224L35.2247 67.4768V83.135L65.0326 65.9001ZM2.71011 13.1146V65.9001L32.5146 83.1333V67.4785L16.9441 58.6282L16.9391 58.6248L16.9323 58.6214C16.8798 58.5908 16.8359 58.5467 16.7868 58.5093C16.7445 58.4753 16.6955 58.4481 16.6582 58.4107L16.6549 58.4056C16.6109 58.3632 16.5804 58.3105 16.5432 58.2629C16.5094 58.2171 16.4688 58.178 16.4417 58.1304L16.44 58.1253C16.4096 58.0743 16.3909 58.0132 16.369 57.9554C16.347 57.9044 16.3182 57.8569 16.3047 57.8025V57.8008C16.2878 57.7362 16.2844 57.6683 16.2776 57.602C16.2708 57.551 16.2573 57.5001 16.2573 57.4491V57.4457V20.9488L8.39932 16.4022L2.71011 13.1163V13.1146ZM17.614 2.93061L4.06855 10.7614L17.6107 18.5923L31.1545 10.7597L17.6107 2.93061H17.614ZM24.6583 51.8015L32.5163 47.2583V13.1146L26.8271 16.4039L18.9674 20.9488V55.0925L24.6583 51.8015ZM66.3876 12.1716L52.8438 20.0025L66.3876 27.8333L79.9298 20.0008L66.3876 12.1716ZM65.0326 30.1898L57.1729 25.6449L51.4837 22.3556V37.8576L59.3417 42.4008L65.0326 45.6918V30.1898ZM33.868 65.1236L53.7337 53.7333L63.664 48.0416L50.1303 40.2158L34.548 49.2258L20.3462 57.4372L33.868 65.1236Z" fill="#FF2D20"/>
</g>
<defs>
<clipPath id="clip0_38_4">
<rect width="84" height="87" fill="white"/>
</clipPath>
</defs>
</svg>
