<svg width="110" height="110" viewBox="0 0 110 110" fill="none" xmlns="http://www.w3.org/2000/svg">
<path d="M49.7957 70.0597C50.068 73.647 50.015 77.2516 49.6375 80.8294C49.6217 81.3323 49.4739 81.8221 49.209 82.2499C48.9442 82.6776 48.5715 83.0283 48.1285 83.2666C45.2719 85.3875 35.6985 85.8963 34.5057 81.3897C34.0657 81.3725 34.4163 79.915 33.9969 79.97C33.1595 79.9013 32.35 79.6368 31.6336 79.1979C30.9171 78.7591 30.3137 78.1582 29.8719 77.4435C29.8891 72.5141 30.4322 54.7319 21.6219 59.5204C19.7074 60.5874 18.2716 62.344 17.6069 64.4325C17.0133 66.2547 16.7343 68.1646 16.7819 70.0804C16.7132 72.5347 17.325 75.2194 17.4144 78.1654C17.4488 79.4819 17.6585 79.8154 16.6788 80.936C15.101 82.7407 12.3475 81.2179 10.8591 79.2344C10.2296 78.2354 9.88383 77.084 9.85878 75.9035C8.67498 63.027 9.83972 50.0425 13.2963 37.5822C14.5578 33.3541 14.9978 32.7422 19.0128 31.7935C23.5813 30.7886 28.2796 30.5102 32.9347 30.9685C36.5475 29.7929 45.1207 23.4266 48.8194 28.4797C54.4316 27.2337 60.2365 27.124 65.8917 28.1572C71.547 29.1904 76.9381 31.3454 81.7472 34.4954C86.6182 34.864 91.5064 34.9524 96.3875 34.76C97.075 34.3201 97.8794 33.8491 98.5807 33.4435C99.0953 33.0949 99.6735 32.8508 100.282 32.725C101.073 32.6013 102.104 32.5669 102.345 33.55C102.554 34.559 102.625 35.5917 102.554 36.6197C102.531 37.2395 102.3 37.8334 101.899 38.3068C101.499 38.7803 100.951 39.1061 100.344 39.2322C98.9718 39.007 97.6414 38.5759 96.3978 37.9535C91.9291 38.0772 89.1791 37.8297 84.7103 37.9535C85.4288 38.7235 85.3978 39.2322 85.9203 40.2497C87.2047 43.6297 87.6335 47.2748 87.1687 50.8606C86.704 54.4464 85.3599 57.8617 83.2563 60.8025C82.94 65.9244 83.325 71.0979 83.3628 76.2369C83.38 78.0072 83.5038 79.6916 81.8366 80.8672C80.3662 81.7488 78.7132 82.2815 77.0048 82.4246C75.2963 82.5676 73.5778 82.317 71.9813 81.6922C71.1111 81.1928 70.3341 80.5461 69.685 79.781C69.1143 79.8436 68.5391 79.8551 67.9663 79.8154C66.9924 79.543 66.1507 78.9261 65.5978 78.0794C65.2809 77.5003 65.0108 76.8968 64.79 76.2747C64.79 73.8685 64.7007 72.9266 64.7007 70.5238C59.7449 71.4108 54.6595 71.268 49.7613 70.1044L49.7957 70.0597Z" fill="#CCCCCC"/>
<path d="M41.5765 85.384C40.1567 85.4052 38.7432 85.1914 37.3931 84.7515C36.6436 84.5503 35.9514 84.1771 35.3714 83.6615C34.7914 83.1459 34.3396 82.5022 34.0519 81.7815C33.8013 81.4694 33.6785 81.0738 33.7081 80.6746V80.5199C32.8344 80.389 31.9988 80.0724 31.2577 79.5915C30.5165 79.1107 29.8869 78.4766 29.4112 77.7321L29.3287 77.5981V76.7043C29.3597 72.6412 29.4387 61.844 25.7744 59.6474C25.1576 59.3478 24.471 59.2215 23.788 59.282C23.105 59.3426 22.4513 59.5877 21.8969 59.9912C20.0907 60.9976 18.7379 62.6567 18.1156 64.6284C17.5489 66.3909 17.2839 68.2364 17.3319 70.0871C17.332 71.4673 17.4296 72.8457 17.624 74.2121C17.7719 75.4703 17.9231 76.7765 17.9678 78.1481C17.9678 78.3509 17.9678 78.5262 17.9919 78.6843C18.0701 79.1597 18.0294 79.6471 17.8735 80.1029C17.7175 80.5588 17.4511 80.969 17.0981 81.2968C16.8189 81.6266 16.4674 81.8874 16.0709 82.0591C15.6744 82.2308 15.2437 82.3088 14.8122 82.2868C13.9313 82.1651 13.0857 81.8599 12.3302 81.3909C11.5746 80.922 10.9259 80.2997 10.4259 79.5643C9.72092 78.4873 9.33701 77.2318 9.31904 75.9446C8.12 63.0006 9.29425 49.9463 12.784 37.424C14.0731 33.1099 14.6403 32.2678 18.8994 31.2606C23.4879 30.2507 28.2061 29.9642 32.8831 30.4115C33.9112 30.0112 34.9155 29.5521 35.8909 29.0365C40.1259 26.919 45.894 24.0418 49.06 27.8884C54.6712 26.6775 60.4669 26.5911 66.1118 27.6343C71.7566 28.6775 77.1386 30.8295 81.9465 33.9659C86.7056 34.3237 91.4814 34.4063 96.25 34.2134C96.9375 33.7906 97.6662 33.3506 98.3331 32.9656L98.5256 32.8556C99.041 32.5171 99.618 32.2835 100.224 32.1681C101.75 31.9309 102.63 32.3503 102.895 33.409C103.115 34.4698 103.19 35.5557 103.118 36.6368C103.084 37.3879 102.796 38.1053 102.303 38.6726C101.809 39.2398 101.138 39.6235 100.399 39.7615H100.31L100.224 39.7374C99.9315 39.6618 99.6359 39.5931 99.33 39.5243C98.2574 39.3407 97.2189 38.9953 96.25 38.4999C94.074 38.5549 92.2797 38.524 90.5472 38.4999C89.0587 38.4759 87.529 38.4484 85.7553 38.4759C85.8653 38.6924 85.9444 38.9021 86.0303 39.1153C86.1419 39.4156 86.2704 39.7094 86.4153 39.9953C87.7488 43.449 88.2078 47.1788 87.7514 50.8528C87.295 54.5268 85.9374 58.0309 83.7994 61.0534C83.6068 64.374 83.7065 67.7806 83.7994 71.0771C83.8509 72.7649 83.9025 74.5146 83.9128 76.2334V76.529C84.0783 77.412 84.0018 78.3234 83.6914 79.1664C83.3809 80.0094 82.8481 80.7527 82.1494 81.3174C80.6052 82.2576 78.864 82.8266 77.0626 82.9799C75.2613 83.1332 73.4489 82.8666 71.7681 82.2009C71.0281 81.8345 70.3689 81.3238 69.8293 80.6987C69.709 80.5749 69.5887 80.4512 69.465 80.3343C69.2965 80.3343 69.1212 80.3549 68.9665 80.3721C68.5901 80.4314 68.2062 80.4244 67.8322 80.3515C66.7265 80.0456 65.7699 79.3479 65.1406 78.3887C64.8987 77.9984 64.7015 77.5822 64.5528 77.1478C64.4737 76.9381 64.3912 76.7249 64.2915 76.5015L64.2434 76.3949V76.2781C64.2434 75.0853 64.2228 74.2362 64.1987 73.4181C64.1815 72.7306 64.1643 72.0431 64.1575 71.1528C59.5944 71.9034 54.9312 71.7962 50.4075 70.8365C50.6141 74.1953 50.5394 77.5655 50.184 80.9118C50.1582 81.4852 49.9869 82.0426 49.6862 82.5315C49.3855 83.0204 48.9654 83.4248 48.4653 83.7065C46.3711 84.8989 43.9845 85.4801 41.5765 85.384ZM34.8081 80.8534H34.9319L35.035 81.2453C35.2429 81.8528 35.6013 82.3978 36.0768 82.8294C36.5522 83.261 37.1293 83.5651 37.754 83.7134C41.0909 84.7307 44.6925 84.4114 47.7984 82.8231C48.1802 82.6286 48.5018 82.3339 48.7289 81.9705C48.956 81.6072 49.0799 81.1889 49.0875 80.7606C49.4467 77.3625 49.51 73.9396 49.2765 70.5306L48.9844 70.4481L50.1875 68.0624L50.3284 69.654C55.0391 70.6957 59.9089 70.7985 64.6594 69.9565L65.2815 69.874V70.4996C65.2815 71.6924 65.3022 72.5415 65.3262 73.3596C65.3503 74.1778 65.3675 74.9856 65.3709 76.1337C65.4569 76.3365 65.5325 76.5324 65.6081 76.7215C65.7295 77.0816 65.8897 77.4273 66.0859 77.7528C66.5674 78.4902 67.3003 79.0277 68.1484 79.2653C68.3945 79.3021 68.6448 79.3021 68.8909 79.2653C69.1692 79.2323 69.4494 79.2173 69.7297 79.2206H69.9359L70.0872 79.3615C70.2728 79.5334 70.4584 79.7224 70.644 79.9115C71.0853 80.4287 71.6222 80.8559 72.2253 81.1696C73.7354 81.7588 75.3601 81.9957 76.9755 81.8622C78.591 81.7288 80.1548 81.2286 81.5478 80.3996C82.8815 79.4578 82.8643 78.1653 82.8437 76.5256V76.2265C82.8437 74.5078 82.7819 72.789 82.7303 71.0978C82.6306 67.7049 82.5275 64.1953 82.7303 60.7543V60.5274L82.9022 60.3762C84.9286 57.5262 86.2206 54.2203 86.6638 50.7515C87.1069 47.2827 86.6874 43.7581 85.4425 40.4903C85.2795 40.1699 85.1349 39.8405 85.0094 39.5037C84.871 39.0612 84.6362 38.655 84.3219 38.3143L83.4934 37.424L84.7069 37.3896C86.955 37.3278 88.7906 37.3587 90.5712 37.3896C92.3519 37.4206 94.1634 37.4515 96.384 37.3896H96.5456L96.6831 37.4756C97.5792 37.9612 98.5488 38.2968 99.5534 38.469C99.8353 38.5343 100.114 38.5962 100.385 38.6649C100.837 38.5244 101.235 38.248 101.525 37.8735C101.815 37.499 101.982 37.0444 102.004 36.5715C102.07 35.5964 102.003 34.617 101.805 33.6599C101.757 33.4503 101.664 33.0549 100.375 33.2578C99.9036 33.3504 99.4551 33.535 99.055 33.8009L98.8625 33.9109C98.175 34.3028 97.3878 34.7806 96.6934 35.2137L96.5662 35.2928H96.4184C91.5156 35.4935 86.6052 35.4052 81.7128 35.0281H81.5684L81.4481 34.9456C76.6995 31.8319 71.3744 29.7027 65.7881 28.6842C60.2017 27.6656 54.4678 27.7784 48.9259 29.0159L48.5822 29.0778L48.3794 28.8028C45.8115 25.2965 40.3562 28.0224 36.3722 30.0128C35.3174 30.5769 34.2265 31.0707 33.1065 31.4909L32.9965 31.5253H32.8831C28.2856 31.0717 23.6454 31.3455 19.1331 32.3365C15.2797 33.244 15.0081 33.7115 13.8153 37.7471C10.3591 50.1393 9.19416 63.0584 10.3778 75.869C10.3852 76.9447 10.6923 77.997 11.2647 78.9078C11.6693 79.5112 12.1931 80.0255 12.8037 80.4192C13.4143 80.8129 14.099 81.0776 14.8156 81.1971C15.0839 81.2127 15.352 81.1651 15.5986 81.0583C15.8452 80.9514 16.0632 80.7882 16.2353 80.5818C16.4939 80.361 16.6883 80.0748 16.7984 79.7531C16.9085 79.4314 16.93 79.086 16.8609 78.7531C16.8609 78.5846 16.8403 78.4093 16.8369 78.1893C16.799 76.8624 16.6478 75.5837 16.4931 74.3462C16.292 72.9308 16.1921 71.5029 16.194 70.0734C16.1438 68.0904 16.4356 66.1135 17.0569 64.2296C17.7716 62.0243 19.2944 60.1711 21.3194 59.0424C22.0369 58.5383 22.8785 58.2399 23.7534 58.1793C24.6282 58.1187 25.5029 58.2983 26.2831 58.6987C30.4872 61.2184 30.4081 72.0706 30.3737 76.7043V77.2784C30.7671 77.8747 31.2883 78.376 31.8996 78.7458C32.5108 79.1156 33.1967 79.3447 33.9075 79.4165C33.9994 79.4063 34.0925 79.4147 34.1811 79.4413C34.2697 79.4679 34.352 79.5121 34.4231 79.5712C34.5475 79.7107 34.6421 79.8741 34.7012 80.0514C34.7603 80.2287 34.7826 80.4162 34.7669 80.6024C34.7978 80.6815 34.8012 80.7812 34.8081 80.8534Z" fill="#CCCCCC"/>
<path d="M47.7503 68.6847C48.0226 72.272 47.9697 75.8766 47.5922 79.4544C47.5763 79.9573 47.4285 80.4471 47.1637 80.8749C46.8988 81.3026 46.5262 81.6533 46.0831 81.8916C43.2266 84.0125 33.6531 84.5213 32.4603 80.0147C32.0203 79.9975 32.3709 78.54 31.9516 78.595C31.1142 78.5263 30.3047 78.2618 29.5882 77.8229C28.8717 77.3841 28.2683 76.7832 27.8266 76.0685C27.8437 71.1391 28.3869 53.3569 19.5766 58.1454C17.662 59.2124 16.2262 60.969 15.5616 63.0575C14.9679 64.8797 14.6889 66.7896 14.7366 68.7054C14.6678 71.1597 15.2797 73.8444 15.3691 76.7904C15.4034 78.1069 15.6131 78.4404 14.6334 79.561C13.0556 81.3657 10.3022 79.8429 8.81374 77.8594C8.18427 76.8604 7.83848 75.709 7.81343 74.5285C6.62963 61.652 7.79437 48.6675 11.2509 36.2072C12.5125 31.9791 12.9525 31.3672 16.9675 30.4185C21.5359 29.4136 26.2342 29.1352 30.8894 29.5935C34.5022 28.4179 43.0753 22.0516 46.7741 27.1047C52.3862 25.8587 58.1911 25.749 63.8464 26.7822C69.5016 27.8153 74.8928 29.9704 79.7019 33.1204C84.5729 33.489 89.461 33.5774 94.3422 33.385C95.0297 32.945 95.8341 32.4741 96.5353 32.0685C97.05 31.7199 97.6281 31.4758 98.2369 31.35C99.0275 31.2263 100.059 31.1919 100.299 32.175C100.509 33.184 100.579 34.2167 100.509 35.2447C100.485 35.8645 100.255 36.4584 99.854 36.9318C99.4534 37.4053 98.9059 37.731 98.2987 37.8572C96.9265 37.632 95.5961 37.2009 94.3525 36.5785C89.8837 36.7022 87.1337 36.4547 82.665 36.5785C83.3834 37.3485 83.3525 37.8572 83.875 38.8747C85.1593 42.2547 85.5882 45.8998 85.1234 49.4856C84.6586 53.0714 83.3146 56.4867 81.2109 59.4275C80.8947 64.5494 81.2797 69.7229 81.3175 74.8619C81.3347 76.6322 81.4584 78.3166 79.7912 79.4922C78.3208 80.3738 76.6679 80.9065 74.9594 81.0496C73.251 81.1926 71.5324 80.942 69.9359 80.3172C69.0657 79.8178 68.2888 79.1711 67.6397 78.406C67.0689 78.4686 66.4937 78.4801 65.9209 78.4404C64.9471 78.168 64.1054 77.5511 63.5525 76.7044C63.2356 76.1253 62.9655 75.5218 62.7447 74.8997C62.7447 72.4935 62.6553 71.5516 62.6553 69.1488C57.6995 70.0358 52.6142 69.893 47.7159 68.7294L47.7503 68.6847Z" fill="#373435"/>
<path d="M39.5312 84.0091C38.1114 84.0302 36.6979 83.8165 35.3478 83.3766C34.5983 83.1753 33.9061 82.8021 33.3261 82.2865C32.7461 81.771 32.2943 81.1273 32.0066 80.4066C31.756 80.0944 31.6332 79.6989 31.6628 79.2997V79.145C30.7891 79.014 29.9535 78.6975 29.2124 78.2166C28.4712 77.7357 27.8416 77.1017 27.3659 76.3572L27.2834 76.2231V75.3294C27.3144 71.2662 27.3934 60.4691 23.7291 58.2725C23.1123 57.9728 22.4257 57.8465 21.7427 57.9071C21.0597 57.9676 20.406 58.2128 19.8516 58.6162C18.0454 59.6226 16.6926 61.2817 16.0703 63.2534C15.5036 65.0159 15.2386 66.8615 15.2866 68.7122C15.2867 70.0924 15.3843 71.4708 15.5787 72.8372C15.7266 74.0987 15.8778 75.4016 15.9225 76.7766C15.9225 76.9794 15.9225 77.1547 15.9466 77.3128C16.0248 77.7882 15.9841 78.2756 15.8282 78.7314C15.6722 79.1873 15.4059 79.5975 15.0528 79.9253C14.7738 80.2552 14.4223 80.5163 14.0258 80.688C13.6292 80.8597 13.1984 80.9375 12.7669 80.9153C11.886 80.7936 11.0404 80.4884 10.2849 80.0194C9.52934 79.5505 8.88061 78.9282 8.38062 78.1928C7.6758 77.1157 7.2919 75.8603 7.27375 74.5731C6.07429 61.6279 7.24854 48.5725 10.7387 36.0491C12.0278 31.735 12.595 30.8928 16.8541 29.8856C21.4426 28.8757 26.1608 28.5892 30.8378 29.0366C31.8659 28.6362 32.8702 28.1771 33.8456 27.6616C38.0806 25.5441 43.8487 22.6634 47.0147 26.5134C52.6262 25.3032 58.4219 25.2176 64.0668 26.2613C69.7116 27.3051 75.0935 29.4576 79.9012 32.5944C84.6545 32.954 89.4245 33.0389 94.1875 32.8487C94.8578 32.4328 95.6072 31.9825 96.2706 31.6009L96.4631 31.4909C96.9785 31.1525 97.5555 30.9189 98.1612 30.8034C99.6875 30.5662 100.567 30.9856 100.832 32.0444C101.053 33.1052 101.128 34.1911 101.056 35.2722C101.021 36.0233 100.734 36.7407 100.24 37.3079C99.7465 37.8752 99.0757 38.2589 98.3366 38.3969H98.2472L98.1612 38.3728C97.869 38.2972 97.5734 38.2284 97.2675 38.1597C96.2028 37.9716 95.1725 37.6239 94.2116 37.1284C92.0356 37.1834 90.2412 37.1525 88.5087 37.1284C87.0203 37.1044 85.4906 37.0769 83.7169 37.1044C83.8269 37.3209 83.9059 37.5306 83.9919 37.7437C84.1035 38.0441 84.232 38.3379 84.3769 38.6237C85.7101 42.0775 86.1689 45.8073 85.7125 49.4812C85.2561 53.1551 83.8987 56.6593 81.7609 59.6819C81.5684 63.0025 81.6681 66.4091 81.7609 69.7022C81.8091 71.3934 81.8606 73.1397 81.8744 74.8584V75.1541C82.0403 76.0368 81.9643 76.9479 81.6545 77.7909C81.3446 78.6339 80.8125 79.3774 80.1144 79.9425C78.5702 80.8826 76.829 81.4517 75.0276 81.605C73.2263 81.7583 71.4139 81.4916 69.7331 80.8259C68.9931 80.4596 68.3339 79.9488 67.7944 79.3237C67.6741 79.2 67.5537 79.0762 67.43 78.9594C67.2616 78.9594 67.0862 78.98 66.9316 78.9972C66.5551 79.0566 66.1712 79.0496 65.7972 78.9766C64.6915 78.6706 63.7349 77.973 63.1056 77.0137C62.8635 76.6236 62.6663 76.2073 62.5178 75.7728C62.4387 75.5631 62.3562 75.35 62.2566 75.1266L62.2084 75.02V74.9031C62.2084 73.7103 62.1878 72.8612 62.1637 72.0431C62.1466 71.3556 62.1259 70.6681 62.1225 69.7778C57.5594 70.5283 52.8963 70.4211 48.3725 69.4616C48.5704 72.8176 48.4876 76.1843 48.125 79.5266C48.0992 80.1 47.9278 80.6573 47.6271 81.1462C47.3265 81.6352 46.9063 82.0395 46.4062 82.3212C44.3171 83.5148 41.9356 84.0994 39.5312 84.0091ZM32.7628 79.4784H32.8866L32.9897 79.8703C33.1976 80.4779 33.556 81.0228 34.0315 81.4544C34.5069 81.886 35.084 82.1901 35.7087 82.3384C39.0456 83.3561 42.6473 83.0368 45.7531 81.4481C46.1349 81.2536 46.4565 80.9589 46.6836 80.5956C46.9107 80.2323 47.0346 79.814 47.0422 79.3856C47.4014 75.9875 47.4646 72.5647 47.2312 69.1556L46.9391 69.0731L48.125 66.7047L48.2659 68.2962C52.9766 69.3378 57.8464 69.4406 62.5969 68.5987L63.2191 68.5162V69.1419C63.2191 70.3347 63.2397 71.1837 63.2637 72.0019C63.2878 72.82 63.305 73.6278 63.3084 74.7759C63.3944 74.9787 63.47 75.1747 63.5456 75.3672C63.6668 75.7273 63.827 76.0732 64.0234 76.3984C64.5049 77.1359 65.2378 77.6734 66.0859 77.9109C66.332 77.9482 66.5823 77.9482 66.8284 77.9109C67.1068 77.8779 67.3869 77.863 67.6672 77.8662H67.8734L68.0247 78.0072C68.2103 78.1791 68.3959 78.3509 68.5816 78.5572C69.0229 79.0743 69.5598 79.5014 70.1628 79.8153C71.6729 80.4045 73.2976 80.6413 74.9131 80.5079C76.5285 80.3745 78.0923 79.8743 79.4853 79.0453C80.8191 78.1034 80.8019 76.8109 80.7812 75.1712V74.8722C80.7812 73.1534 80.7194 71.4347 80.6678 69.74C80.5681 66.3472 80.465 62.8409 80.6678 59.4V59.1731L80.8397 59.0219C82.8658 56.1718 84.1577 52.8659 84.6008 49.3971C85.0439 45.9284 84.6246 42.4039 83.38 39.1359C83.217 38.8156 83.0724 38.4862 82.9469 38.1494C82.8086 37.7069 82.5737 37.3007 82.2594 36.96L81.4309 36.0697L82.6444 36.0353C84.8925 35.9734 86.7281 36.0044 88.5087 36.0353C90.2894 36.0662 92.1009 36.0972 94.3215 36.0353H94.4831L94.6206 36.1212C95.5167 36.6069 96.4863 36.9424 97.4909 37.1147C97.7728 37.18 98.0512 37.2419 98.3228 37.3106C98.7749 37.17 99.1728 36.8937 99.4624 36.5192C99.7521 36.1447 99.9195 35.6901 99.9419 35.2172C100.007 34.2421 99.9403 33.2627 99.7425 32.3056C99.6944 32.0959 99.6016 31.7041 98.3125 31.9034C97.8411 31.996 97.3925 32.1806 96.9925 32.4466L96.7966 32.5566C96.1091 32.9519 95.315 33.4297 94.6275 33.8594L94.5312 33.9281H94.3834C89.4806 34.1287 84.5702 34.0403 79.6778 33.6634H79.5334L79.4062 33.5741C74.6576 30.4604 69.3325 28.3312 63.7462 27.3127C58.1599 26.2941 52.426 26.4069 46.8841 27.6444L46.5403 27.7062L46.3375 27.4312C43.7697 23.925 38.3144 26.6509 34.3303 28.6412C33.2756 29.2054 32.1846 29.6992 31.0647 30.1194L30.9547 30.1537H30.8412C26.2438 29.7 21.6035 29.9737 17.0912 30.965C13.2378 31.8725 12.9662 32.34 11.7734 36.3756C8.31724 48.7678 7.15231 61.6869 8.33593 74.4975C8.3433 75.5732 8.65043 76.6255 9.22281 77.5362C9.62747 78.1397 10.1512 78.654 10.7618 79.0477C11.3725 79.4414 12.0571 79.7061 12.7737 79.8256C13.0422 79.8431 13.311 79.7964 13.5579 79.6894C13.8048 79.5825 14.0226 79.4182 14.1934 79.2103C14.452 78.9895 14.6465 78.7033 14.7565 78.3816C14.8666 78.0599 14.8882 77.7145 14.8191 77.3816C14.8191 77.2131 14.7984 77.0378 14.795 76.8178C14.7572 75.4909 14.6059 74.2122 14.4512 72.9747C14.2501 71.5593 14.1501 70.1314 14.1522 68.7019C14.1019 66.7189 14.3938 64.742 15.015 62.8581C15.7297 60.6528 17.2525 58.7996 19.2775 57.6709C19.995 57.1668 20.8367 56.8684 21.7115 56.8078C22.5863 56.7472 23.4611 56.9268 24.2412 57.3272C28.4453 59.8469 28.3662 70.6991 28.3319 75.3328V75.9069C28.7303 76.5049 29.2576 77.0061 29.875 77.3737C30.4924 77.7413 31.1844 77.966 31.9 78.0312C31.9919 78.021 32.085 78.0294 32.1736 78.056C32.2622 78.0826 32.3445 78.1268 32.4156 78.1859C32.54 78.3254 32.6346 78.4888 32.6937 78.6661C32.7528 78.8435 32.7752 79.031 32.7594 79.2172C32.7525 79.3066 32.7559 79.4062 32.7628 79.4784Z" fill="#373435"/>
<path d="M63.8412 68.5644C64.9443 68.458 66.0338 68.2403 67.0931 67.9147C67.6251 71.0347 67.7832 74.2069 67.564 77.3644C66.7613 77.415 65.9618 77.2252 65.2675 76.8192C64.5731 76.4133 64.0156 75.8096 63.6659 75.0853C63.4884 72.9117 63.5472 70.7253 63.8412 68.5644Z" fill="#6978AB"/>
<path d="M67.4507 77.9143C66.5662 77.9444 65.692 77.7172 64.9341 77.2602C64.1763 76.8031 63.5674 76.136 63.1813 75.3396L63.1297 75.2434V75.1334C62.9502 72.9197 63.0101 70.693 63.3085 68.4921L63.3635 68.0659L63.7897 68.0178C64.8563 67.9141 65.9099 67.7045 66.935 67.3921L67.4988 67.21L67.6363 67.7875C68.1534 70.6023 68.3231 73.47 68.1416 76.3262L68.1141 77.904H67.5847L67.4507 77.9143ZM64.2056 74.9237C64.4743 75.4531 64.8754 75.9039 65.37 76.2322C65.8645 76.5605 66.4357 76.7551 67.0278 76.7971V76.3021C67.1757 73.7328 67.0605 71.155 66.6841 68.609C65.9127 68.8119 65.1282 68.9612 64.3363 69.0559C64.0963 71.0071 64.0514 72.9774 64.2022 74.9375L64.2056 74.9237Z" fill="#373435"/>
<path d="M13.9287 77.9729C13.1553 72.906 12.3681 63.965 15.9912 59.7025C16.278 59.3162 16.5879 58.9478 16.9194 58.5991C22.6359 53.216 27.6169 57.8463 28.9678 63.8069C29.2541 67.5755 29.3127 71.3579 29.1431 75.1335C29.4808 75.7903 30.002 76.3348 30.6434 76.701C31.2847 77.0671 32.0187 77.2391 32.7559 77.196C33.2819 78.2822 33.1409 79.09 33.739 79.8085C34.8743 81.0828 36.3633 81.9902 38.0163 82.4151C39.6692 82.8399 41.4112 82.763 43.0203 82.1941C44.0969 81.7376 45.145 81.2164 46.1587 80.6335C46.9795 76.0226 46.8625 71.2935 45.815 66.7288C45.815 66.0963 45.6053 65.6769 45.6053 65.0444C45.9986 65.1008 46.3686 65.265 46.6744 65.5188C45.9869 68.0419 55.4606 69.7779 66.5122 66.7288C66.6359 66.2888 66.4228 65.7457 66.6875 65.5875C66.8584 65.4805 67.0508 65.4124 67.251 65.3881C67.4512 65.3637 67.6543 65.3837 67.8459 65.4466C67.8975 66.2544 67.9147 67.0416 67.9697 67.8528C68.8267 67.9337 69.6889 67.9451 70.5478 67.8872C69.9839 68.3944 69.2428 68.6587 68.4853 68.6228C68.6778 68.6228 68.3787 68.9907 68.5541 69.025C69.0628 69.1488 70.0287 68.9563 70.4309 69.1316C69.6781 69.5716 68.8359 69.3241 68.3272 69.8191C68.4509 72.5004 68.5197 75.3775 68.6262 78.0691C70.2839 79.3274 72.3299 79.9655 74.409 79.8725C76.4881 79.7796 78.469 78.9615 80.0078 77.5603C80.3363 72.1746 80.2213 66.771 79.664 61.4041C79.2619 61.3525 78.8562 61.2803 78.454 61.2288C84.7344 52.7794 85.9444 44.1341 80.6815 36.331C80.63 35.9872 80.3997 35.6435 80.3378 35.2997C84.9165 35.1244 89.619 35.5988 94.2115 35.4235C95.4513 35.8929 96.7306 36.2507 98.034 36.4925C99.385 36.0182 99.6291 32.2678 98.2987 32.6872C96.9684 33.1066 96.2362 33.9488 94.8097 34.4747C89.5469 34.4747 83.7065 34.265 78.4472 34.265C74.1535 30.8489 69.0683 28.5696 63.6611 27.6378C58.2539 26.7059 52.6991 27.1516 47.5097 28.9335C49.108 32.3752 50.0098 36.099 50.1632 39.8906C50.3166 43.6822 49.7185 47.4667 48.4034 51.0263C48.1044 52.0094 43.5634 54.8832 47.2794 51.7447C51.0331 48.5547 48.6819 26.3932 44.0687 26.3553C38.6403 26.4117 33.4292 28.4961 29.4594 32.1991C28.7409 31.4291 28.7925 31.7419 29.1156 30.6557C25.1895 30.3176 21.2344 30.6666 17.4281 31.6869C16.4416 31.7184 15.4875 32.0465 14.6903 32.6284C13.8932 33.2104 13.2899 34.0191 12.9594 34.9491C9.49033 47.3464 8.09651 60.2323 8.83436 73.0847C9.01498 74.6259 9.42273 76.1318 10.0444 77.5535C12.1069 79.8153 13.2206 79.1657 13.9047 77.9729H13.9287Z" fill="url(#paint0_linear_38_245)"/>
<path d="M22.1581 35.8257C21.0015 35.3541 19.7457 35.178 18.504 35.3135C18.3901 35.3011 18.2754 35.3286 18.1795 35.3912C18.0836 35.4539 18.0124 35.548 17.9781 35.6573C17.9319 35.7365 17.9021 35.8241 17.8902 35.915C17.8784 36.0059 17.8849 36.0983 17.9093 36.1866C18.0159 36.4857 18.0331 36.4685 18.2943 36.5304C18.6403 36.582 18.9936 36.5514 19.3256 36.441C19.718 36.2343 20.151 36.116 20.5941 36.0947C21.0371 36.0733 21.4795 36.1493 21.89 36.3173C22.275 36.3001 22.3128 36.142 22.189 35.8395L22.1581 35.8257Z" fill="#373435"/>
<path d="M18.5831 37.0941C18.4468 37.0946 18.3109 37.0808 18.1775 37.0528H18.1328C17.9508 37.0343 17.7798 36.9573 17.6453 36.8334C17.5108 36.7094 17.4201 36.5452 17.3869 36.3653C17.3385 36.2038 17.3229 36.0341 17.3413 35.8664C17.3596 35.6987 17.4113 35.5364 17.4934 35.3891C17.5732 35.1991 17.7091 35.038 17.8829 34.9274C18.0568 34.8168 18.2603 34.762 18.4662 34.7703C19.7495 34.6346 21.0466 34.8103 22.2475 35.2825H22.5294L22.6703 35.6263C22.7493 35.7559 22.7904 35.9051 22.7892 36.0569C22.7879 36.2087 22.7442 36.3571 22.6631 36.4854C22.5819 36.6138 22.4666 36.7169 22.33 36.7831C22.1934 36.8493 22.041 36.8761 21.89 36.8603H21.8075L21.7147 36.8328C21.3761 36.6863 21.0092 36.617 20.6405 36.6301C20.2718 36.6432 19.9107 36.7383 19.5834 36.9085L19.5215 36.9463L19.4528 36.9635C19.1698 37.0445 18.8774 37.0884 18.5831 37.0941ZM18.4319 35.9838C18.6633 36.0076 18.8972 35.9842 19.1194 35.915L19.305 35.8222C19.0644 35.8222 18.8203 35.8222 18.5728 35.86H18.4834L18.4628 35.9013C18.4478 35.9268 18.4374 35.9547 18.4319 35.9838Z" fill="#373435"/>
<path d="M19.3256 40.174C19.4827 39.8473 19.7306 39.5726 20.0397 39.383C20.3488 39.1935 20.7059 39.0969 21.0684 39.105C21.1372 38.665 21.0684 38.4175 20.5047 38.4175C19.704 38.8233 19.0202 39.4267 18.5178 40.1706C18.2293 40.8173 18.1373 41.5345 18.2531 42.2331C18.316 42.7106 18.5626 43.1447 18.9406 43.4431C19.332 43.6881 19.7883 43.809 20.2496 43.79C20.7109 43.771 21.1557 43.6129 21.5256 43.3365C22.7562 42.6181 23.9869 40.5659 21.8247 39.7925C21.3914 39.7079 20.9455 39.7109 20.5134 39.8012C20.0813 39.8916 19.6716 40.0674 19.3084 40.3184C19.274 40.3356 19.2569 40.2669 19.3084 40.1775L19.3256 40.174Z" fill="#373435"/>
<path d="M19.9925 44.3644C19.4817 44.3745 18.9841 44.2013 18.59 43.8763C18.1036 43.4854 17.7881 42.9209 17.71 42.3019C17.5699 41.4836 17.6902 40.642 18.0537 39.8957C18.6038 39.0701 19.355 38.3982 20.2365 37.9432L20.3569 37.871H20.4875C20.6561 37.8547 20.8262 37.8755 20.986 37.9319C21.1457 37.9883 21.2912 38.079 21.4122 38.1975C21.5161 38.3384 21.5878 38.5004 21.6222 38.6721C21.6567 38.8438 21.653 39.0209 21.6115 39.191C22.0783 39.2615 22.513 39.4711 22.8589 39.7924C23.2047 40.1137 23.4457 40.5319 23.5503 40.9922C23.5304 41.5749 23.3589 42.1424 23.0527 42.6385C22.7464 43.1347 22.316 43.5424 21.804 43.8213C21.258 44.1576 20.6334 44.3448 19.9925 44.3644ZM18.8822 40.7C18.755 41.1844 18.7269 41.6895 18.7997 42.185C18.8479 42.5235 19.0268 42.8295 19.2981 43.0375C19.9615 43.591 21.0375 42.9997 21.2472 42.876C21.5779 42.6992 21.8608 42.4449 22.0715 42.1347C22.2823 41.8246 22.4146 41.4679 22.4572 41.0953C22.4262 40.7516 22.1512 40.5041 21.6425 40.3219C20.9274 40.214 20.198 40.3837 19.604 40.7963L19.5594 40.8203L19.1915 41.006L18.889 40.7H18.8822Z" fill="#373435"/>
<path d="M20.2813 42.5596C20.2884 42.685 20.3127 42.8087 20.3534 42.9274C20.3711 42.9829 20.3953 43.0359 20.4256 43.0856C20.3253 43.1522 20.2102 43.1933 20.0904 43.2052C19.9706 43.2172 19.8497 43.1997 19.7381 43.1543C18.9784 42.8106 19.0334 41.7449 19.4219 41.1674C19.6254 40.8696 19.8959 40.6236 20.2117 40.4493C20.5275 40.275 20.8798 40.1772 21.2403 40.1637C21.6459 40.3734 21.7697 40.5693 21.5566 40.6209C21.4362 40.6437 21.3201 40.6855 21.2128 40.7446C21.1312 40.7812 21.0583 40.8348 20.999 40.9018C20.9398 40.9688 20.8955 41.0476 20.8691 41.1331C21.0444 41.1846 21.1338 41.1331 21.2919 41.2018V41.7484C21.123 41.6635 20.93 41.6393 20.7453 41.6796C20.4016 41.7862 20.2675 42.2778 20.2675 42.5768L20.2813 42.5596Z" fill="#FEFEFE"/>
<path d="M21.7353 56.5778C22.7091 56.3691 23.6318 55.9693 24.45 55.4014C25.2682 54.8336 25.9656 54.109 26.5017 53.2698C27.0379 52.4305 27.4022 51.4932 27.5736 50.5121C27.7449 49.531 27.7199 48.5257 27.5 47.5544C26.8846 47.5416 26.2816 47.3788 25.7434 47.08C25.709 46.8531 25.6919 46.6228 25.654 46.3925C27.0772 47.08 29.0915 47.2863 28.8303 45.1103C29.0228 45.0588 29.3219 45.0416 29.5178 44.9866C29.449 46.5128 29.174 46.6538 28.2356 47.3034C28.5055 48.9675 28.3647 50.6722 27.8255 52.2694C27.2863 53.8666 26.3651 55.3079 25.1419 56.4678C25.069 56.9453 25.1115 57.4332 25.2656 57.8909C24.8156 57.4208 24.2634 57.0606 23.6518 56.8383C23.0402 56.6159 22.3856 56.5374 21.7387 56.6088L21.7353 56.5778Z" fill="#373435"/>
<path d="M26.235 59.7815L24.86 58.2622C24.4608 57.8511 23.972 57.5379 23.4317 57.3471C22.8915 57.1563 22.3144 57.093 21.7456 57.1622H21.1887V56.1997L21.5772 56.045C23.347 55.6821 24.9058 54.6436 25.9224 53.1501C26.9391 51.6565 27.3336 49.8256 27.0222 48.0459C26.4648 48.0044 25.9252 47.8312 25.4478 47.5406L25.2347 47.4065L25.1968 47.1625C25.1797 47.0422 25.1625 46.9219 25.1487 46.8015C25.135 46.6812 25.1247 46.5884 25.1075 46.4784L24.9493 45.4472L25.8878 45.9009C26.203 46.1034 26.5594 46.2331 26.931 46.2807C27.3026 46.3282 27.6802 46.2925 28.0362 46.1759C28.2562 46.0212 28.3387 45.6844 28.2803 45.1756L28.2287 44.7081L28.6825 44.5844C28.8172 44.5509 28.9538 44.5256 29.0915 44.5087C29.184 44.4979 29.2758 44.4818 29.3665 44.4606L30.0953 44.2612L30.0609 45.014C29.9887 46.5815 29.645 46.9769 28.82 47.5647C29.0348 49.2356 28.8595 50.9337 28.3078 52.5255C27.7561 54.1173 26.843 55.5597 25.6403 56.7394C25.641 57.0322 25.6815 57.3236 25.7606 57.6056L26.235 59.7815ZM23.8287 56.3165C24.0786 56.3965 24.3204 56.5001 24.5506 56.6259C24.5609 56.5089 24.5852 56.3935 24.6228 56.2822L24.6606 56.1722L24.7397 56.0862C25.033 55.7723 25.3046 55.4572 25.5543 55.1409C25.0262 55.5978 24.4472 55.9923 23.8287 56.3165Z" fill="#373435"/>
<path d="M76.1647 79.7948C76.0787 78.4988 75.9206 77.361 75.8828 76.0617C75.7969 73.0848 73.535 72.4351 73.4112 75.412C73.3425 76.9726 73.4112 78.4438 73.4112 79.9151C74.3288 80.0406 75.2615 79.9999 76.1647 79.7948Z" fill="#8093D0"/>
<path d="M74.7278 80.1625C74.3841 80.1625 74.061 80.1419 73.7344 80.1213L73.2188 80.0938V79.9219C73.2188 79.4338 73.2188 78.9491 73.2188 78.461C73.2188 77.4778 73.1878 76.4603 73.2188 75.4119C73.2841 73.8547 73.9063 73.3013 74.4597 73.3013C75.1919 73.3013 75.9963 74.2741 76.0513 76.0513C76.0719 76.8453 76.1406 77.5706 76.2094 78.3372C76.2541 78.8047 76.2953 79.2791 76.3297 79.7741V79.9219L76.1888 79.9631C75.7136 80.0982 75.2218 80.1653 74.7278 80.1625ZM73.5969 79.75H73.7619C74.4992 79.8368 75.2457 79.8031 75.9722 79.6503C75.9413 79.2103 75.9 78.7875 75.8622 78.3716C75.79 77.5981 75.7247 76.8694 75.7006 76.0616C75.656 74.58 75.0131 73.6553 74.4735 73.6553C74.1022 73.6553 73.6519 74.116 73.5969 75.4153C73.5488 76.4466 73.566 77.4778 73.5969 78.4438C73.59 78.8838 73.5969 79.3135 73.5969 79.75Z" fill="#373435"/>
<path d="M73.4525 79.9459C73.2029 78.4506 73.1096 76.9334 73.1741 75.4188C73.3666 72.6688 70.7678 69.7709 70.5925 74.8756C70.5288 76.3675 70.5875 77.8621 70.7678 79.3444C71.6458 79.6142 72.5434 79.8153 73.4525 79.9459Z" fill="#8093D0"/>
<path d="M73.6622 80.166L73.425 80.1282C72.5054 79.9992 71.5974 79.7981 70.7094 79.5266L70.5994 79.4888V79.3753C70.4174 77.8817 70.3588 76.3755 70.424 74.8722C70.479 73.2257 70.7678 72.2494 71.3281 71.9675C71.456 71.9037 71.5994 71.8772 71.7417 71.8912C71.884 71.9052 72.0194 71.9591 72.1325 72.0466C72.5822 72.4802 72.9276 73.0102 73.1426 73.5968C73.3575 74.1833 73.4365 74.811 73.3734 75.4325C73.2959 76.7601 73.3592 78.0921 73.5625 79.4063L73.6622 80.166ZM70.9328 79.2138C71.6889 79.4384 72.4596 79.6107 73.2394 79.7294L73.205 79.4441C72.9925 78.1101 72.9199 76.7576 72.9884 75.4085C73.0467 74.8512 72.9804 74.2879 72.7943 73.7594C72.6082 73.2309 72.307 72.7504 71.9125 72.3525C71.8535 72.3023 71.7816 72.2698 71.7049 72.2588C71.6282 72.2479 71.55 72.2589 71.4794 72.2907C71.2903 72.3869 70.8434 72.8372 70.7712 74.8825C70.7096 76.3283 70.7636 77.7766 70.9328 79.2138Z" fill="#373435"/>
<path d="M70.7713 79.5781L70.4035 73.7344C70.1388 69.3722 68.3857 69.8809 68.2447 73.4731C68.176 75.1712 68.3135 76.0993 68.1553 77.8009C68.9803 78.3612 69.8397 79.4647 70.7713 79.554V79.5781Z" fill="#8093D0"/>
<path d="M70.7541 79.75C70.0186 79.5703 69.3539 79.1739 68.8462 78.6122C68.5958 78.3813 68.3317 78.1655 68.0556 77.9659L67.9662 77.904V77.7975C68.0381 76.9746 68.0622 76.1482 68.0384 75.3225C68.0384 74.7656 68.0384 74.1915 68.0384 73.48C68.1106 71.6478 68.5953 70.4584 69.2725 70.4515C69.96 70.4515 70.4344 71.6787 70.5581 73.7378L70.9259 79.5815H70.7403L70.7541 79.75ZM68.3478 77.7253C68.5953 77.904 68.8428 78.124 69.0869 78.3372C69.5074 78.7713 70.0129 79.1142 70.5719 79.3443L70.2281 73.7618C70.0975 71.5997 69.6059 70.8193 69.3069 70.8193C68.9975 70.8193 68.5059 71.6753 68.4372 73.4972C68.4063 74.1847 68.4166 74.7725 68.4372 75.3225C68.4507 76.1221 68.4208 76.922 68.3478 77.7184V77.7253Z" fill="#373435"/>
<path d="M40.7859 82.5963C40.8325 81.2282 40.7624 79.8585 40.5762 78.5023C39.8406 75.3398 38.9125 74.9513 37.8262 77.2888V82.5413C38.8087 82.6758 39.8041 82.6873 40.7894 82.5757L40.7859 82.5963Z" fill="#8093D0"/>
<path d="M39.6756 82.8438C39.105 82.8438 38.5344 82.7923 37.9741 82.7407L37.6303 82.7098V77.2098C38.1562 76.0788 38.6616 75.5529 39.1703 75.6079C39.7959 75.6732 40.2909 76.5773 40.7275 78.4576L40.7619 78.7567C40.9312 80.0302 40.9922 81.3159 40.9441 82.5998H40.7653L40.7894 82.7579C40.4209 82.8157 40.0486 82.8444 39.6756 82.8438ZM38.005 82.3763C38.8681 82.487 39.7408 82.502 40.6072 82.421C40.6414 81.2115 40.5793 80.0011 40.4216 78.8013L40.3906 78.5229C39.8887 76.3676 39.4006 75.9998 39.1566 75.9757C38.9675 75.9757 38.5791 76.1098 38.005 77.3335V82.3763Z" fill="#373435"/>
<path d="M35.4062 81.7301C35.4234 79.7157 35.4406 78.3819 35.4406 76.3676C36.1762 73.4044 36.9291 73.7035 37.6647 77.2613C37.6819 79.1726 37.6991 80.4169 37.6991 82.3248C36.8944 82.2933 36.1057 82.0906 35.3856 81.7301H35.4062Z" fill="#8093D0"/>
<path d="M37.8709 82.531L37.5615 82.4967C36.7672 82.4582 35.9903 82.2508 35.2825 81.8882L34.6809 81.5445H35.2103V80.5132C35.2103 79.1039 35.2343 77.9385 35.2343 76.3504V76.3057C35.6056 74.8138 35.97 74.147 36.4203 74.147C36.764 74.147 37.2487 74.5079 37.7953 77.2063V78.3957C37.7953 79.7192 37.8193 80.802 37.8193 82.311L37.8709 82.531ZM35.5781 81.6304C36.1836 81.9154 36.8384 82.0811 37.5065 82.1185C37.5065 80.7229 37.5065 79.6745 37.4825 78.4129V77.2613C36.9428 74.6729 36.5303 74.532 36.4512 74.532C36.3722 74.532 36.0765 74.5732 35.6228 76.3882C35.6228 77.966 35.6228 79.1382 35.5987 80.5338L35.5781 81.6304Z" fill="#373435"/>
<path d="M32.6562 77.7665C32.7628 76.0822 33.1134 74.3806 33.2166 72.6962C32.5291 69.3618 31.7797 68.7672 30.9925 70.9431C30.9581 73.1018 30.9409 75.2778 30.9066 77.4365C31.4266 77.7682 32.0529 77.891 32.6597 77.7803L32.6562 77.7665Z" fill="#8093D0"/>
<path d="M32.2197 78.0312C31.7999 78.0096 31.3907 77.892 31.0234 77.6875L30.7347 77.5568V77.4365C30.753 76.3572 30.7679 75.2755 30.7794 74.1915C30.7908 73.1076 30.8057 72.0248 30.8241 70.9431V70.8847C31.1678 69.8981 31.5322 69.4547 31.9447 69.4822C32.3572 69.5097 32.835 69.8981 33.4022 72.6653V72.7134C33.3506 73.5625 33.2337 74.4322 33.1203 75.2606C33.0069 76.089 32.8934 76.945 32.8419 77.7768V77.935L32.6975 77.9659C32.5409 78.0041 32.3808 78.026 32.2197 78.0312ZM31.1059 77.3437L31.1747 77.3747C31.5726 77.6123 32.0379 77.7114 32.4981 77.6565C32.5531 76.8487 32.6631 76.0272 32.7731 75.2331C32.8831 74.439 32.9966 73.5625 33.0516 72.734C32.5119 70.1112 32.0581 69.8775 31.9309 69.8672C31.8622 69.8672 31.5872 69.9256 31.1919 71.0015C31.1735 72.0695 31.1586 73.1408 31.1472 74.2156C31.1357 75.2904 31.122 76.3239 31.1059 77.3162V77.3437Z" fill="#373435"/>
<path d="M65.3847 77.2337C65.5256 75.4428 65.3331 73.9509 65.3847 72.1978C65.4363 70.0734 67.5366 70.6887 67.6259 72.6378C67.7153 74.5869 67.8184 75.5872 67.925 77.5328C67.0738 77.6769 66.1991 77.5731 65.4053 77.2337H65.3847Z" fill="#8093D0"/>
<path d="M66.9041 77.7494C66.3665 77.7683 65.833 77.65 65.3537 77.4057H65.2025V77.2097C65.264 76.253 65.2708 75.2935 65.2231 74.336C65.2025 73.6485 65.1784 72.9369 65.2025 72.1841C65.23 71.0772 65.7766 70.6785 66.2784 70.675C66.9659 70.675 67.7462 71.4141 67.7978 72.6207C67.8494 73.6141 67.9009 74.3394 67.9491 75.0991C67.9972 75.8588 68.0453 76.5532 68.0969 77.5054V77.691L67.5641 77.7116C67.3475 77.7391 67.1241 77.7494 66.9041 77.7494ZM65.5737 77.1169C66.2028 77.3771 66.8904 77.4626 67.5641 77.3644H67.7291C67.6809 76.4947 67.6362 75.8141 67.5916 75.1369C67.5434 74.391 67.4953 73.6485 67.4403 72.6516C67.3853 71.6547 66.8113 71.0532 66.2853 71.0532C65.8556 71.0532 65.5978 71.4897 65.5703 72.2082C65.5428 72.9266 65.5703 73.6554 65.5909 74.3394C65.6333 75.2649 65.6276 76.192 65.5737 77.1169Z" fill="#373435"/>
<path d="M65.2747 77.299C65.2231 75.9859 65.2403 74.4081 65.1888 73.095C65.3125 71.2903 64.0681 68.6262 63.58 71.5894C63.425 72.6867 63.3321 73.7919 63.3016 74.8997C63.8681 75.7703 64.5299 76.5751 65.2747 77.299Z" fill="#B9C5EA"/>
<path d="M65.4706 77.6703L65.1647 77.4503C64.5598 76.9169 64.0311 76.3027 63.5938 75.625C63.4288 75.3947 63.2775 75.185 63.1538 75.0269L63.1091 74.9719V74.9031C63.1331 74.5594 63.1503 74.2156 63.1641 73.9406C63.1899 73.1483 63.2657 72.3584 63.3909 71.5756C63.4528 71.1906 63.6453 70.0219 64.2606 70.0975C64.9481 70.18 65.4397 72.0156 65.3641 73.1225C65.3916 73.7619 65.3984 74.4975 65.4088 75.2091C65.4191 75.9206 65.4259 76.6528 65.4534 77.3059L65.4706 77.6703ZM63.4838 74.8447C63.6041 74.9994 63.7416 75.1884 63.8928 75.4016C64.249 75.9277 64.6455 76.4253 65.0788 76.89C65.0788 76.3469 65.0547 75.7659 65.0478 75.2022C65.0478 74.4941 65.0306 73.7584 65.0031 73.1053C65.0891 71.8266 64.5219 70.4825 64.2228 70.4481C64.1575 70.4275 63.9203 70.6337 63.7553 71.6203C63.6322 72.3894 63.5575 73.1656 63.5319 73.9441C63.5181 74.2191 63.5044 74.5112 63.4838 74.8412V74.8447Z" fill="#373435"/>
<path d="M49.6478 53.1403C50.5416 48.8778 51.4181 44.6153 52.3119 40.3356C52.4528 39.3353 52.7141 38.4415 53.766 38.3522H55.0447C55.8147 38.3522 56.2547 38.8094 56.3235 39.7272L56.0622 41.6212C56.0966 42.3947 56.571 42.8312 57.5163 42.9034C58.795 42.955 60.0944 43.0272 61.3731 43.0787C63.3016 43.2025 64.5975 44.0275 64.4669 46.4303C64.0647 48.5512 63.6591 50.6756 63.2569 52.7794C63.2349 53.2699 63.0686 53.743 62.7787 54.1392C62.4888 54.5355 62.0883 54.8374 61.6275 55.0069C61.05 54.9725 60.4003 55.0412 59.8228 55.0069C58.8225 55.0584 58.245 54.6906 58.6128 53.3741C58.9806 51.7069 59.4378 49.6203 59.8228 47.9531C59.9638 45.9697 59.2281 45.8665 58.4478 45.7256C57.781 45.6362 57.1347 45.7256 56.4678 45.6362C55.4847 45.7772 55.1169 46.7225 54.8385 47.7778C54.4191 49.5481 53.9791 51.3219 53.5597 53.1094C53.3672 54.0753 53.1575 54.7044 52.4391 55.0034H50.301C49.4943 54.827 49.2651 54.1956 49.6135 53.1094L49.6478 53.1403Z" fill="#373435"/>
<path d="M60.1872 55.3781C60.06 55.3781 59.9362 55.3781 59.8125 55.3781C59.5543 55.4216 59.2895 55.4014 59.0409 55.3194C58.7923 55.2373 58.5674 55.0958 58.3859 54.9072C58.2337 54.6672 58.142 54.3939 58.1187 54.1107C58.0953 53.8275 58.141 53.5429 58.2519 53.2812L58.4615 52.3256C58.7812 50.875 59.149 49.2559 59.4515 47.905C59.5581 46.3065 59.1284 46.2275 58.4203 46.0968C57.7809 46.0109 57.1656 46.0968 56.4781 46.0143C55.7906 46.1381 55.4778 46.8222 55.1959 47.8775C55.0103 48.6578 54.8178 49.4518 54.6253 50.2459C54.3881 51.229 54.1509 52.2122 53.9172 53.2022C53.6834 54.1922 53.4944 54.969 52.58 55.3506L52.5112 55.3781H50.2219C50.0274 55.3463 49.842 55.273 49.6783 55.1633C49.5146 55.0536 49.3764 54.91 49.2731 54.7422C49.153 54.4716 49.0909 54.1788 49.0909 53.8828C49.0909 53.5867 49.153 53.294 49.2731 53.0234L49.3865 52.6797C49.8449 50.459 50.3032 48.2373 50.7615 46.0143C51.1557 44.1123 51.551 42.209 51.9475 40.3047C52.0437 39.6172 52.2465 38.1562 53.7315 38.0325H55.0412C55.605 38.0325 56.5709 38.2525 56.6844 39.7512V39.789L56.4197 41.6865C56.4437 42.075 56.6053 42.5184 57.5334 42.5872L59.4619 42.6731L61.3765 42.759C61.8659 42.7133 62.3592 42.7812 62.818 42.9575C63.2767 43.1338 63.6886 43.4137 64.0213 43.7754C64.3541 44.1371 64.5988 44.5708 64.7363 45.0427C64.8738 45.5145 64.9004 46.0118 64.814 46.4956V46.5437C64.4119 48.6681 64.0062 50.789 63.604 52.8962C63.5702 53.4497 63.3755 53.9813 63.0439 54.4258C62.7124 54.8703 62.2584 55.2084 61.7375 55.3987L61.6687 55.4228H61.5931C61.3215 55.4228 61.0294 55.4228 60.7234 55.4228C60.5481 55.3712 60.3659 55.3781 60.1872 55.3781ZM59.8159 54.6356H59.8365H60.7062C60.7062 54.6356 61.2837 54.6356 61.5656 54.6356C61.9468 54.4773 62.2744 54.2126 62.5091 53.873C62.7438 53.5334 62.8757 53.1335 62.889 52.7209C63.2924 50.6126 63.6946 48.4997 64.0956 46.3822C64.2022 44.4503 63.3806 43.5703 61.3456 43.4431L59.4344 43.3572L57.499 43.2678C55.9865 43.1543 55.7184 42.1987 55.6944 41.6384V41.5937L55.9556 39.7065C55.8765 38.8265 55.4262 38.7131 55.0447 38.7131H53.7659C53.1334 38.7681 52.8378 39.2047 52.6728 40.3803C52.2706 42.3122 51.8753 44.2131 51.48 46.114C50.9896 48.4813 50.4969 50.8463 50.0019 53.209L49.8644 53.8725L49.8231 53.8312C49.7971 54.0083 49.8246 54.189 49.9022 54.3503C49.9513 54.424 50.0151 54.4868 50.0896 54.5348C50.1642 54.5827 50.2478 54.6147 50.3353 54.6287H52.3531C52.8447 54.395 53.0131 53.9412 53.1919 53.0268C53.429 52.0231 53.6662 51.0365 53.9034 50.0534C54.0959 49.2605 54.2861 48.4687 54.474 47.6781C54.6837 46.8943 55.0653 45.4506 56.4094 45.2718H56.4575H56.509C57.1347 45.3543 57.7878 45.2718 58.489 45.3612H58.5372C59.5203 45.54 60.3212 45.8597 60.1734 47.9703V48.0287C59.8606 49.3831 59.4859 51.0125 59.18 52.47L58.9634 53.4462C58.8259 53.9378 58.8259 54.2747 58.9634 54.4397C59.1009 54.6047 59.5031 54.6493 59.7987 54.6356H59.8159Z" fill="#FEFEFE"/>
<path d="M33.0825 58.0731C33.9591 53.5288 34.8528 48.9844 35.7328 44.4572C35.7214 44.2515 35.7535 44.0457 35.827 43.8533C35.9005 43.6608 36.0138 43.4861 36.1595 43.3404C36.3051 43.1947 36.4799 43.0814 36.6723 43.0079C36.8648 42.9344 37.0706 42.9023 37.2763 42.9138H45.3475C46.1165 42.8911 46.8772 43.0785 47.5477 43.4558C48.2182 43.8331 48.7731 44.3861 49.1528 45.0553C49.6932 46.0337 49.9199 47.1545 49.8025 48.2659C49.6298 50.1744 48.7842 51.9593 47.4169 53.3019C46.2972 54.2473 44.9255 54.8448 43.4706 55.0206C42.0956 55.055 40.7206 55.0722 39.3456 55.11C38.555 55.0413 37.7678 55.2509 37.5753 55.8834C37.3313 56.7428 37.1559 57.6022 36.9084 58.4444C36.8226 58.6341 36.6967 58.8029 36.5395 58.9394C36.3823 59.0759 36.1974 59.1767 35.9975 59.235C35.2069 59.2522 34.4025 59.2522 33.6119 59.2694C32.7663 59.2831 32.9416 58.7813 33.0825 58.0731ZM38.7131 50.2838C38.94 49.0909 39.2219 47.74 39.4316 46.6881C39.5436 46.373 39.7543 46.1025 40.0324 45.9167C40.3104 45.7309 40.641 45.6398 40.975 45.6569C41.8072 45.5978 42.6427 45.7053 43.4328 45.9731C43.7787 46.1128 44.091 46.3244 44.349 46.5938C44.607 46.8633 44.8048 47.1845 44.9293 47.5361C45.0537 47.8878 45.1021 48.2619 45.0711 48.6337C45.04 49.0054 44.9304 49.3663 44.7494 49.6925C44.4437 50.2667 44.0276 50.7748 43.525 51.1877C43.0224 51.6007 42.4432 51.9103 41.8206 52.0988C41.2489 52.2481 40.6574 52.3072 40.0675 52.2741C38.5584 52.1159 38.4347 51.7138 38.6925 50.2734L38.7131 50.2838Z" fill="#373435"/>
<path d="M33.5706 59.6337C33.4242 59.6485 33.2764 59.6299 33.1383 59.5793C33.0001 59.5287 32.8753 59.4474 32.7731 59.3416C32.5119 59.0287 32.6012 58.6059 32.694 58.1591L32.725 58.0044C33.2085 55.5019 33.6955 52.9994 34.1859 50.4969C34.5801 48.4756 34.9731 46.4567 35.365 44.44C35.3502 44.2029 35.3847 43.9654 35.4664 43.7423C35.548 43.5193 35.675 43.3156 35.8394 43.1441C36.0261 42.9481 36.2522 42.7938 36.5028 42.6913C36.7534 42.5888 37.0228 42.5405 37.2934 42.5494H45.3475C46.1836 42.5238 47.0106 42.7287 47.7381 43.1416C48.4657 43.5544 49.0656 44.1594 49.4725 44.8903C50.0426 45.9283 50.2824 47.1155 50.16 48.2934C49.9808 50.2883 49.0988 52.1547 47.6712 53.5597L47.63 53.5975C46.4586 54.5832 45.025 55.2057 43.505 55.3884C42.7969 55.4091 42.1059 55.4194 41.4184 55.4331L39.3559 55.4778H39.3147C38.7612 55.4297 38.0634 55.5328 37.9397 55.9934C37.8159 56.4541 37.7162 56.8322 37.5959 57.255C37.4756 57.6778 37.3828 58.1144 37.2522 58.5509C37.1552 58.7962 37.004 59.0163 36.8099 59.1949C36.6159 59.3735 36.384 59.5059 36.1315 59.5822L36.0662 59.6097H35.9975L34.8115 59.6269L33.6119 59.6441L33.5706 59.6337ZM33.3403 58.8775C33.4254 58.9003 33.5137 58.9084 33.6015 58.9016L34.8115 58.8844H35.9184C36.2897 58.7194 36.5028 58.5406 36.5612 58.355C36.6815 57.9322 36.7847 57.5128 36.905 57.09C37.0253 56.6672 37.1181 56.2306 37.2487 55.7975C37.4722 55.0619 38.28 54.6666 39.3834 54.7662L41.4253 54.7216L43.4878 54.6769C44.8564 54.5028 46.1456 53.9369 47.2003 53.0475C48.4957 51.7693 49.298 50.0746 49.4656 48.2625C49.5775 47.2163 49.3638 46.1611 48.8537 45.2409C48.4972 44.6342 47.9845 44.1343 47.369 43.7933C46.7535 43.4523 46.0577 43.2827 45.3544 43.3022H37.2762C37.108 43.2954 36.9403 43.3247 36.7843 43.3881C36.6284 43.4516 36.4879 43.5477 36.3722 43.67C36.2726 43.7717 36.1965 43.8939 36.149 44.0281C36.1015 44.1623 36.0838 44.3052 36.0972 44.4469V44.4984V44.55C35.703 46.5827 35.3065 48.6188 34.9078 50.6584C34.4197 53.1586 33.9327 55.6611 33.4469 58.1659L33.4125 58.3275C33.3601 58.513 33.3369 58.7055 33.3437 58.8981L33.3403 58.8775ZM40.394 52.6487C40.2737 52.6487 40.1534 52.6487 40.0297 52.6487C39.7395 52.6558 39.4509 52.605 39.1806 52.4994C38.9103 52.3938 38.6637 52.2354 38.4553 52.0334C38.1494 51.6244 38.1769 51.0812 38.335 50.2184L38.4587 49.5309L38.4828 49.555C38.6031 48.9397 38.7337 48.3072 38.854 47.7125L39.105 46.5334C39.2475 46.1515 39.5087 45.8253 39.8502 45.6026C40.1916 45.3799 40.5955 45.2724 41.0025 45.2959C41.8705 45.2378 42.7414 45.3547 43.5634 45.6397C43.9264 45.7699 44.2582 45.9744 44.5375 46.2402C44.8169 46.5059 45.0378 46.8271 45.1859 47.1831C45.3494 47.6117 45.4245 48.069 45.4068 48.5274C45.3891 48.9858 45.2789 49.4359 45.0828 49.8506L45.0587 49.8953C44.7307 50.5071 44.2853 51.0481 43.7479 51.4876C43.2106 51.927 42.5919 52.2562 41.9272 52.4562C41.4235 52.5762 40.9083 52.6407 40.3906 52.6487H40.394ZM38.9744 50.8887C38.9205 51.1195 38.946 51.3617 39.0465 51.5762C39.1669 51.7344 39.5037 51.8375 40.1053 51.9028C40.6561 51.9301 41.2078 51.8733 41.7415 51.7344C42.3128 51.5594 42.844 51.2735 43.3047 50.8931C43.7653 50.5126 44.1465 50.0451 44.4262 49.5172C44.577 49.1964 44.6623 48.8487 44.6771 48.4946C44.6918 48.1404 44.6358 47.7869 44.5122 47.4547C44.4007 47.1919 44.236 46.955 44.0283 46.7592C43.8206 46.5633 43.5745 46.4127 43.3056 46.3169C42.5606 46.0657 41.7728 45.9663 40.9887 46.0247C40.7287 46.0033 40.469 46.0695 40.251 46.2128C40.033 46.356 39.8691 46.5681 39.7856 46.8153L39.5759 47.8466C39.4109 48.6578 39.2322 49.5412 39.0775 50.3525L38.9744 50.8887Z" fill="#FEFEFE"/>
<path d="M63.7484 58.0731C64.625 53.5288 65.5187 48.9844 66.3987 44.4572C66.3873 44.2515 66.4194 44.0457 66.4929 43.8533C66.5664 43.6608 66.6797 43.4861 66.8254 43.3404C66.971 43.1947 67.1458 43.0814 67.3383 43.0079C67.5307 42.9344 67.7365 42.9023 67.9422 42.9138H76.0134C76.7825 42.8911 77.5432 43.0785 78.2136 43.4558C78.8841 43.8331 79.4391 44.3861 79.8187 45.0553C80.3591 46.0337 80.5859 47.1545 80.4684 48.2659C80.2957 50.1744 79.4501 51.9593 78.0828 53.3019C76.9631 54.2473 75.5914 54.8448 74.1365 55.0206C72.7615 55.055 71.3866 55.0722 70.0116 55.11C69.2209 55.0413 68.4337 55.2509 68.2412 55.8834C67.9972 56.7428 67.8219 57.6022 67.5744 58.4444C67.4885 58.6341 67.3627 58.8029 67.2054 58.9394C67.0482 59.0759 66.8633 59.1767 66.6634 59.235C65.8728 59.2522 65.0684 59.2522 64.2778 59.2694C63.4322 59.2831 63.5937 58.7813 63.7484 58.0731ZM69.3791 50.2838C69.6059 49.0909 69.8878 47.74 70.0975 46.6881C70.2095 46.373 70.4202 46.1025 70.6983 45.9167C70.9763 45.7309 71.3069 45.6398 71.6409 45.6569C72.4731 45.5978 73.3086 45.7053 74.0987 45.9731C74.4447 46.1128 74.7569 46.3244 75.0149 46.5938C75.2729 46.8633 75.4707 47.1845 75.5952 47.5361C75.7197 47.8878 75.768 48.2619 75.737 48.6337C75.706 49.0054 75.5963 49.3663 75.4153 49.6925C75.1096 50.2667 74.6935 50.7748 74.1909 51.1877C73.6883 51.6007 73.1091 51.9103 72.4865 52.0988C71.9149 52.2481 71.3234 52.3072 70.7334 52.2741C69.2244 52.1159 69.1006 51.7138 69.3584 50.2734L69.3791 50.2838Z" fill="#373435"/>
<path d="M64.2366 59.6337C64.0902 59.6483 63.9425 59.6295 63.8044 59.5789C63.6663 59.5283 63.5414 59.4472 63.4391 59.3416C63.1778 59.0287 63.2672 58.6059 63.36 58.1591L63.3909 58.0044C63.8722 55.5087 64.3569 53.0154 64.845 50.5244C65.2415 48.494 65.6368 46.4658 66.0309 44.44C66.0162 44.2029 66.0507 43.9654 66.1323 43.7423C66.214 43.5193 66.341 43.3156 66.5053 43.1441C66.6921 42.9481 66.9182 42.7938 67.1688 42.6913C67.4194 42.5888 67.6888 42.5405 67.9594 42.5494H76.0134C76.8495 42.5238 77.6766 42.7287 78.4041 43.1416C79.1316 43.5544 79.7316 44.1594 80.1384 44.8903C80.7083 45.9284 80.9481 47.1155 80.8259 48.2934C80.6465 50.2883 79.7645 52.1546 78.3372 53.5597L78.2959 53.5975C77.1245 54.5832 75.6909 55.2057 74.1709 55.3884C73.4628 55.4091 72.7719 55.4194 72.0844 55.4331L70.0219 55.4778H69.9806C69.4237 55.4297 68.7294 55.5328 68.6056 55.9934C68.4819 56.4541 68.3822 56.8322 68.2619 57.2516C68.1416 57.6709 68.0487 58.1144 67.9181 58.5475C67.8211 58.7927 67.6699 59.0129 67.4759 59.1914C67.2818 59.37 67.0499 59.5024 66.7975 59.5787L66.7322 59.6062H66.6634L65.4775 59.6234L64.2778 59.6406L64.2366 59.6337ZM64.0062 58.8775C64.0915 58.8995 64.1797 58.9076 64.2675 58.9016L65.4775 58.8844H66.5844C66.9556 58.7194 67.1687 58.5406 67.2272 58.355C67.3475 57.9322 67.4541 57.5094 67.5709 57.09C67.6878 56.6706 67.7841 56.2341 67.9147 55.8009C68.1381 55.0653 68.9459 54.67 70.0494 54.7697L72.0912 54.725L74.1537 54.6803C75.5224 54.5062 76.8116 53.9404 77.8662 53.0509C79.1617 51.7728 79.964 50.0781 80.1316 48.2659C80.2437 47.2198 80.03 46.1645 79.5197 45.2444C79.1632 44.6377 78.6505 44.1378 78.035 43.7968C77.4194 43.4557 76.7237 43.2861 76.0203 43.3056H67.9422C67.7739 43.2984 67.6061 43.3275 67.45 43.391C67.294 43.4544 67.1535 43.5508 67.0381 43.6734C66.9386 43.7752 66.8625 43.8974 66.815 44.0315C66.7675 44.1657 66.7498 44.3086 66.7631 44.4503V44.5019V44.5534C66.3667 46.5953 65.9691 48.6406 65.5703 50.6894C65.0845 53.1804 64.5998 55.6737 64.1162 58.1694L64.0819 58.3309C64.0295 58.5164 64.0063 58.7089 64.0131 58.9016L64.0062 58.8775ZM71.06 52.6487C70.9397 52.6487 70.8194 52.6487 70.6956 52.6487C70.4055 52.6558 70.1169 52.605 69.8466 52.4994C69.5763 52.3938 69.3297 52.2354 69.1212 52.0334C68.8153 51.6244 68.8428 51.0812 69.0009 50.2184L69.1247 49.5309L69.1487 49.555C69.2691 48.9362 69.3997 48.3003 69.52 47.7022L69.7709 46.53C69.9121 46.1471 70.1729 45.8199 70.5147 45.597C70.8566 45.3741 71.2611 45.2673 71.6684 45.2925C72.5365 45.2354 73.4071 45.3523 74.2294 45.6362C74.5923 45.7664 74.9241 45.971 75.2035 46.2367C75.4829 46.5025 75.7037 46.8237 75.8519 47.1797C76.0154 47.6083 76.0905 48.0656 76.0728 48.524C76.0551 48.9824 75.9448 49.4325 75.7487 49.8472L75.7247 49.8919C75.3967 50.5036 74.9512 51.0447 74.4139 51.4841C73.8765 51.9236 73.2578 52.2527 72.5931 52.4528C72.0907 52.5737 71.5766 52.6394 71.06 52.6487ZM69.6369 50.8922C69.5831 51.123 69.6085 51.3651 69.7091 51.5797C69.8294 51.7378 70.1662 51.8409 70.7678 51.9062C71.3186 51.9335 71.8704 51.8767 72.4041 51.7378C72.9753 51.5629 73.5065 51.277 73.9672 50.8965C74.4278 50.5161 74.809 50.0485 75.0887 49.5206C75.2396 49.1998 75.3248 48.8522 75.3396 48.498C75.3544 48.1439 75.2983 47.7903 75.1747 47.4581C75.0633 47.1953 74.8985 46.9584 74.6908 46.7626C74.4831 46.5667 74.237 46.4161 73.9681 46.3203C73.2232 46.0688 72.4353 45.9695 71.6512 46.0281C71.3913 46.0073 71.1319 46.0738 70.914 46.217C70.6961 46.3602 70.5322 46.5719 70.4481 46.8187L70.2384 47.85C70.0734 48.6647 69.8947 49.5516 69.74 50.3628L69.6369 50.8922Z" fill="#FEFEFE"/>
<path d="M11.7734 78.7394C11.3624 78.3447 11.0145 77.8891 10.7422 77.3885C10.3179 76.616 10.1123 75.7425 10.1475 74.8619C9.25373 59.6235 10.0409 46.2963 14.8981 35.4063C15.4928 34.0725 15.5856 33.6704 16.8265 33.055C20.6176 31.665 24.6843 31.1938 28.6928 31.68C28.8165 31.3363 29.0606 30.9925 28.954 30.6488C25.3265 30.3584 21.6758 30.6485 18.1397 31.5082C15.7334 31.8932 13.389 32.316 12.8115 36.1385C7.95779 48.9913 8.30842 61.1635 8.81373 73.1225C8.8101 73.9852 8.93997 74.8433 9.19873 75.6663C10.144 78.681 11.0584 78.5779 11.7769 78.736L11.7734 78.7394Z" fill="#EBEFFF"/>
<path d="M30.415 76.8315C30.415 73.6587 30.1538 70.4859 30.1538 67.2993C30.0253 65.4812 29.6303 63.6918 28.9816 61.9884C28.2785 60.7493 27.4736 59.5708 26.5753 58.465C29.3065 63.6554 30.1568 69.6313 28.9816 75.3775C29.4697 75.8656 29.9063 76.3572 30.415 76.8315Z" fill="#EBEFFF"/>
<path d="M30.6763 77.4606L30.4322 77.3678C29.515 76.9737 28.7284 76.3277 28.1635 75.5046L27.9263 75.2056H28.1497C28.2013 74.0678 28.1806 73.0262 28.1497 72.0156C28.1291 70.9499 28.105 69.8499 28.1669 68.6399V68.4371L28.3697 68.4681C28.9305 68.5225 29.4603 68.7504 29.8854 69.1201C30.3105 69.4898 30.6098 69.9828 30.7416 70.5306V70.5581V70.5856C30.7244 71.7681 30.7106 72.8199 30.6969 73.8684C30.6831 74.9168 30.6694 76.0065 30.6522 77.2028L30.6763 77.4606ZM28.5072 75.3499C28.9796 76.0079 29.5987 76.5469 30.3153 76.9243C30.3153 75.8381 30.3428 74.8618 30.3566 73.8615C30.3566 72.8303 30.3841 71.7749 30.4013 70.6062C30.2945 70.1652 30.0603 69.7653 29.7277 69.4566C29.3951 69.1479 28.979 68.944 28.5313 68.8703C28.4831 69.984 28.5038 71.0118 28.5313 72.0087C28.5313 73.064 28.5656 74.1537 28.5072 75.3499Z" fill="#373435"/>
<path d="M35.2413 81.321C34.5244 81.038 33.9204 80.527 33.5225 79.8669C33.3988 74.2019 33.2922 68.5232 33.1788 62.8547L34.0416 63.7141C34.2347 64.9084 34.3233 66.1172 34.3063 67.3269L34.571 68.0144C34.5661 72.4585 34.7898 76.8999 35.2413 81.321Z" fill="#EBEFFF"/>
<path d="M35.5266 82.5791L35.2859 82.5001C34.2861 82.1482 33.4585 81.4276 32.9725 80.4857L32.9484 80.4376V80.3688C32.9484 78.4816 32.9828 76.5291 32.9828 74.6179V74.5698L33.0069 74.5285C33.5259 73.5832 33.9728 72.9748 34.4609 73.071C34.8425 73.1466 35.2722 73.5901 35.5609 76.2851C35.5609 78.2891 35.5266 80.331 35.5266 82.3282V82.5791ZM33.3162 80.3448C33.722 81.108 34.3719 81.7132 35.1622 82.0635C35.1622 80.1488 35.1794 78.1998 35.1966 76.3091C34.9284 73.8032 34.5434 73.4595 34.3922 73.4285C34.2409 73.3976 33.9453 73.5901 33.3609 74.6626C33.3437 76.5532 33.3437 78.4816 33.3162 80.3482V80.3448Z" fill="#373435"/>
<path d="M29.2187 62.0709C29.2293 61.7794 29.1874 61.4883 29.095 61.2115C29.2359 61.2459 29.3768 61.2631 29.5143 61.3009L31.7384 63.109C32.0481 62.9778 32.2946 62.7313 32.4259 62.4216C32.5666 62.4194 32.7059 62.4492 32.8333 62.5087C32.9607 62.5683 33.073 62.656 33.1615 62.7653C33.1959 64.2056 33.0928 65.6253 33.1272 67.0622C33.358 67.2591 33.5075 67.5347 33.5465 67.8356C34.4674 67.8724 35.3855 67.9608 36.2965 68.1003C36.3481 68.3272 36.4203 68.4681 36.4718 68.6984C35.4438 68.5831 34.4061 68.5831 33.3781 68.6984V69.3481C34.1843 69.3068 34.9926 69.3657 35.7843 69.5234C35.8187 69.7159 35.8359 69.8053 35.8703 69.9978C35.0143 69.8952 34.1485 69.9067 33.2956 70.0322C33.4022 73.5762 33.4365 77.0859 33.2956 80.6472C33.0137 79.9803 32.474 79.3306 32.175 78.6637C32.7087 74.1268 32.779 69.5474 32.3847 64.9962C31.5691 63.79 30.4855 62.7888 29.2187 62.0709Z" fill="#373435"/>
<path d="M32.8075 80.8637C32.6552 80.5361 32.477 80.2211 32.2747 79.9218C32.0555 79.5924 31.8602 79.2478 31.6903 78.8906L31.625 78.7496L31.6456 78.595C32.1667 74.1447 32.2381 69.6533 31.8587 65.1887C31.0824 64.1103 30.0837 63.2112 28.93 62.5521L28.6206 62.3528L28.6893 61.9884C28.6906 61.8564 28.6697 61.7251 28.6275 61.6C28.6034 61.5071 28.5828 61.4178 28.5656 61.3284L28.4075 60.4862L29.2393 60.6925L29.4181 60.7303C29.4972 60.7303 29.5797 60.7612 29.6587 60.7818L29.7756 60.8128L31.7831 62.4421C31.8419 62.3877 31.8877 62.3207 31.9172 62.2462L32.0512 61.9025H32.4328C32.6627 61.9007 32.8898 61.953 33.0958 62.0551C33.3018 62.1572 33.4809 62.3063 33.6187 62.4903L33.7115 62.6243V62.7893C33.7287 63.5215 33.7115 64.2571 33.6943 64.9653C33.6943 65.5943 33.6634 66.244 33.6737 66.8834C33.7925 67.0192 33.8919 67.1707 33.9693 67.3337C34.54 67.3578 35.1037 67.4334 35.6537 67.5021L36.3618 67.5881L36.7468 67.6328L36.8328 68.0109C36.8526 68.0946 36.8767 68.1772 36.905 68.2584C36.9393 68.365 36.9772 68.475 37.0081 68.6021L37.1765 69.3309L36.4306 69.2725H36.2965L36.5475 70.6475L35.8222 70.5718C35.1728 70.4973 34.5176 70.4869 33.8662 70.5409C33.9762 74.4596 33.9693 77.6978 33.8662 80.6953L32.8075 80.8637ZM32.7593 78.5812L32.8247 78.705C32.8247 78.4575 32.8247 78.2065 32.8247 77.9521C32.8086 78.163 32.7868 78.3727 32.7593 78.5812ZM32.0203 63.5937C32.2377 63.8258 32.4388 64.0727 32.6218 64.3328C32.6218 63.9375 32.6218 63.5387 32.6218 63.1434C32.4496 63.3279 32.2459 63.4804 32.0203 63.5937Z" fill="#373435"/>
<path d="M31.3535 30.8138C32.9393 30.6055 34.4672 30.0806 35.8463 29.2703C38.5806 27.7392 41.6302 26.8572 44.7597 26.6922C43.4649 26.1075 42.0084 25.9861 40.6347 26.3485C37.2612 27.1673 34.0985 28.6889 31.3535 30.8138Z" fill="#EBEFFF"/>
<path d="M48.5168 28.9093C56.0442 26.7424 64.0746 27.1047 71.3762 29.9406C64.1983 26.7862 56.1429 26.2426 48.6062 28.404C48.6028 28.7547 48.5168 28.5793 48.5168 28.9093Z" fill="#EBEFFF"/>
<defs>
<linearGradient id="paint0_linear_38_245" x1="29.0094" y1="21.5238" x2="50.9259" y2="94.5092" gradientUnits="userSpaceOnUse">
<stop stop-color="#8A9FE0"/>
<stop offset="0.588" stop-color="#7182B8"/>
<stop offset="1" stop-color="#576490"/>
</linearGradient>
</defs>
</svg>
