<svg width="131" height="69" viewBox="0 0 131 69" fill="none" xmlns="http://www.w3.org/2000/svg">
<g filter="url(#filter0_d_21_203)">
<rect x="48.1713" width="34.6575" height="11.5525" rx="5.77624" fill="#6A6CB4"/>
<rect x="92.3425" width="34.6575" height="11.5525" rx="5.77624" fill="#292941"/>
<rect x="48.1713" y="16.3093" width="34.6575" height="11.5525" rx="5.77624" fill="#6A6CB4"/>
<rect x="4" y="16.3093" width="34.6575" height="11.5525" rx="5.77624" fill="#2E2F55"/>
<rect x="48.1713" y="32.6188" width="34.6575" height="11.5525" rx="5.77624" fill="#6A6CB4"/>
<rect x="92.3425" y="32.6188" width="34.6575" height="11.5525" rx="5.77624" fill="#292941"/>
<rect x="92.3425" y="48.9281" width="34.6575" height="11.5525" rx="5.77624" fill="#292941"/>
<path d="M92.3425 38.7347L82.8287 38.7347" stroke="#535592"/>
<path d="M48.1713 22.4254L38.6575 22.4254" stroke="#535592"/>
<path d="M92.3425 6.11609L82.8287 6.11609" stroke="#535592"/>
<path d="M48.1712 5.43653C40.0166 5.43655 48.8508 22.4255 38.6574 22.4255" stroke="#535592"/>
<path d="M38.6575 22.4254C48.8508 22.4254 40.0165 38.7348 48.1711 38.7348" stroke="#535592"/>
<path d="M82.6971 38.7618C92.8904 38.7618 84.1879 55.0442 92.3425 55.0442" stroke="#535592"/>
<path d="M82.6971 22.4609C92.8904 22.4609 84.1879 38.7433 92.3425 38.7433" stroke="#535592"/>
</g>
<defs>
<filter id="filter0_d_21_203" x="0" y="0" width="131" height="68.4806" filterUnits="userSpaceOnUse" color-interpolation-filters="sRGB">
<feFlood flood-opacity="0" result="BackgroundImageFix"/>
<feColorMatrix in="SourceAlpha" type="matrix" values="0 0 0 0 0 0 0 0 0 0 0 0 0 0 0 0 0 0 127 0" result="hardAlpha"/>
<feOffset dy="4"/>
<feGaussianBlur stdDeviation="2"/>
<feComposite in2="hardAlpha" operator="out"/>
<feColorMatrix type="matrix" values="0 0 0 0 0 0 0 0 0 0 0 0 0 0 0 0 0 0 0.25 0"/>
<feBlend mode="normal" in2="BackgroundImageFix" result="effect1_dropShadow_21_203"/>
<feBlend mode="normal" in="SourceGraphic" in2="effect1_dropShadow_21_203" result="shape"/>
</filter>
</defs>
</svg>
