<svg width="73" height="73" viewBox="0 0 73 73" fill="none" xmlns="http://www.w3.org/2000/svg">
<path d="M36.5 29.9893C32.9116 29.9893 29.9893 32.9116 29.9893 36.5C29.9893 40.0884 32.9116 43.0107 36.5 43.0107C40.0884 43.0107 43.0107 40.0884 43.0107 36.5C43.0107 32.9116 40.0884 29.9893 36.5 29.9893ZM18.2728 49.4393L16.8356 49.0834C6.14112 46.3733 0 41.788 0 36.4886C0 31.1893 6.14341 26.604 16.8356 23.8938L18.2728 23.538L18.6766 24.9637C19.7579 28.6936 21.1472 32.3299 22.8239 35.8476L23.1319 36.4886L22.8239 37.141C21.1495 40.6451 19.7579 44.2814 18.6766 48.0249L18.2728 49.4393ZM16.1718 27.2199C8.04369 29.5011 3.05459 33.0051 3.05459 36.4886C3.05459 39.9721 8.04597 43.4624 16.1718 45.7573C17.171 42.5841 18.3709 39.4953 19.7716 36.4886C18.3686 33.4819 17.1687 30.3931 16.1718 27.2199ZM54.7272 49.4393L54.3234 48.0135C53.2421 44.2836 51.8528 40.6473 50.1761 37.141L49.8681 36.4886L50.1761 35.8362C51.8505 32.3322 53.2421 28.6959 54.3234 24.9523L54.7272 23.538L56.1644 23.8938C66.8589 26.604 73 31.1893 73 36.4886C73 41.788 66.8566 46.3733 56.1644 49.0834L54.7272 49.4393ZM53.2284 36.4886C54.6907 39.6481 55.902 42.7506 56.8282 45.7573C64.9677 43.4647 69.9454 39.9721 69.9454 36.4886C69.9454 33.0051 64.954 29.5148 56.8282 27.2199C55.829 30.3794 54.6291 33.4819 53.2284 36.4886ZM16.1467 27.2085L15.7429 25.7827C12.7362 15.184 13.651 7.58061 18.25 4.9298C22.7646 2.32689 30.0007 5.4043 37.5927 13.1993L38.6261 14.2578L37.5927 15.3163C34.8963 18.12 32.4371 21.1381 30.2266 24.3455L29.8114 24.9272L29.0973 24.9865C25.2124 25.2945 21.3616 25.9127 17.5839 26.8412L16.1467 27.2085ZM21.9205 7.0468C21.1016 7.0468 20.3761 7.21333 19.7693 7.5692C16.7512 9.31664 16.2174 15.3756 18.2956 23.5494C21.5396 22.8239 24.8177 22.3129 28.1347 22.0164C30.0349 19.3062 32.1268 16.717 34.3716 14.2806C29.6312 9.65883 25.1394 7.0468 21.9205 7.0468ZM51.0909 68.9713C51.0795 68.9713 51.0795 68.9713 51.0909 68.9713C46.7542 68.9713 41.1811 65.716 35.4073 59.7756L34.3739 58.7171L35.4073 57.6586C38.1037 54.855 40.5629 51.8369 42.7734 48.6294L43.1772 48.0477L43.8913 47.977C47.7762 47.6804 51.627 47.0622 55.4161 46.1223L56.8533 45.7665L57.2571 47.1922C60.2638 57.7909 59.349 65.3829 54.75 68.0315C53.6322 68.6725 52.3729 68.9964 51.0909 68.9713ZM38.6261 58.6943C43.3666 63.3161 47.8583 65.9304 51.0772 65.9304H51.0886C51.8962 65.9304 52.6216 65.7525 53.2284 65.408C56.2465 63.6606 56.794 57.6016 54.7021 49.4279C51.4582 50.1533 48.1663 50.6643 44.8631 50.9495C42.9628 53.671 40.8709 56.2465 38.6261 58.6943ZM56.8533 27.2085L55.4161 26.8412C51.627 25.915 47.7762 25.2968 43.8913 24.9865L43.1772 24.9272L42.7734 24.3455C40.5629 21.1381 38.1037 18.12 35.4073 15.3163L34.3739 14.2578L35.4073 13.1993C42.9993 5.4043 50.2354 2.32689 54.75 4.9298C59.349 7.57833 60.2638 15.184 57.2571 25.7827L56.8533 27.2085ZM44.8653 22.0164C48.3351 22.338 51.6384 22.849 54.7044 23.5494C56.7963 15.3756 56.2488 9.31436 53.2307 7.5692C50.224 5.83545 44.5688 8.49539 38.6284 14.2829C40.8732 16.7307 42.9537 19.3085 44.8653 22.0186V22.0164ZM21.9205 68.9713C20.6362 68.9941 19.3655 68.6748 18.25 68.0337C13.651 65.3852 12.7362 57.7909 15.7429 47.1945L16.1467 45.7687L17.5839 46.1246C21.1016 47.0166 24.9751 47.6325 29.0973 47.9793L29.8114 48.05L30.2152 48.6317C32.4257 51.8391 34.8849 54.8572 37.5813 57.6609L38.6147 58.7194L37.5813 59.7779C31.8189 65.7183 26.2458 68.9736 21.9205 68.9736V68.9713ZM18.2979 49.4279C16.206 57.6016 16.7535 63.6629 19.7716 65.408C22.7783 67.119 28.4221 64.4818 34.3739 58.6943C32.1291 56.2465 30.0372 53.6687 28.1369 50.9472C24.8223 50.662 21.5418 50.1533 18.2979 49.4279ZM36.5 51.3395C33.9929 51.3395 31.4265 51.2323 28.8487 51.0179L28.1347 50.9586L27.7195 50.3655C26.2709 48.2735 24.8907 46.1246 23.6201 43.9141C22.3357 41.7035 21.1609 39.4474 20.0682 37.141L19.7602 36.4886L20.0682 35.8362C21.1609 33.5321 22.338 31.2737 23.6201 29.0631C24.8793 26.8891 26.2572 24.7151 27.7195 22.6118L28.1347 22.0186L28.8487 21.9593C33.945 21.5305 39.0664 21.5305 44.1513 21.9593L44.8653 22.0186L45.2805 22.6118C48.1914 26.7933 50.7578 31.2258 52.9318 35.8362L53.2398 36.4886L52.9318 37.141C50.7578 41.7515 48.2028 46.1839 45.2805 50.3655L44.8653 50.9586L44.1513 51.0179C41.5849 51.2323 39.0071 51.3395 36.5 51.3395ZM29.8228 48.0363C34.3146 48.3808 38.6854 48.3808 43.1886 48.0363C45.6957 44.3658 47.9291 40.5036 49.8658 36.4863C47.9405 32.4713 45.7071 28.6092 43.1772 24.9364C38.7333 24.5919 34.2667 24.5919 29.8228 24.9364C27.2929 28.6069 25.0572 32.469 23.1342 36.4863C25.0709 40.5013 27.3043 44.3635 29.8228 48.0363Z" fill="#2E2F55"/>
</svg>
