<svg width="69" height="78" viewBox="0 0 69 78" fill="none" xmlns="http://www.w3.org/2000/svg">
<g clip-path="url(#clip0_38_228)">
<path d="M68.6933 23.0901C68.6928 21.7915 68.4164 20.644 67.8574 19.6594C67.3082 18.6907 66.4859 17.879 65.3829 17.2372C56.2778 11.9623 47.1639 6.70356 38.0618 1.42332C35.6079 -5.76973e-05 33.2286 0.0521023 30.7929 1.49591C27.1688 3.64307 9.02426 14.0877 3.61741 17.2342C1.39072 18.5296 0.307206 20.5117 0.306671 23.0877C0.303192 33.6958 0.306671 44.3039 0.303192 54.9119C0.303192 56.1821 0.568383 57.3075 1.10278 58.2773C1.65216 59.2751 2.486 60.1091 3.61447 60.7654C9.02158 63.9119 27.1686 74.3557 30.7919 76.5037C33.2286 77.9483 35.6079 77.9999 38.0626 76.5763C47.165 71.2958 56.2794 66.037 65.3858 60.7622C66.5143 60.1061 67.3481 59.2716 67.8975 58.2746C68.4311 57.3046 68.6968 56.1794 68.6968 54.909C68.6968 54.909 68.6968 33.6985 68.6933 23.0901Z" fill="#A179DC"/>
<path d="M34.6046 38.8965L1.10278 58.2774C1.65216 59.2751 2.48601 60.1092 3.61447 60.7655C9.02159 63.912 27.1686 74.3558 30.7919 76.5038C33.2286 77.9484 35.6079 78 38.0626 76.5764C47.165 71.2958 56.2794 66.0371 65.3858 60.7622C66.5143 60.1062 67.3481 59.2716 67.8975 58.2747L34.6046 38.8965Z" fill="#280068"/>
<path d="M68.6933 23.0901C68.6928 21.7915 68.4163 20.644 67.8573 19.6594L34.6046 38.8967L67.8975 58.2747C68.4311 57.3046 68.6963 56.1794 68.6968 54.909C68.6968 54.909 68.6968 33.6985 68.6933 23.0901Z" fill="#390091"/>
<path d="M54.3294 31.6514V35.2741H57.935V31.6514H59.7378V35.2741H63.3435V37.0854H59.7378V40.7078H63.3435V42.5192H59.7378V46.1419H57.935V42.5192H54.3294V46.1419H52.5266V42.5192H48.9212V40.7078H52.5266V37.0854H48.9212V35.2741H52.5266V31.6514H54.3294ZM57.935 37.0851H54.3294V40.7078H57.935V37.0851Z" fill="white"/>
<path d="M34.6782 13.4578C44.0828 13.4578 52.2935 18.5894 56.6915 26.2171L56.6487 26.1437L45.5834 32.5448C43.4036 28.8363 39.4073 26.3335 34.8225 26.2819L34.678 26.2811C27.6869 26.2811 22.0192 31.9756 22.0192 38.9997C22.0169 41.2137 22.5925 43.3895 23.6887 45.31C25.8707 49.1373 29.9728 51.7187 34.6782 51.7187C39.4129 51.7187 43.5382 49.1045 45.709 45.2363L45.6562 45.3291L56.7046 51.7598C52.3548 59.323 44.2564 64.4387 34.9614 64.5406L34.6782 64.5422C25.244 64.5422 17.01 59.3789 12.6229 51.7109C10.4813 47.9675 9.25601 43.6277 9.25601 38.9997C9.25601 24.8934 20.6376 13.4575 34.678 13.4575L34.6782 13.4578Z" fill="white"/>
</g>
<defs>
<clipPath id="clip0_38_228">
<rect width="69" height="78" fill="white"/>
</clipPath>
</defs>
</svg>
