<svg width="81" height="79" viewBox="0 0 81 79" fill="none" xmlns="http://www.w3.org/2000/svg">
<g filter="url(#filter0_d_21_18)">
<path fill-rule="evenodd" clip-rule="evenodd" d="M40.476 3.40573C39.7647 -1.13524 33.2258 -1.13524 32.5144 3.40573C31.9734 6.85897 27.5931 8.03268 25.398 5.31258C22.5114 1.73568 16.8486 5.0051 18.503 9.29339C19.7611 12.5545 16.5545 15.7611 13.2934 14.503C9.0051 12.8486 5.73568 18.5114 9.31258 21.398C12.0327 23.5931 10.859 27.9734 7.40573 28.5144C2.86476 29.2258 2.86476 35.7647 7.40573 36.476C10.859 37.017 12.0327 41.3974 9.31258 43.5925C5.73568 46.4791 9.0051 52.1419 13.2934 50.4875C16.5545 49.2293 19.7611 52.436 18.503 55.6971C16.8486 59.9854 22.5114 63.2548 25.398 59.6779C27.5931 56.9578 31.9734 58.1315 32.5144 61.5847C33.2258 66.1257 39.7647 66.1257 40.476 61.5847C41.017 58.1315 45.3974 56.9578 47.5925 59.6779C50.4791 63.2548 56.1419 59.9854 54.4875 55.6971C53.2293 52.436 56.436 49.2293 59.6971 50.4875C63.9854 52.1419 67.2548 46.4791 63.6779 43.5925C60.9578 41.3974 62.1315 37.017 65.5847 36.476C70.1257 35.7647 70.1257 29.2258 65.5847 28.5144C62.1315 27.9734 60.9578 23.5931 63.6779 21.398C67.2548 18.5114 63.9854 12.8486 59.6971 14.503C56.436 15.7611 53.2293 12.5545 54.4875 9.29339C56.1419 5.0051 50.4791 1.73568 47.5925 5.31258C45.3974 8.03268 41.017 6.85897 40.476 3.40573ZM35.9952 47.9952C44.8318 47.9952 51.9952 40.8318 51.9952 31.9952C51.9952 23.1587 44.8318 15.9952 35.9952 15.9952C27.1587 15.9952 19.9952 23.1587 19.9952 31.9952C19.9952 40.8318 27.1587 47.9952 35.9952 47.9952Z" fill="#535592"/>
</g>
<g filter="url(#filter1_d_21_18)">
<path d="M42.5759 38.5759C47.1084 34.0435 47.1084 26.6949 42.5759 22.1625C39.4961 19.0826 35.116 18.0956 31.2028 19.2012L37.857 25.8555L36.3183 32.3183L29.7006 34.0119L23.1352 27.4465C22.1373 31.297 23.1464 35.5599 26.1624 38.5759C30.6949 43.1084 38.0435 43.1084 42.5759 38.5759Z" fill="#2E2F55"/>
<path d="M36.4209 40.2173L44.2173 32.4209L72.5306 60.7342L67.2988 63.2988L64.7342 68.5306L36.4209 40.2173Z" fill="#2E2F55"/>
<path fill-rule="evenodd" clip-rule="evenodd" d="M72.7358 68.7358C74.8887 66.5829 74.8887 63.0923 72.7358 60.9394C70.5828 58.7865 67.0923 58.7865 64.9393 60.9394C62.7864 63.0923 62.7864 66.5829 64.9393 68.7358C67.0923 70.8887 70.5828 70.8887 72.7358 68.7358ZM67.1962 64.8376C67.1962 64.0169 68.0169 63.1962 68.8375 63.1962C69.6582 63.1962 70.4789 64.0169 70.4789 64.8376C70.4789 65.6583 69.6582 66.4789 68.8375 66.4789C68.0169 66.4789 67.1962 65.6583 67.1962 64.8376Z" fill="#2E2F55"/>
</g>
<defs>
<filter id="filter0_d_21_18" x="0" y="0" width="72.9905" height="72.9905" filterUnits="userSpaceOnUse" color-interpolation-filters="sRGB">
<feFlood flood-opacity="0" result="BackgroundImageFix"/>
<feColorMatrix in="SourceAlpha" type="matrix" values="0 0 0 0 0 0 0 0 0 0 0 0 0 0 0 0 0 0 127 0" result="hardAlpha"/>
<feOffset dy="4"/>
<feGaussianBlur stdDeviation="2"/>
<feComposite in2="hardAlpha" operator="out"/>
<feColorMatrix type="matrix" values="0 0 0 0 0 0 0 0 0 0 0 0 0 0 0 0 0 0 0.25 0"/>
<feBlend mode="normal" in2="BackgroundImageFix" result="effect1_dropShadow_21_18"/>
<feBlend mode="normal" in="SourceGraphic" in2="effect1_dropShadow_21_18" result="shape"/>
</filter>
<filter id="filter1_d_21_18" x="18.7631" y="18.7631" width="59.5874" height="59.5873" filterUnits="userSpaceOnUse" color-interpolation-filters="sRGB">
<feFlood flood-opacity="0" result="BackgroundImageFix"/>
<feColorMatrix in="SourceAlpha" type="matrix" values="0 0 0 0 0 0 0 0 0 0 0 0 0 0 0 0 0 0 127 0" result="hardAlpha"/>
<feOffset dy="4"/>
<feGaussianBlur stdDeviation="2"/>
<feComposite in2="hardAlpha" operator="out"/>
<feColorMatrix type="matrix" values="0 0 0 0 0 0 0 0 0 0 0 0 0 0 0 0 0 0 0.25 0"/>
<feBlend mode="normal" in2="BackgroundImageFix" result="effect1_dropShadow_21_18"/>
<feBlend mode="normal" in="SourceGraphic" in2="effect1_dropShadow_21_18" result="shape"/>
</filter>
</defs>
</svg>
