<svg width="42" height="42" viewBox="0 0 42 42" fill="none" xmlns="http://www.w3.org/2000/svg">
<g clip-path="url(#clip0_38_304)">
<path d="M21 0C9.40193 0 0 9.40193 0 21C0 32.5981 9.40193 42 21 42C32.5981 42 42 32.5981 42 21C42 9.40193 32.5981 0 21 0Z" fill="#40B3E0"/>
<path d="M31.2182 12.0801L27.4674 30.9911C27.4674 30.9911 26.9429 32.3026 25.5003 31.6731L16.8447 25.0371L13.6973 23.5159L8.39907 21.7323C8.39907 21.7323 7.58597 21.4438 7.50722 20.8143C7.42864 20.1848 8.42532 19.8439 8.42532 19.8439L29.487 11.5817C29.487 11.5817 31.2182 10.8211 31.2182 12.0801Z" fill="white"/>
<path d="M16.1795 30.7788C16.1795 30.7788 15.9268 30.7551 15.612 29.7583C15.2973 28.7616 13.6974 23.5159 13.6974 23.5159L26.4183 15.4374C26.4183 15.4374 27.1528 14.9915 27.1266 15.4374C27.1266 15.4374 27.2576 15.516 26.8642 15.8832C26.4708 16.2505 16.871 24.8797 16.871 24.8797" fill="#D2E5F1"/>
<path d="M20.1635 27.5814L16.7399 30.7028C16.7399 30.7028 16.4723 30.9059 16.1794 30.7786L16.835 24.9805" fill="#B5CFE4"/>
</g>
<defs>
<clipPath id="clip0_38_304">
<rect width="42" height="42" fill="white"/>
</clipPath>
</defs>
</svg>
