<svg width="81" height="96" viewBox="0 0 81 96" fill="none" xmlns="http://www.w3.org/2000/svg">
<g clip-path="url(#clip0_38_122)">
<path d="M13.1035 38.7747C13.1035 38.7747 19.7367 32.9833 39.3652 32.9833C57.3728 32.9833 62.4343 37.0828 67.5735 38.7776L40.7581 51.9235L13.1035 38.7747Z" fill="#C9781F"/>
<path d="M10.3045 56.2084C10.4257 58.7217 12.929 57.5585 14.0609 56.7878C15.1367 56.0418 15.451 56.6618 15.5462 55.1901L15.6644 52.2842C14.035 52.1365 12.2685 52.5247 10.9347 53.4967C10.2454 54.0008 8.95915 55.5971 10.3074 56.2229" fill="#F6D2A2"/>
<path d="M10.3045 56.2084C10.6694 56.0737 11.0544 55.9766 11.2995 55.6434L10.3045 56.2084Z" fill="#C6B198"/>
<path d="M16.0855 26.2764C6.49621 23.5676 13.6269 11.3358 21.3257 16.3681L16.0855 26.2764ZM58.6822 15.4497C66.2714 10.1016 73.131 22.1668 64.3089 25.203L58.6822 15.4497Z" fill="#37ABC8"/>
<path d="M60.3188 87.1311C62.2468 88.3276 65.7696 91.9462 62.8784 93.7004C60.0997 96.2528 58.5452 90.8988 56.1068 90.1572C57.1565 88.726 58.4861 87.4223 60.3174 87.1296L60.3188 87.1311ZM25.8796 91.2204C23.6156 91.571 22.3438 93.6193 20.4577 94.6593C18.6797 95.7226 18.0005 94.3189 17.8404 94.0336C17.5578 93.9061 17.5852 94.1524 17.1555 93.7178C15.5073 91.1103 18.8715 89.2011 20.6249 87.9061C23.0648 87.4107 24.5933 89.5328 25.8796 91.2204Z" fill="#F6D2A2"/>
<path d="M16.4864 22.9099C15.2217 22.2436 14.2945 21.3281 15.0675 19.8592C15.7841 18.5004 17.1151 18.6482 18.3797 19.3189L16.4864 22.9099ZM62.3131 21.6352C63.5778 20.9645 64.505 20.0519 63.7321 18.5845C63.0154 17.2257 61.6844 17.3734 60.4198 18.0441L62.3131 21.6352Z" fill="#077E91"/>
<path d="M71.0185 55.8882C70.8973 58.4001 68.394 57.2383 67.2621 56.4677C66.1863 55.7216 65.872 56.3416 65.7768 54.8699L65.6586 51.964C67.288 51.8163 69.0545 52.2045 70.3883 53.1765C71.0776 53.6806 72.3639 55.2769 71.0156 55.9027" fill="#F6D2A2"/>
<path d="M71.0185 55.8897C70.6537 55.755 70.2686 55.6579 70.0235 55.3276L71.0185 55.8897Z" fill="#C6B198"/>
<path d="M39.7011 10.3651C49.3005 10.3651 58.2986 11.7413 62.9894 20.9933C67.2001 31.3652 65.7033 42.5453 66.345 53.5052C66.8972 62.9152 68.1186 73.7854 63.7667 82.5087C59.1883 91.684 47.746 93.9916 38.3255 93.6526C30.9222 93.3875 21.9804 90.9641 17.8029 84.1789C12.9001 76.219 15.2073 64.3826 15.5779 55.526C15.999 45.034 12.7458 34.5115 16.1807 24.244C19.7453 13.594 29.3577 11.1865 39.7026 10.3666" fill="#37ABC8"/>
<path d="M41.3955 23.2937C43.1187 33.344 59.4926 30.6873 57.1421 20.5559C55.0339 11.4661 40.823 13.9822 41.3955 23.2937ZM21.8275 24.919C24.0626 33.6684 38.0255 31.4289 37.4992 22.652C36.8719 12.1396 19.6905 14.1691 21.8275 24.919ZM44.5751 35.0098C44.5823 36.3527 44.888 37.6651 44.6241 39.173C44.2925 39.8032 43.6392 39.8684 43.0768 40.1248C42.6949 40.0646 42.3344 39.9078 42.0294 39.669C41.7244 39.4303 41.4849 39.1176 41.3335 38.7602C41.1316 37.174 41.4085 35.6371 41.4589 34.0523L44.5751 35.0098Z" fill="white"/>
<path d="M23.3215 23.4922C23.3215 22.0726 24.3741 20.9282 25.6791 20.9282C26.9841 20.9282 28.0368 22.0726 28.0368 23.4922C28.0368 24.9118 26.9841 26.0562 25.6791 26.0562C24.3741 26.0562 23.3215 24.9118 23.3215 23.4922Z" fill="#2E2F55"/>
<path d="M26.1954 24.0687C26.1954 23.7066 26.4434 23.4169 26.752 23.4169C27.0606 23.4169 27.3071 23.7066 27.3071 24.0687C27.3071 24.4309 27.0591 24.7206 26.752 24.7206C26.4448 24.7206 26.1954 24.4309 26.1954 24.0687Z" fill="white"/>
<path d="M43.1158 22.8548C43.1158 21.4351 44.1497 20.2908 45.4345 20.2908C46.7194 20.2908 47.7533 21.4351 47.7533 22.8548C47.7533 24.2744 46.7194 25.4187 45.4345 25.4187C44.1497 25.4187 43.1158 24.2744 43.1158 22.8548Z" fill="#2E2F55"/>
<path d="M45.9421 23.4314C45.9421 23.0693 46.1872 22.7795 46.4901 22.7795C46.7929 22.7795 47.038 23.0693 47.038 23.4314C47.038 23.7935 46.7929 24.0833 46.4901 24.0833C46.1872 24.0833 45.9421 23.7935 45.9421 23.4314ZM37.8381 35.2112C36.8099 37.7129 38.412 42.7149 41.2037 39.021C41.0018 37.4348 41.2787 35.8979 41.3277 34.3131L37.8381 35.2112Z" fill="white"/>
<path d="M37.6737 30.3947C35.7558 30.5584 34.1884 32.8457 35.1862 34.6564C36.5071 37.0495 39.4546 34.4449 41.2888 34.6883C43.4013 34.7317 45.1317 36.9292 46.8289 35.0852C48.718 33.0384 46.0171 31.0379 43.9074 30.16L37.6737 30.3947Z" fill="#F6D2A2"/>
<path d="M13.1034 38.7747L13.6687 48.215C13.6255 51.0586 16.3422 49.2624 16.4835 53.7341C16.6248 58.2059 14.8396 57.3585 13.8965 59.5473C12.9535 61.7361 12.3161 71.9862 12.3161 71.9862C12.3161 71.9862 13.2823 73.9013 16.296 75.6265C19.3098 77.3518 24.165 78.3209 28.3612 78.1297C32.5575 77.9384 35.5597 77.036 36.311 76.5362C37.0623 76.0365 38.3053 74.459 38.7739 73.2378C39.2426 72.0167 40.2202 61.9606 40.1525 56.2069C40.0847 50.4531 39.1359 45.1441 39.1359 45.1441L13.1034 38.7747Z" fill="#EF9325"/>
<path d="M39.704 66.7917C27.3374 68.1765 12.9881 64.3479 12.9881 64.3479C12.9881 64.3479 13.1986 60.4657 14.1417 59.0983C27.0043 63.0963 39.9794 61.8288 39.9794 61.8288C40.1712 63.6396 40.0371 65.0823 39.7199 66.7917H39.704ZM38.151 74.4445C25.7844 75.8294 12.3204 71.8472 12.3204 71.8472C12.3204 71.8472 12.2772 68.1171 12.7675 66.4788C25.6301 70.4769 39.3666 69.4802 39.3666 69.4802C39.2512 71.4503 38.9744 73.3856 38.1495 74.4431L38.151 74.4445Z" fill="#E5E5E5"/>
<path d="M67.575 38.7747L67.5317 48.215C67.575 51.0586 65.8878 49.2624 65.7436 53.7341C65.5994 58.2059 67.4092 57.3585 68.3623 59.5473C69.3155 61.7361 69.9485 71.9862 69.9485 71.9862C69.9485 71.9862 68.9708 73.9013 65.9167 75.6265C62.8625 77.3518 57.9525 78.3209 53.7001 78.1297C49.4476 77.9384 46.4108 77.036 45.6508 76.5362C44.8909 76.0365 43.632 74.459 43.1562 73.2378C42.6803 72.0167 41.6911 61.9606 41.7617 56.2069C41.8324 50.4531 42.7899 45.1441 42.7899 45.1441L67.575 38.7747Z" fill="#EF9325"/>
<path d="M42.2318 66.7917C54.7542 68.1765 69.2866 64.3479 69.2866 64.3479C69.2866 64.3479 69.0732 60.4657 68.133 59.0983C55.1089 63.0963 41.9708 61.8288 41.9708 61.8288C41.7762 63.6396 41.9132 65.0823 42.2347 66.7917H42.2318ZM43.808 74.4445C56.3303 75.8294 69.9629 71.8472 69.9629 71.8472C69.9629 71.8472 70.0062 68.1171 69.5087 66.4788C56.4875 70.4769 42.575 69.4802 42.575 69.4802C42.6904 71.4503 42.9716 73.3871 43.808 74.4445Z" fill="#E5E5E5"/>
<path d="M72.5686 50.8733C72.1793 51.6121 71.4093 51.9655 70.8483 51.6671L70.3984 51.4281C69.836 51.1297 69.6976 50.2938 70.087 49.5536L78.85 32.9601C79.2393 32.2214 80.0094 31.8679 80.5703 32.1663L81.0202 32.4053C81.5826 32.7037 81.721 33.5396 81.3317 34.2798L72.5686 50.8733Z" fill="#D2E261"/>
<path d="M68.4315 58.7101C68.2051 59.1389 67.5663 59.2461 67.004 58.9476L66.554 58.7086C65.9917 58.4102 65.722 57.8207 65.9484 57.3904L70.0581 49.6058C70.2845 49.177 70.9233 49.0698 71.4857 49.3682L71.9356 49.6072C72.498 49.9056 72.7676 50.4952 72.5412 50.9254L68.4315 58.7101Z" fill="#2E2F55"/>
<path d="M72.0856 49.3247L71.6357 49.0857C71.0733 48.7873 70.5008 48.7714 70.3523 49.0495L70.0898 49.5464C70.2369 49.2682 70.8108 49.2856 71.3732 49.5826L71.8231 49.8216C72.3855 50.12 72.72 50.5864 72.573 50.8646L72.8354 50.3677C72.9825 50.0896 72.6479 49.6217 72.0856 49.3247Z" fill="#9B9B9B"/>
<path d="M66.5771 53.1504C66.8655 52.3725 67.9038 52.0495 68.9045 52.4232C69.9053 52.7969 70.4806 53.7269 70.1922 54.5019C69.9038 55.2769 68.8656 55.6028 67.8648 55.2291C66.8641 54.8554 66.2887 53.9254 66.5771 53.1504Z" fill="#F6D2A2"/>
<path d="M9.07018 51.1383C9.42491 51.8916 10.1805 52.2972 10.753 52.0103L11.2144 51.793C11.7883 51.5207 11.9643 50.6892 11.611 49.936L3.6151 32.9586C3.26036 32.2054 2.50764 31.7998 1.93228 32.0866L1.47084 32.3039C0.896927 32.5762 0.721003 33.4077 1.07429 34.1609L9.07018 51.1383Z" fill="#D2E261"/>
<path d="M12.8626 59.1605C13.0688 59.5994 13.7033 59.7356 14.2729 59.4647L14.7344 59.2474C15.3083 58.9751 15.6053 58.3986 15.3977 57.9582L11.6485 49.9954C11.4423 49.5564 10.8078 49.4217 10.2382 49.6912L9.77676 49.9084C9.20284 50.1808 8.90579 50.7573 9.11344 51.1977L12.8626 59.1605Z" fill="#2E2F55"/>
<path d="M9.62535 49.6174L10.0868 49.4001C10.6607 49.1278 11.2346 49.1393 11.3702 49.4233L11.6095 49.9332C11.4754 49.6478 10.903 49.6391 10.3262 49.91L9.86473 50.1273C9.29081 50.3996 8.9332 50.8516 9.0673 51.1355L8.82793 50.6256C8.69382 50.3417 9.04711 49.8897 9.62535 49.6174Z" fill="#9B9B9B"/>
<path d="M15.314 53.3677C15.6024 54.1456 15.0256 55.0726 14.0263 55.4464C13.027 55.8201 11.9859 55.4971 11.6989 54.7192C11.412 53.9413 11.9873 53.0142 12.9867 52.6405C13.986 52.2667 15.0256 52.5912 15.314 53.3677Z" fill="#F6D2A2"/>
<path d="M17.2117 30.0455C16.831 30.7408 15.9312 30.9784 15.203 30.5772L14.3666 30.1136C13.6384 29.7124 13.3572 28.8244 13.7379 28.1291L22.4519 12.2266C22.8326 11.5312 23.7324 11.2937 24.4606 11.6949L25.297 12.1585C26.0252 12.5597 26.2127 13.3115 25.9257 14.143C22.8716 22.9794 17.2088 30.0455 17.2088 30.0455H17.2117Z" fill="#960000"/>
<path d="M19.5175 20.963C22.1679 16.1276 23.9069 11.9818 23.4945 11.4965L23.5031 11.4791L23.4714 11.4646L23.4671 11.4617C19.392 9.24542 13.911 11.4371 11.2043 16.3768C8.4977 21.3164 9.58641 27.1339 13.6327 29.3995C13.65 29.4053 13.6572 29.414 13.6687 29.4198L13.6788 29.4024C14.2989 29.5009 16.8512 25.7983 19.516 20.963H19.5175Z" fill="#595959"/>
<path d="M63.1985 30.0803C63.559 30.7858 64.4531 31.0509 65.1914 30.6699L66.0566 30.2295C66.7963 29.8485 67.1035 28.9693 66.7415 28.2623L58.4731 12.1121C58.1126 11.4067 57.2185 11.1416 56.4802 11.5226L55.615 11.9629C54.8753 12.3439 54.6662 13.0899 54.9301 13.9301C57.7276 22.8534 63.1855 30.0789 63.1855 30.0789L63.1985 30.0803Z" fill="#960000"/>
<path d="M61.1552 20.9369C58.6461 16.0117 57.0239 11.8181 57.4522 11.3589L57.4421 11.3415C57.4536 11.3357 57.4666 11.3328 57.4767 11.327L57.481 11.3256C61.6195 9.23094 67.0314 11.5776 69.5938 16.5984C72.1562 21.6192 70.9017 27.3961 66.792 29.5429V29.5458C66.7747 29.5516 66.7631 29.5603 66.7531 29.5661L66.743 29.5487C66.1229 29.6298 63.66 25.8548 61.148 20.9442L61.1552 20.9369Z" fill="#595959"/>
<path d="M69.327 18.8625C69.327 18.8625 66.2772 11.1851 62.74 7.14787C59.2027 3.11068 24.5947 1.7157 18.9118 7.14787C13.2289 12.58 11.0861 18.864 11.0861 18.864V17.1633C11.0861 17.1633 13.7134 9.69882 18.9118 5.44724C24.1102 1.19566 58.2611 1.41584 62.6679 5.44724C67.0746 9.47864 69.327 17.1619 69.327 17.1619V18.8625Z" fill="#353535"/>
<path d="M70.348 16.3014C71.069 17.7442 71.2031 19.1507 70.6147 19.4535C70.0264 19.7563 68.9593 18.8393 68.221 17.3965C67.4827 15.9537 67.3659 14.5486 67.9542 14.2444C68.5426 13.9402 69.6096 14.8586 70.348 16.3014ZM10.466 16.0725C11.2447 14.6529 12.3363 13.7649 12.9174 14.0851C13.4986 14.4052 13.3385 15.8234 12.5598 17.2285C11.7811 18.6336 10.6895 19.5361 10.1084 19.213C9.52729 18.89 9.68735 17.4747 10.466 16.0696V16.0725Z" fill="#960000"/>
<path opacity="0.6" d="M56.287 17.246H24.0093C18.2125 17.246 18.2341 32.6965 23.6747 33.5859L34.9296 32.8617C36.2908 32.8617 39.0061 27.5743 39.5151 27.1601C40.0241 26.7458 41.7041 26.6936 42.3645 27.1601C43.0249 27.6265 44.5275 32.3286 45.8887 32.3286L57.1436 33.5888C62.3996 31.1625 61.0744 17.2489 56.2971 17.2489L56.287 17.246Z" fill="white"/>
<path opacity="0.5" d="M32.5777 20.4401L20.4216 20.4183C19.9126 22.0943 19.3444 24.2136 19.6256 26.2764L32.6512 26.2909C35.218 26.2909 37.381 26.7776 39.3911 27.3049C39.4287 27.2562 39.4702 27.2107 39.5151 27.1687C40.0241 26.753 41.7026 26.7023 42.3645 27.1687C42.5347 27.2889 42.7639 27.696 43.0307 28.2291C44.0557 28.4598 45.101 28.587 46.1512 28.6086L60.2568 28.6231C60.8149 26.7515 60.4039 24.7438 60.2785 22.8577C55.9986 22.8577 49.1953 22.7607 45.9335 22.7607C41.3378 22.7607 37.3247 20.5502 32.5834 20.443L32.5777 20.4401Z" fill="white"/>
<path d="M37.4314 30.2933C37.2901 26.9616 43.6234 26.5444 44.3718 29.3344C45.1202 32.1243 37.7443 32.7675 37.4329 30.2933H37.4314Z" fill="#2E2F55"/>
</g>
<defs>
<clipPath id="clip0_38_122">
<rect width="81" height="96" fill="white"/>
</clipPath>
</defs>
</svg>
