<svg width="40" height="40" viewBox="0 0 40 40" fill="none" xmlns="http://www.w3.org/2000/svg">
<path d="M16.5 0.5H23.5V7.5H16.5V0.5Z" fill="#FFE34E" stroke="#565656"/>
<rect x="16" width="8" height="8" fill="url(#paint0_radial_318_85)"/>
<rect x="16" width="8" height="8" fill="url(#paint1_linear_318_85)" fill-opacity="0.2"/>
<path d="M24.5 8.5H31.5V15.5H24.5V8.5Z" fill="#FFE34E" stroke="#565656"/>
<rect x="24" y="8" width="8" height="8" fill="url(#paint2_radial_318_85)"/>
<rect x="24" y="8" width="8" height="8" fill="url(#paint3_linear_318_85)" fill-opacity="0.2"/>
<path d="M32.5 16.5H39.5V23.5H32.5V16.5Z" fill="#FFE34E" stroke="#565656"/>
<rect x="32" y="16" width="8" height="8" fill="url(#paint4_radial_318_85)"/>
<rect x="32" y="16" width="8" height="8" fill="url(#paint5_linear_318_85)" fill-opacity="0.2"/>
<path d="M16.5 16.5H23.5V23.5H16.5V16.5Z" fill="#FFE34E" stroke="#565656"/>
<rect x="16" y="16" width="8" height="8" fill="url(#paint6_radial_318_85)"/>
<rect x="16" y="16" width="8" height="8" fill="url(#paint7_linear_318_85)" fill-opacity="0.2"/>
<path d="M8.5 8.5H15.5V15.5H8.5V8.5Z" fill="#FFE34E" stroke="#565656"/>
<rect x="8" y="8" width="8" height="8" fill="url(#paint8_radial_318_85)"/>
<rect x="8" y="8" width="8" height="8" fill="url(#paint9_linear_318_85)" fill-opacity="0.2"/>
<path d="M0.5 16.5H7.5V23.5H0.5V16.5Z" fill="#FFE34E" stroke="#565656"/>
<rect y="16" width="8" height="8" fill="url(#paint10_radial_318_85)"/>
<rect y="16" width="8" height="8" fill="url(#paint11_linear_318_85)" fill-opacity="0.2"/>
<path d="M16.5 24.5H23.5V31.5H16.5V24.5Z" fill="#FFE34E" stroke="#565656"/>
<rect x="16" y="24" width="8" height="8" fill="url(#paint12_radial_318_85)"/>
<rect x="16" y="24" width="8" height="8" fill="url(#paint13_linear_318_85)" fill-opacity="0.2"/>
<path d="M16.5 32.5H23.5V39.5H16.5V32.5Z" fill="#FFE34E" stroke="#565656"/>
<rect x="16" y="32" width="8" height="8" fill="url(#paint14_radial_318_85)"/>
<rect x="16" y="32" width="8" height="8" fill="url(#paint15_linear_318_85)" fill-opacity="0.2"/>
<defs>
<radialGradient id="paint0_radial_318_85" cx="0" cy="0" r="1" gradientUnits="userSpaceOnUse" gradientTransform="translate(18.3529 2.35294) rotate(52.8533) scale(3.2471)">
<stop stop-color="#FFFEFE" stop-opacity="0.35"/>
<stop offset="1" stop-color="#FFFEFE" stop-opacity="0"/>
</radialGradient>
<linearGradient id="paint1_linear_318_85" x1="16" y1="0" x2="24" y2="8" gradientUnits="userSpaceOnUse">
<stop stop-color="white" stop-opacity="0.46"/>
<stop offset="1" stop-opacity="0.58"/>
</linearGradient>
<radialGradient id="paint2_radial_318_85" cx="0" cy="0" r="1" gradientUnits="userSpaceOnUse" gradientTransform="translate(26.3529 10.3529) rotate(52.8533) scale(3.2471)">
<stop stop-color="#FFFEFE" stop-opacity="0.35"/>
<stop offset="1" stop-color="#FFFEFE" stop-opacity="0"/>
</radialGradient>
<linearGradient id="paint3_linear_318_85" x1="24" y1="8" x2="32" y2="16" gradientUnits="userSpaceOnUse">
<stop stop-color="white" stop-opacity="0.46"/>
<stop offset="1" stop-opacity="0.58"/>
</linearGradient>
<radialGradient id="paint4_radial_318_85" cx="0" cy="0" r="1" gradientUnits="userSpaceOnUse" gradientTransform="translate(34.3529 18.3529) rotate(52.8533) scale(3.2471)">
<stop stop-color="#FFFEFE" stop-opacity="0.35"/>
<stop offset="1" stop-color="#FFFEFE" stop-opacity="0"/>
</radialGradient>
<linearGradient id="paint5_linear_318_85" x1="32" y1="16" x2="40" y2="24" gradientUnits="userSpaceOnUse">
<stop stop-color="white" stop-opacity="0.46"/>
<stop offset="1" stop-opacity="0.58"/>
</linearGradient>
<radialGradient id="paint6_radial_318_85" cx="0" cy="0" r="1" gradientUnits="userSpaceOnUse" gradientTransform="translate(18.3529 18.3529) rotate(52.8533) scale(3.2471)">
<stop stop-color="#FFFEFE" stop-opacity="0.35"/>
<stop offset="1" stop-color="#FFFEFE" stop-opacity="0"/>
</radialGradient>
<linearGradient id="paint7_linear_318_85" x1="16" y1="16" x2="24" y2="24" gradientUnits="userSpaceOnUse">
<stop stop-color="white" stop-opacity="0.46"/>
<stop offset="1" stop-opacity="0.58"/>
</linearGradient>
<radialGradient id="paint8_radial_318_85" cx="0" cy="0" r="1" gradientUnits="userSpaceOnUse" gradientTransform="translate(10.3529 10.3529) rotate(52.8533) scale(3.2471)">
<stop stop-color="#FFFEFE" stop-opacity="0.35"/>
<stop offset="1" stop-color="#FFFEFE" stop-opacity="0"/>
</radialGradient>
<linearGradient id="paint9_linear_318_85" x1="8" y1="8" x2="16" y2="16" gradientUnits="userSpaceOnUse">
<stop stop-color="white" stop-opacity="0.46"/>
<stop offset="1" stop-opacity="0.58"/>
</linearGradient>
<radialGradient id="paint10_radial_318_85" cx="0" cy="0" r="1" gradientUnits="userSpaceOnUse" gradientTransform="translate(2.35294 18.3529) rotate(52.8533) scale(3.2471)">
<stop stop-color="#FFFEFE" stop-opacity="0.35"/>
<stop offset="1" stop-color="#FFFEFE" stop-opacity="0"/>
</radialGradient>
<linearGradient id="paint11_linear_318_85" x1="0" y1="16" x2="8" y2="24" gradientUnits="userSpaceOnUse">
<stop stop-color="white" stop-opacity="0.46"/>
<stop offset="1" stop-opacity="0.58"/>
</linearGradient>
<radialGradient id="paint12_radial_318_85" cx="0" cy="0" r="1" gradientUnits="userSpaceOnUse" gradientTransform="translate(18.3529 26.3529) rotate(52.8533) scale(3.2471)">
<stop stop-color="#FFFEFE" stop-opacity="0.35"/>
<stop offset="1" stop-color="#FFFEFE" stop-opacity="0"/>
</radialGradient>
<linearGradient id="paint13_linear_318_85" x1="16" y1="24" x2="24" y2="32" gradientUnits="userSpaceOnUse">
<stop stop-color="white" stop-opacity="0.46"/>
<stop offset="1" stop-opacity="0.58"/>
</linearGradient>
<radialGradient id="paint14_radial_318_85" cx="0" cy="0" r="1" gradientUnits="userSpaceOnUse" gradientTransform="translate(18.3529 34.3529) rotate(52.8533) scale(3.2471)">
<stop stop-color="#FFFEFE" stop-opacity="0.35"/>
<stop offset="1" stop-color="#FFFEFE" stop-opacity="0"/>
</radialGradient>
<linearGradient id="paint15_linear_318_85" x1="16" y1="32" x2="24" y2="40" gradientUnits="userSpaceOnUse">
<stop stop-color="white" stop-opacity="0.46"/>
<stop offset="1" stop-opacity="0.58"/>
</linearGradient>
</defs>
</svg>
