<svg width="22" height="22" viewBox="0 0 22 22" fill="none" xmlns="http://www.w3.org/2000/svg">
<path d="M1.40135 4.21978C-0.180119 2.34697 2.34696 -0.18011 4.21977 1.40136L9.91423 6.20997C10.6594 6.83921 11.7498 6.83921 12.4949 6.20997L18.1894 1.40136C20.0622 -0.18011 22.5893 2.34697 21.0078 4.21978L16.1992 9.91424C15.57 10.6594 15.57 11.7498 16.1992 12.4949L21.0078 18.1894C22.5893 20.0622 20.0622 22.5893 18.1894 21.0078L12.4949 16.1992C11.7498 15.57 10.6594 15.57 9.91423 16.1992L4.21977 21.0078C2.34696 22.5893 -0.180119 20.0622 1.40135 18.1894L6.20996 12.4949C6.8392 11.7498 6.8392 10.6594 6.20996 9.91424L1.40135 4.21978Z" fill="#2E2F55"/>
</svg>
