<svg width="45" height="45" viewBox="0 0 45 45" fill="none" xmlns="http://www.w3.org/2000/svg">
<path fill-rule="evenodd" clip-rule="evenodd" d="M8.28944 12.3956C8.36738 12.265 8.48254 12.1608 8.62005 12.0965C10.3766 11.2741 16.802 8.47815 22.8551 8.47815C28.9082 8.47815 35.3321 11.2749 37.091 12.0973C37.2286 12.1613 37.3439 12.2655 37.4219 12.3962C37.4999 12.527 37.5369 12.6782 37.5282 12.8304C37.4625 14.0057 37.3205 17.3416 37.3205 24.2462C37.3205 33.4494 35.4727 40.8606 23.0984 44.9591C22.9382 45.0135 22.7644 45.0135 22.604 44.9591C10.1735 40.6403 8.39062 33.6744 8.39062 24.2454C8.39062 17.3416 8.24771 14.0042 8.18282 12.8296C8.17436 12.6775 8.21151 12.5263 8.28944 12.3956ZM21.4664 14.5773C21.4701 14.4031 21.613 14.3478 21.8027 14.3478C22.1663 14.3478 22.6966 14.5623 22.6966 14.5623C22.6974 14.1514 24.0106 14.5102 24.1905 14.6932C24.2078 14.7108 24.2237 14.7274 24.2388 14.7431C24.3794 14.8896 24.4374 14.9502 24.7897 14.9502C25.1797 14.9502 25.4463 15.2127 25.4463 15.3862C25.4463 15.5596 25.8572 15.5644 26.0766 15.5644C26.296 15.5644 27.486 15.8198 27.5449 15.8797C27.5986 15.9208 27.6427 15.9735 27.6738 16.0341C27.705 16.0946 27.7224 16.1616 27.7247 16.2298C27.7247 16.4254 27.4503 16.6013 27.4503 16.6013C27.4503 16.6013 27.5976 16.68 27.5976 17.124C27.5976 17.5679 27.0069 17.5087 27.0069 17.5087C27.0062 17.7666 26.9999 17.9101 26.9069 17.9101C26.8728 17.9101 26.8354 17.8414 26.7878 17.7543C26.7055 17.6035 26.5931 17.3976 26.4162 17.3976C26.1371 17.3976 25.9657 17.5253 25.7906 17.7035C25.6154 17.8817 25.5851 18.2294 25.7774 18.2294C25.9696 18.2294 26.2115 18.0386 26.2875 17.9621C26.3635 17.8856 26.3906 17.8943 26.3906 17.8943C26.5441 17.8943 26.8806 18.2807 26.8356 18.745C26.7759 19.3861 26.0781 20.1935 26.0781 19.6226C26.0781 19.0517 25.3975 19.0612 25.3975 19.0612C25.3975 19.0612 24.6595 18.9958 24.6595 19.7629C24.6595 20.0988 24.9665 20.196 25.3677 20.3229C25.8557 20.4772 26.4828 20.6757 26.8658 21.4013C27.4736 21.2516 28.9008 20.8393 28.9008 20.2692C28.9012 19.8799 28.7292 19.6923 28.5698 19.5185C28.4325 19.3687 28.3046 19.2293 28.3046 18.98C28.3046 18.4415 28.6752 18.4068 28.6752 18.4068C28.7235 18.3244 28.7918 18.2559 28.8737 18.2081C29.0287 18.1048 29.2047 18.1309 29.2613 18.1908C29.2898 18.221 29.2571 18.2491 29.2177 18.2831C29.1788 18.3167 29.1333 18.356 29.1333 18.4083C29.1333 18.4245 29.133 18.4384 29.1328 18.4505C29.1313 18.5178 29.131 18.5321 29.1907 18.5928C29.24 18.6503 29.2771 18.7174 29.3 18.79C29.3815 18.8202 29.4511 18.8763 29.4985 18.9501C29.5458 19.0239 29.5684 19.1113 29.5629 19.1992C29.5629 19.5295 29.6458 19.5714 29.6846 19.5714C29.7233 19.5714 30.0489 19.4318 30.0489 18.82C30.0487 18.8006 30.0524 18.7815 30.0596 18.7638C30.067 18.746 30.0778 18.73 30.0915 18.7167C30.0915 18.7167 30.0248 18.6465 30.0248 18.421C30.0248 18.1955 30.2241 17.9408 30.4505 17.9408C30.5705 17.9356 30.6899 17.9611 30.7977 18.0149C30.7977 18.0149 31.0118 17.8793 31.1924 17.9708C31.373 18.0622 31.4365 18.1466 31.4365 18.2578C31.4365 18.3063 31.367 18.3083 31.2885 18.3106C31.1871 18.3134 31.0707 18.3168 31.0707 18.4218C31.0707 18.6079 31.011 18.6465 31.011 18.6465C31.011 18.6465 31.2242 18.9493 30.8637 19.3159C30.8637 19.3159 30.7226 19.4445 30.8133 19.5367C30.856 19.5801 30.9528 19.5594 31.0754 19.5332L31.0815 19.5319C31.2071 19.5051 31.3342 19.4783 31.3916 19.5367C31.4319 19.4706 31.4872 19.4155 31.553 19.376C31.6188 19.3365 31.6929 19.3137 31.7691 19.3096C31.9179 19.3103 32.062 19.3633 32.1769 19.4594C32.1769 19.4594 32.3188 19.4617 32.3188 19.2449C32.3188 19.0281 32.4979 19.2079 32.4979 19.5603C32.4979 19.9128 32.318 19.893 32.318 19.893C32.318 19.893 32.3707 20.3708 31.8079 20.3708C31.8079 20.3708 31.7156 20.5743 31.352 20.5743C31.2344 20.5743 31.1224 20.5573 31.0247 20.5425C30.8203 20.5115 30.6784 20.4899 30.6784 20.6531C30.6784 20.7596 30.7916 20.7905 30.9344 20.8295C31.1153 20.879 31.3437 20.9414 31.449 21.1869C31.449 21.1869 31.6699 21.2925 31.6699 21.4234C31.6699 21.4234 31.8754 21.6127 32.0103 21.4763C32.1452 21.3399 32.1335 21.6269 31.8986 21.8658C31.6637 22.1047 31.5637 22.0416 31.5637 22.0416C31.5637 22.0416 31.4358 22.3121 30.98 22.1717C30.7414 22.0982 30.5826 21.924 30.4465 21.7745C30.3226 21.6383 30.2173 21.5228 30.0876 21.5228C29.8156 21.5228 28.9372 22.1623 28.9372 22.1623C28.9372 22.1623 28.6318 22.2789 28.6318 22.9223C28.6318 23.5657 28.1806 23.7234 28.1806 23.7234L27.1216 24.0546C27.3341 24.2619 28.424 25.2979 28.6721 25.2979C28.8021 25.2979 28.9615 25.4096 29.1306 25.528C29.3214 25.6618 29.5246 25.8042 29.7117 25.8042C29.8244 25.8069 29.937 25.7966 30.0473 25.7734C30.148 25.7513 30.2507 25.741 30.3536 25.7426C30.3536 25.7426 30.7001 25.7955 30.925 25.5668C31.1497 25.3381 31.2203 25.2728 31.5637 25.2728C31.5637 25.2728 31.8622 25.1268 32.2203 25.4919C32.2203 25.4919 32.3645 25.469 32.6963 25.8074C32.8805 25.9946 32.7675 25.976 32.603 25.949C32.5973 25.948 32.5914 25.9471 32.5855 25.946C32.4568 25.9256 32.3025 25.9051 32.2335 25.9753C32.2335 25.9753 32.1149 26.2654 31.8203 26.2654C31.5257 26.2654 31.5257 26.1992 31.5257 26.1992C31.5257 26.1992 31.5125 26.3379 31.4288 26.3379C31.5901 26.4186 31.7685 26.4576 31.9482 26.4515C31.994 26.4499 32.0388 26.465 32.0746 26.494C32.0746 26.494 32.4196 26.3395 32.6762 26.6005C32.7224 26.6421 32.7597 26.693 32.7857 26.75C32.8118 26.8071 32.8259 26.8688 32.8273 26.9316C32.8273 26.9316 32.9638 26.9797 32.9638 27.24C32.9667 27.3004 32.9501 27.3602 32.9165 27.4102C32.8829 27.4601 32.8342 27.4975 32.7777 27.5167C32.7722 27.5189 32.7662 27.5196 32.7602 27.5186C32.7544 27.5177 32.7489 27.5151 32.7443 27.5113C32.7397 27.5074 32.7362 27.5023 32.7342 27.4967C32.7321 27.491 32.7316 27.4848 32.7327 27.4789C32.7428 27.4134 32.7405 27.3212 32.6289 27.3212C32.5788 27.3212 32.5263 27.3509 32.4687 27.3835C32.3342 27.4597 32.1713 27.5518 31.9451 27.3212C31.9451 27.3212 31.7063 27.4166 31.6227 27.3731C31.6175 27.3705 31.6128 27.367 31.6086 27.3629C31.5816 27.3352 31.5862 27.345 31.6009 27.3766C31.6215 27.4211 31.6621 27.5089 31.6621 27.5948C31.6621 27.5948 31.7916 27.579 31.9878 27.7776C32.0445 27.836 32.0867 27.9073 32.1107 27.9857C32.1347 28.064 32.1398 28.147 32.1257 28.2278C32.1257 28.2278 32.2381 28.3359 32.328 28.2996C32.332 28.2984 32.3363 28.2982 32.3404 28.2991C32.3444 28.2999 32.3483 28.3019 32.3513 28.3045C32.3545 28.3073 32.357 28.3109 32.3585 28.3148C32.3599 28.3188 32.3605 28.3231 32.3598 28.3273C32.342 28.4321 32.2762 28.6561 32.0366 28.6561C31.7242 28.6552 31.7102 28.6206 31.7102 28.6206C31.6292 28.6498 31.5432 28.6616 31.4575 28.6552C31.2715 28.6552 31.0304 28.41 31.0304 28.261C31.0304 28.261 30.6699 28.1553 30.6706 27.9315C30.6714 27.7075 30.5636 27.4883 30.2551 27.4883C29.9466 27.4883 30.1357 27.832 30.1357 27.832C30.1357 27.832 30.5047 28.2019 30.0876 28.6253C29.8396 28.8799 29.9024 28.9698 29.9947 29.0006C30.0008 29.0024 30.0061 29.0061 30.01 29.0114C30.0138 29.0166 30.0159 29.0229 30.0159 29.0294C30.0159 29.0359 30.0138 29.0421 30.01 29.0474C30.0061 29.0526 30.0008 29.0564 29.9947 29.0581C29.9203 29.0779 29.8424 29.0788 29.7677 29.0604C29.6931 29.0421 29.6239 29.0053 29.5667 28.9533C29.3496 28.7317 29.4458 28.593 29.4458 28.593C29.4458 28.593 29.286 28.4778 29.286 28.112C29.286 28.112 28.9341 28.0624 28.9341 27.6058V27.2825C28.9276 27.2013 28.8927 27.1252 28.8357 27.0681C28.7388 26.9703 28.1232 26.5887 27.5651 26.5887C27.3932 26.5842 27.2215 26.6006 27.0534 26.6376C26.8696 26.676 26.6821 26.6924 26.4945 26.6865C26.1418 26.6865 25.7758 26.4633 25.5216 26.2686C24.8056 26.7442 24.0045 27.0718 23.1641 27.2328C23.1069 27.2881 23.0629 27.3557 23.0354 27.4307C24.037 27.5687 26.2139 27.9038 26.6015 28.2981C26.897 28.5949 27.1315 28.9487 27.2912 29.3387C27.451 29.7287 27.5327 30.1471 27.5317 30.5696C27.5317 30.5696 27.493 31.444 27.0433 31.459C26.8305 31.4661 26.8441 31.6361 26.8641 31.8868C26.8709 31.9701 26.8782 32.0625 26.8782 32.1607C26.8782 32.5542 26.8984 33.144 27.441 33.144C27.7913 33.144 27.9443 33.3198 28.0526 33.4444C28.1121 33.5128 28.1583 33.5658 28.2163 33.5658C28.3066 33.5632 28.3969 33.5714 28.4852 33.5902C28.6466 33.6317 28.812 33.655 28.9783 33.6597C29.0957 33.6597 29.2023 33.5749 29.3084 33.4905C29.3817 33.4323 29.4548 33.3742 29.5311 33.3442C29.6623 33.2841 29.8108 33.2751 29.9481 33.319C29.9481 33.319 29.9761 33.0296 30.4675 33.0296C30.959 33.0296 30.9823 33.3506 30.9823 33.3506C30.9823 33.3506 31.1714 33.2811 31.3327 33.5753C31.3988 33.696 31.3417 33.6768 31.2517 33.6467C31.2435 33.644 31.2351 33.6411 31.2264 33.6383C31.097 33.5957 30.9211 33.5532 30.9211 33.8268C30.9211 34.3211 30.2357 34.1564 30.2357 34.1564C30.2285 34.2285 30.1937 34.2949 30.139 34.3412C30.0842 34.3876 30.0138 34.4104 29.9427 34.4047C29.9427 34.4047 29.9295 34.4062 29.9295 34.4205C29.9295 34.4347 29.9543 34.4347 29.9543 34.4347C29.9543 34.4347 30.3877 34.3826 30.6203 34.3826C30.667 34.3826 30.7193 34.3776 30.7751 34.3723C30.7859 34.3713 30.7968 34.3702 30.8078 34.3692C31.0265 34.3463 31.2931 34.3243 31.4916 34.5269C31.5633 34.6002 31.6327 34.6446 31.6955 34.685C31.8613 34.7915 31.9815 34.8688 31.9815 35.3674C31.9777 35.3757 31.9718 35.3827 31.9645 35.3881C31.9572 35.3933 31.9486 35.3964 31.9397 35.3974C31.9323 35.3974 31.9102 35.3823 31.878 35.3603C31.792 35.3016 31.6342 35.1939 31.4932 35.1939C31.4932 35.1939 31.4063 35.6497 30.9962 35.6497C30.5861 35.6497 30.5536 35.492 30.5536 35.492C30.5536 35.492 30.3551 35.7002 29.993 35.5543C29.6311 35.4084 29.4434 35.4998 29.4434 35.4998C29.4434 35.4998 29.4272 35.4998 29.4434 35.5188C29.4452 35.5208 29.4556 35.527 29.4729 35.5375C29.617 35.6237 30.2349 35.9939 30.2349 36.5628C30.2349 36.5628 30.4536 36.6991 30.4536 37.0681C30.4536 37.2322 30.4121 37.1819 30.3241 37.0754C30.2144 36.9424 30.0324 36.722 29.7691 36.722C29.7691 36.722 28.8295 37.0973 28.8295 36.4799C28.8295 36.4799 28.5868 36.5604 28.2093 36.1748C28.0199 35.9814 27.9272 35.7166 27.8518 35.5007C27.7767 35.2861 27.7186 35.1198 27.5991 35.1198C27.5039 35.1198 27.5169 35.1647 27.5403 35.2459C27.5758 35.3689 27.6355 35.5754 27.3791 35.8358C26.9534 36.2678 27.2557 36.5896 27.2557 36.5896C27.2557 36.5896 27.2449 36.696 27.1643 36.614C27.1484 36.5978 27.1185 36.579 27.0807 36.5553C26.9267 36.4585 26.6418 36.2796 26.6418 35.861C26.6418 35.861 26.2572 35.4139 26.5751 35.0915C26.5751 35.0915 26.2379 34.7453 26.2379 34.0531C26.2379 34.0531 25.0937 33.1644 25.0937 31.2051C25.0937 31.2051 25.0068 30.956 25.299 30.6603C25.299 30.6603 25.9099 30.1083 23.8533 30.1083C23.8533 30.1083 23.233 30.1801 22.6942 30.1801C22.6416 30.1801 22.5772 30.1833 22.5059 30.1872C22.1942 30.203 21.7377 30.2188 21.4554 29.931C21.4396 29.9139 21.4272 29.8939 21.419 29.8719C21.3508 29.8813 21.2826 29.8892 21.2144 29.8947C20.6804 30.288 19.9562 30.5335 19.5283 30.6785C19.4132 30.7175 19.3197 30.7493 19.257 30.7746C19.1093 30.8344 18.9401 30.8628 18.7587 30.8933C18.3675 30.959 17.9192 31.0344 17.5072 31.4535C17.4047 31.5577 17.4284 31.6701 17.4566 31.8029C17.497 31.9946 17.5465 32.2285 17.2382 32.5416C17.1722 32.616 17.0887 32.6719 16.9955 32.7043C16.9023 32.7367 16.8025 32.7445 16.7057 32.7268C16.7057 32.7268 16.4389 33.1912 16.7668 33.5248C17.1527 33.9173 17.7305 33.639 18.0013 33.5086C18.0492 33.4855 18.0876 33.4671 18.1135 33.4578C18.2856 33.3963 18.5181 33.483 18.5181 33.483C18.967 33.0265 19.3546 33.468 19.3546 33.468C19.9322 33.468 19.981 34.1681 19.8345 34.02C19.6879 33.8717 19.4732 34.0294 19.4732 34.0294C19.4732 34.0294 19.3298 34.4236 19.0554 34.4236C18.7809 34.4236 18.7321 34.3637 18.7321 34.3637C18.7321 34.3637 18.7289 34.5072 18.5329 34.5072C18.3367 34.5072 18.0995 34.6996 18.384 34.6996C18.6685 34.6996 18.736 34.9062 18.736 34.9062C19.0275 34.6097 19.5507 34.9922 19.5507 34.9922C20.0329 34.9922 19.8826 35.723 19.8384 35.723C19.7942 35.723 19.7988 35.6749 19.7988 35.6749C19.7988 35.4305 19.5453 35.652 19.5453 35.652C19.5007 35.7413 19.4333 35.8167 19.3502 35.8705C19.2672 35.9243 19.1716 35.9545 19.0732 35.958C18.7445 35.958 18.6119 35.79 18.6119 35.79C18.5126 35.8493 18.3981 35.8768 18.2832 35.8688C18.2193 35.871 18.1556 35.8592 18.0964 35.8345C18.0373 35.8097 17.9839 35.7726 17.9398 35.7254C17.6817 35.6741 17.8623 35.8688 17.8623 35.8688C18.6275 36.319 18.2398 36.6629 18.2398 36.6629C18.6104 37.0406 18.0553 37.1737 17.9692 37.1737C17.8832 37.1737 17.9181 37.1052 17.9181 37.1052C17.9181 37.1052 18.1793 36.8876 17.6173 36.8876C17.0552 36.8876 16.963 36.4933 16.963 36.4933C16.701 36.4933 16.0854 36.1575 16.0854 35.626C16.0854 35.0946 15.8768 34.9511 15.8768 34.9511C15.8839 35.0686 15.8497 35.1847 15.7805 35.279C15.7112 35.3732 15.6113 35.4395 15.4986 35.466C15.4986 35.466 15.3792 35.5882 15.5691 35.7814C15.6661 35.8799 15.5219 35.8949 15.5219 35.8949C15.2301 35.8949 15.1585 35.751 15.0687 35.5704C15.0185 35.4694 14.9625 35.3568 14.859 35.2515C14.5706 34.9582 14.9171 34.5316 14.9171 34.5316C14.3722 33.9773 14.8342 33.3395 15.4141 32.7497C15.6281 32.532 15.5176 32.3058 15.3787 32.0213C15.2277 31.7126 15.0433 31.3353 15.2048 30.8259C15.347 30.3824 15.8767 30.1871 16.37 30.0051C16.6941 29.8857 17.0025 29.772 17.1746 29.5975C17.394 29.3751 17.3974 29.2783 17.4042 29.0879C17.4108 28.9014 17.4208 28.6252 17.6397 28.0537C17.6752 27.9636 17.7166 27.8761 17.7638 27.7919C16.9411 27.6191 16.1881 27.1998 15.6017 26.5879C14.1784 25.1387 14.8396 22.7442 14.8396 22.7442C14.7986 22.7867 14.6016 22.7867 14.6016 22.7867C14.1048 22.7867 13.507 22.2884 13.507 21.6395C13.507 21.0064 13.8861 20.3851 14.6241 20.3859C15.3621 20.3866 15.4474 20.7832 15.4474 20.9953C15.4514 21.1286 15.4057 21.2584 15.3195 21.3588C15.29 21.3864 15.29 21.343 15.29 21.343C15.2924 21.2862 15.2737 21.2305 15.238 21.1868C15.2022 21.1431 15.1516 21.1145 15.0962 21.1065C15.0962 21.1065 14.4907 20.9559 14.4907 21.563C14.4907 22.2056 16.0413 21.9036 16.0413 21.0332C16.0413 20.1627 15.6459 19.9585 15.5831 19.9585C15.5203 19.9585 15.5591 19.8749 15.5591 19.8749C15.5591 19.8749 15.6234 19.692 16.0242 19.692C16.1322 19.6862 16.2394 19.714 16.3316 19.7718C16.4236 19.8296 16.4962 19.9145 16.5397 20.0152C16.563 19.9429 16.5794 19.8685 16.5886 19.7929V19.7918C16.5886 19.721 16.5888 19.0439 15.9762 19.0439C15.4426 19.0439 15.3262 19.2891 15.2864 19.3729C15.2803 19.3859 15.276 19.395 15.2722 19.3986C15.2711 19.3999 15.27 19.401 15.2687 19.4021C15.2417 19.4289 15.2125 19.458 15.2125 19.3884C15.2125 19.3833 15.2123 19.3772 15.212 19.37C15.2082 19.2745 15.197 18.9935 15.6482 18.5361C16.1336 18.0441 16.9661 18.6363 16.9661 18.6363C17.1971 18.4021 17.1072 17.7153 16.6087 17.7153C16.2261 17.7153 16.1271 17.825 16.0811 17.8759C16.0672 17.8913 16.0581 17.9014 16.0474 17.9014C16.0017 17.9014 16.0017 17.787 16.0017 17.787C16.0017 16.9127 16.8351 17.0987 16.8351 17.0987C16.8351 17.0987 16.8677 16.6698 16.325 16.6698C15.8399 16.6698 15.8504 17.1579 15.858 17.5184C15.859 17.5612 15.8599 17.6022 15.8599 17.6405C15.8599 18 15.549 18.4904 15.0606 18.4904C14.7888 18.4904 14.4385 18.2674 14.1278 18.0696C13.8802 17.9121 13.6577 17.7706 13.5202 17.7706C13.3506 17.7763 13.1901 17.8501 13.074 17.9758C12.9578 18.1016 12.8952 18.269 12.9 18.4415C12.9 18.7293 13.112 18.909 13.2337 19.012C13.2827 19.0536 13.3171 19.0826 13.3171 19.1014C13.3171 19.1669 13.214 19.1669 13.214 19.1669C13.214 19.1669 12.0938 19.0706 12.0945 17.9842C12.0953 16.8977 12.9838 16.714 13.3807 16.714C13.7776 16.714 13.9846 16.5342 13.9846 16.5342C14.4616 16.0497 14.3512 15.6905 14.2755 15.4443C14.1871 15.1566 14.1459 15.0227 15.1427 15.0227C16.9933 15.0227 18.3685 16.5603 18.3685 18.5708C18.3677 20.3409 16.9878 21.2674 16.6583 21.4636C16.813 21.3772 16.9913 21.3449 17.1658 21.3715C17.3403 21.3982 17.5013 21.4823 17.6243 21.6111C18.1026 22.0976 17.8607 22.6361 17.8111 22.6361C17.7615 22.6361 17.7499 22.5723 17.7499 22.5723C17.7499 22.4666 17.6104 22.3089 17.6104 22.3089C17.1661 21.8571 16.7692 22.2805 16.7692 22.2805C16.7692 22.2805 17.1987 22.4169 17.1987 22.8845C17.2041 23.0125 17.1772 23.1399 17.1205 23.2543C17.0637 23.3688 16.9791 23.4664 16.8746 23.5381C16.8746 23.3552 16.5676 23.1439 16.3149 23.1439C16.0622 23.1439 15.735 23.4333 15.7226 23.7526C15.7138 23.9787 15.7113 24.0261 15.7106 24.0346M21.4664 14.5773C21.4204 14.5558 20.3159 14.0448 20.3159 14.6261C20.4338 14.8578 20.5655 15.0819 20.7105 15.2971C20.4457 15.236 20.175 15.2054 19.9034 15.2057C18.984 15.2057 18.7453 15.9658 18.7274 16.0525C18.7096 16.1392 18.7639 16.1313 18.8306 16.0997C18.8724 16.0816 19.4879 15.8633 19.6546 16.1786C19.674 16.2411 19.6835 16.3063 19.6825 16.3718C19.6825 16.63 19.5764 16.7688 19.4622 16.9179C19.3297 17.0913 19.1864 17.2786 19.1864 17.6838C19.1864 18.4376 19.301 18.5006 19.301 18.5006C19.317 18.5167 19.3383 18.5264 19.3608 18.5275C19.3715 18.5275 19.3823 18.4869 19.3974 18.4303C19.4072 18.3932 19.419 18.3491 19.4337 18.3051C19.4709 18.194 19.5283 18.0835 19.6243 18.0835C19.722 18.0835 19.6668 18.3292 19.5884 18.6783C19.5117 19.0198 19.4127 19.4604 19.4127 19.867C19.4127 20.6894 19.8066 20.9441 19.8066 20.9441C19.8066 20.9441 19.5461 21.8303 20.0507 21.8303C20.0507 21.8303 20.0786 23.8961 21.3113 23.8961C21.3113 23.8961 21.4904 24.5323 20.605 25.4328C20.114 25.9322 19.8624 26.1013 19.6364 26.2532C19.4549 26.3751 19.2898 26.486 19.0305 26.748H19.0228C18.9344 26.7809 18.8482 26.8195 18.7646 26.8638C18.6554 26.8965 18.5427 26.9155 18.429 26.9206C18.0863 26.943 17.7428 26.8938 17.4196 26.776C17.0965 26.6581 16.8004 26.4742 16.5498 26.2355C15.6885 25.4469 15.8017 24.6301 16.4087 24.6301C17.0158 24.6301 16.9754 25.1986 16.9754 25.1986C16.9754 25.1986 16.9615 25.6267 16.5335 25.6267C16.5335 25.6267 16.4738 25.6142 16.4738 25.6583C16.4738 25.7024 17.0048 26.0872 17.4313 25.6535C17.8577 25.2199 17.7956 23.751 16.4963 23.751C16.4963 23.751 16.0052 23.736 15.7106 24.0346" fill="#FFF6C5"/>
<path d="M22.7636 6.59199C21.0534 6.60551 19.3479 6.77933 17.668 7.11132L17.4173 7.15909L17.3701 6.89987C17.3701 6.89368 17.2392 6.21687 16.7011 5.05171C15.9677 3.46453 15.3859 2.24717 15.3798 2.23478L15.0957 1.64026L15.6947 1.86939C15.6998 1.86939 16.2218 2.07023 16.8448 2.34803C17.4087 2.59928 17.5858 2.88505 17.5713 3.52381V3.53708C17.5713 3.70341 17.5815 3.74587 17.7322 3.86531L18.1095 4.1546L18.3362 3.66005C18.3696 3.59877 18.3943 3.53296 18.4099 3.46453C18.3912 3.41255 18.3675 3.36274 18.3389 3.3159V3.30971L18.1917 3.00802C17.9726 2.56124 17.9701 2.30556 18.1814 1.86497C18.451 1.30407 18.7479 0.790048 18.7606 0.768815L18.8976 0.531713L19.121 0.683883C19.4451 0.90855 19.7551 1.1541 20.0494 1.41907C20.4002 1.74111 20.4944 1.94991 20.4858 2.402V2.71518C20.4858 2.85939 20.4986 2.90628 20.6269 3.0266L21.1336 3.45745L21.4877 2.99564C21.5896 2.85319 21.5888 2.82842 21.5553 2.67891L21.4604 2.21709C21.3594 1.73226 21.4373 1.435 21.7556 1.082C22.1432 0.652034 22.4693 0.31319 22.4736 0.308766L22.7688 0L22.9501 0.189329C22.9544 0.193754 23.3943 0.652034 23.7819 1.082C24.1011 1.43589 24.1781 1.73226 24.0771 2.21709L23.9822 2.67891C23.9479 2.82842 23.9479 2.85585 24.048 2.99387L24.3904 3.48311L24.9089 3.0266C25.038 2.90539 25.0509 2.85939 25.05 2.71607V2.40111C25.0415 1.95256 25.1356 1.74023 25.4864 1.4182C25.7807 1.15322 26.0907 0.907665 26.4148 0.682998L26.6382 0.530827L26.7751 0.767932C26.7879 0.789165 27.0849 1.30407 27.3544 1.86408C27.5658 2.30644 27.5633 2.56036 27.3442 3.00714L27.197 3.30794V3.31414C27.1689 3.36126 27.1451 3.41103 27.1259 3.46276C27.1416 3.53145 27.1663 3.59755 27.1996 3.65918L27.4229 4.15284L27.8028 3.86089C27.9509 3.7441 27.9637 3.70164 27.9611 3.53885V3.52293C27.9466 2.88416 28.1229 2.5984 28.6876 2.34714C29.3097 2.06935 29.8325 1.87028 29.8377 1.86851L30.4366 1.63937L30.1526 2.2339C30.1466 2.24629 29.5647 3.46365 28.8313 5.05082C28.2932 6.21599 28.1639 6.89279 28.1622 6.89898L28.1143 7.15732L27.8645 7.10955C26.1823 6.77938 24.4757 6.60616 22.7636 6.59199Z" fill="#FFF6C5"/>
</svg>
