<svg width="1920" height="588" viewBox="0 0 1920 588" fill="none" xmlns="http://www.w3.org/2000/svg">
<path d="M38.4127 280.239L0 351.8V586H1920V311.266L1820.25 238.704L1809.67 247.889L1583.48 130.111L1560.81 177.151L1319 0L1061.57 332.789C1036.04 319.871 1003.58 304.11 982.985 294.251L948.728 305.26L652.51 208.678L551.756 247.711L504.905 249.128L379.466 208.678L354.781 232.699L174.431 184.658L71.6616 272.232L38.4127 280.239Z" fill="#454C57"/>
<path d="M40.8721 280L0 364.5V587.5H1920.47V310.5L1820.83 238.5L1806.24 262L1586.32 130L1576.76 186.5L1365.4 36L1083.08 359C1057.58 346.093 1010.56 326.851 989.981 317L904.431 338L654.321 208.5L555.182 262L477.684 265.5L381.565 208.5L338.286 241.5L176.747 184.5L82.6409 262L40.8721 280Z" fill="#282F39"/>
<path d="M58.561 306.643L0 339.672V587.5H1920V317.152L1865.44 285.625L1820.9 238.584L1807.38 258.602L1604.67 141L1582.65 238.084L1340.4 193.045L1113.66 444.262C1088.3 431.344 1024.51 355.036 1004.05 345.177L914.953 370.699L664.192 238.584L495.516 317.152H441.96L393.41 238.584L289.301 317.152L183.191 228.075L91.0949 297.635L58.561 306.643Z" fill="#1E242D"/>
<path d="M66.826 386L0 440.5V587.5H1920V397.5L1855.67 350.5H1800.31L1642.72 250L1519.54 310L1352.48 286.5L1233.79 497C1208.52 484.093 1008.82 463.351 988.426 453.5L879.21 397.5L767.003 430L667.761 310L533.112 359.5L447.335 317.5L361.06 310L247.356 359.5L157.59 310L128.166 336.5L66.826 386Z" fill="#191F27"/>
<path d="M46.3815 540.459L1 575.189V590H1920V540.459L1816.39 483.258L1655.43 496.536L1549.3 471L1350.62 540.459C1325.13 527.275 1201.18 550.521 1180.61 540.459H1028.21L898.941 513.901L721.387 496.536L575.019 513.901L363.262 569.06L229.468 547.099L148.99 523.094L46.3815 540.459Z" fill="#12171E"/>
<g style="mix-blend-mode:soft-light">
<path d="M381.565 208.5L356.907 232.5L338.287 227.539L367.475 262.5L411.257 242L484.226 272L531.531 262.5L553.673 247.5L506.872 248.915L381.565 208.5Z" fill="white"/>
<path d="M1320.11 0L1258.24 80L1287.9 71L1295.45 80L1309.54 65L1336.71 102L1371.94 65L1446.92 102L1462.52 104.356L1320.11 0Z" fill="white"/>
<path d="M1584.31 130L1572.98 153.5L1600.41 163L1623.56 150.443L1584.31 130Z" fill="white"/>
<path d="M176.747 184.5L95.7256 253.556L128.939 247.5L146.553 272L176.747 248.915L204.425 272L241.665 247.5L292.995 215.472L176.747 184.5Z" fill="white"/>
<path d="M699.613 247.5L654.321 208.5L778.249 248.915L950.226 305C945.797 303.556 885.979 300.732 856.623 299.5L778.249 248.915L699.613 247.5Z" fill="white"/>
</g>
</svg>
