<svg width="1920" height="826" viewBox="0 0 1920 826" fill="none" xmlns="http://www.w3.org/2000/svg">
<path d="M169.607 304.236L0 503.069V821.569H1920V96.5509L1882.77 161.421L1875.72 198.633L1822.39 302.727L1784.66 328.374L1739.88 389.724L1687.55 302.727L1617.11 281.607L1559.76 233.331L1439.01 161.421L1404.29 111.637L1353.47 75.4304L1297.63 85.4877L1275.49 132.757L1219.14 198.633L1146.18 363.574L1127.57 348.991L1072.73 500.355L764.811 453.085L585.696 290.658L516.264 213.719L479.032 85.4877L451.863 26.6521L386.959 0L337.149 62.3558L302.433 118.174L295.39 148.849L273.755 178.519L251.617 234.337L188.223 323.848L169.607 304.236Z" fill="#5E6672"/>
<path d="M177.778 304.247L0 511.39V817.569H1920V96.6012L1894.46 178.553V223.803L1848.39 302.739L1812.33 340.949L1740.72 389.718L1688.64 302.739L1618.53 281.622L1561.44 233.356L1441.25 161.459L1406.7 111.684L1356.12 75.4847L1319.06 96.6012L1300.53 148.89L1248.45 223.803L1179.34 369.105L1153.3 389.718L1105.23 511.39L766.698 477.704L584.413 389.718L521.815 290.672L464.225 148.89L449.703 62.4126L394.116 0.0686035L344.538 62.4126L309.984 118.22L302.973 148.89L281.44 178.553L259.405 234.361L196.307 323.855L177.778 304.247Z" fill="#3E454F"/>
<path d="M167.175 345.828L0 540.701L0.000383889 825.069L1920 822.065V613.715V96.0686L1894.32 178.147V223.466L1847.99 302.523L1828.36 378.559L1742.25 429.921L1653.12 368.991L1639.53 314.105L1573.56 281.374L1444.66 233.034L1395.31 178.147L1375.17 134.338H1338.91L1315.75 178.147L1297.12 248.14L1233.17 389.637L1175.26 429.921L1149.08 552.283L776.963 522.573L565.476 458.119L492.463 368.991L453.186 223.466L436.57 161.026L395.279 134.338L360.535 99.5934L335.862 125.778V161.026L315.72 191.743L287.018 257.204L250.26 357.41L167.175 345.828Z" fill="#2C323C"/>
<g style="mix-blend-mode:soft-light">
<path d="M188.223 323.848L169.607 304.236L129.723 350.5L166.085 327.368H203.317L266.711 260.989L287.339 279.595L337.149 174.496L348.721 243.389L380.922 206.176L412.116 295.687L456.391 260.989L523.308 323.848L470.982 217.742V166.953L485.07 196.622L507.208 260.989L546.452 290.658L570.099 327.368L625.947 350.5L662.172 360.009L585.696 290.658L516.264 213.719L479.032 85.4877L451.863 26.6521L386.959 0L337.149 62.3558L302.433 118.174L295.39 148.849L273.755 178.519L251.617 234.337L188.223 323.848Z" fill="white"/>
<path d="M1146.18 363.574L1127.57 348.991L1109.53 398.775H1121.03L1177.38 334.911L1250.84 265.515L1234.74 334.911L1305.68 265.515L1344.42 315.802L1360.01 248.92L1396.24 348.991L1482.28 248.92L1531.58 281.607L1593.97 288.647L1687.55 302.727L1617.11 281.607L1559.76 233.331L1439.01 161.421L1404.29 111.637L1353.47 75.4304L1297.63 85.4877L1275.49 132.757L1219.14 198.633L1146.18 363.574Z" fill="white"/>
</g>
</svg>
