<svg width="825" height="276" viewBox="0 0 825 276" fill="none" xmlns="http://www.w3.org/2000/svg">
<path d="M799.543 276H64.4319C-67.269 209.804 19.3074 25.1509 176.719 47.3616C204.914 -7.53056 386 -29.9999 442.744 66.0882C484.5 28.5001 649 53.0001 658.398 153.624C765.438 72.6207 876.151 231.579 799.543 276Z" fill="#F4D4CE"/>
<path d="M799.543 275.5H64.4316C91.8234 212.677 139.047 194.592 216.703 226.479C240.315 193.64 370.442 148.902 414.517 239.805C414.517 204.586 573.502 170.795 633.319 226.479C661.128 180.79 810.144 234.57 799.543 275.5Z" fill="#DFBBB5"/>
<path d="M89.0156 153.25V176H86.0156V155.719H74.7969V176H71.7812V153.25H89.0156ZM96.9375 162.344V182.5H94.0312V159.094H96.6875L96.9375 162.344ZM108.328 167.406V167.734C108.328 168.964 108.182 170.104 107.891 171.156C107.599 172.198 107.172 173.104 106.609 173.875C106.057 174.646 105.375 175.245 104.562 175.672C103.75 176.099 102.818 176.312 101.766 176.312C100.693 176.312 99.7448 176.135 98.9219 175.781C98.099 175.427 97.401 174.911 96.8281 174.234C96.2552 173.557 95.7969 172.745 95.4531 171.797C95.1198 170.849 94.8906 169.781 94.7656 168.594V166.844C94.8906 165.594 95.125 164.474 95.4688 163.484C95.8125 162.495 96.2656 161.651 96.8281 160.953C97.401 160.245 98.0938 159.708 98.9062 159.344C99.7188 158.969 100.656 158.781 101.719 158.781C102.781 158.781 103.724 158.99 104.547 159.406C105.37 159.812 106.062 160.396 106.625 161.156C107.188 161.917 107.609 162.828 107.891 163.891C108.182 164.943 108.328 166.115 108.328 167.406ZM105.422 167.734V167.406C105.422 166.562 105.333 165.771 105.156 165.031C104.979 164.281 104.703 163.625 104.328 163.062C103.964 162.49 103.495 162.042 102.922 161.719C102.349 161.385 101.667 161.219 100.875 161.219C100.146 161.219 99.5104 161.344 98.9688 161.594C98.4375 161.844 97.9844 162.182 97.6094 162.609C97.2344 163.026 96.9271 163.505 96.6875 164.047C96.4583 164.578 96.2865 165.13 96.1719 165.703V169.75C96.3802 170.479 96.6719 171.167 97.0469 171.812C97.4219 172.448 97.9219 172.964 98.5469 173.359C99.1719 173.745 99.9583 173.938 100.906 173.938C101.688 173.938 102.359 173.776 102.922 173.453C103.495 173.12 103.964 172.667 104.328 172.094C104.703 171.521 104.979 170.865 105.156 170.125C105.333 169.375 105.422 168.578 105.422 167.734ZM119.031 176.312C117.854 176.312 116.786 176.115 115.828 175.719C114.88 175.312 114.062 174.745 113.375 174.016C112.698 173.286 112.177 172.422 111.812 171.422C111.448 170.422 111.266 169.328 111.266 168.141V167.484C111.266 166.109 111.469 164.885 111.875 163.812C112.281 162.729 112.833 161.812 113.531 161.062C114.229 160.312 115.021 159.745 115.906 159.359C116.792 158.974 117.708 158.781 118.656 158.781C119.865 158.781 120.906 158.99 121.781 159.406C122.667 159.823 123.391 160.406 123.953 161.156C124.516 161.896 124.932 162.771 125.203 163.781C125.474 164.781 125.609 165.875 125.609 167.062V168.359H112.984V166H122.719V165.781C122.677 165.031 122.521 164.302 122.25 163.594C121.99 162.885 121.573 162.302 121 161.844C120.427 161.385 119.646 161.156 118.656 161.156C118 161.156 117.396 161.297 116.844 161.578C116.292 161.849 115.818 162.255 115.422 162.797C115.026 163.339 114.719 164 114.5 164.781C114.281 165.562 114.172 166.464 114.172 167.484V168.141C114.172 168.943 114.281 169.698 114.5 170.406C114.729 171.104 115.057 171.719 115.484 172.25C115.922 172.781 116.448 173.198 117.062 173.5C117.688 173.802 118.396 173.953 119.188 173.953C120.208 173.953 121.073 173.745 121.781 173.328C122.49 172.911 123.109 172.354 123.641 171.656L125.391 173.047C125.026 173.599 124.562 174.125 124 174.625C123.438 175.125 122.745 175.531 121.922 175.844C121.109 176.156 120.146 176.312 119.031 176.312ZM136.922 168.562H131.375L131.344 166.25H135.875C136.771 166.25 137.516 166.161 138.109 165.984C138.714 165.807 139.167 165.542 139.469 165.188C139.771 164.833 139.922 164.396 139.922 163.875C139.922 163.469 139.833 163.115 139.656 162.812C139.49 162.5 139.234 162.245 138.891 162.047C138.547 161.839 138.12 161.688 137.609 161.594C137.109 161.49 136.521 161.438 135.844 161.438H132.141V176H129.25V159.094H135.844C136.917 159.094 137.88 159.188 138.734 159.375C139.599 159.562 140.333 159.849 140.938 160.234C141.552 160.609 142.021 161.089 142.344 161.672C142.667 162.255 142.828 162.943 142.828 163.734C142.828 164.245 142.724 164.729 142.516 165.188C142.307 165.646 142 166.052 141.594 166.406C141.188 166.76 140.688 167.052 140.094 167.281C139.5 167.5 138.818 167.641 138.047 167.703L136.922 168.562ZM136.922 176H130.328L131.766 173.656H136.922C137.724 173.656 138.391 173.557 138.922 173.359C139.453 173.151 139.849 172.859 140.109 172.484C140.38 172.099 140.516 171.641 140.516 171.109C140.516 170.578 140.38 170.125 140.109 169.75C139.849 169.365 139.453 169.073 138.922 168.875C138.391 168.667 137.724 168.562 136.922 168.562H132.531L132.562 166.25H138.047L139.094 167.125C140.021 167.198 140.807 167.427 141.453 167.812C142.099 168.198 142.589 168.688 142.922 169.281C143.255 169.865 143.422 170.5 143.422 171.188C143.422 171.979 143.271 172.677 142.969 173.281C142.677 173.885 142.25 174.391 141.688 174.797C141.125 175.193 140.443 175.495 139.641 175.703C138.839 175.901 137.932 176 136.922 176ZM150.188 162.344V182.5H147.281V159.094H149.938L150.188 162.344ZM161.578 167.406V167.734C161.578 168.964 161.432 170.104 161.141 171.156C160.849 172.198 160.422 173.104 159.859 173.875C159.307 174.646 158.625 175.245 157.812 175.672C157 176.099 156.068 176.312 155.016 176.312C153.943 176.312 152.995 176.135 152.172 175.781C151.349 175.427 150.651 174.911 150.078 174.234C149.505 173.557 149.047 172.745 148.703 171.797C148.37 170.849 148.141 169.781 148.016 168.594V166.844C148.141 165.594 148.375 164.474 148.719 163.484C149.062 162.495 149.516 161.651 150.078 160.953C150.651 160.245 151.344 159.708 152.156 159.344C152.969 158.969 153.906 158.781 154.969 158.781C156.031 158.781 156.974 158.99 157.797 159.406C158.62 159.812 159.312 160.396 159.875 161.156C160.438 161.917 160.859 162.828 161.141 163.891C161.432 164.943 161.578 166.115 161.578 167.406ZM158.672 167.734V167.406C158.672 166.562 158.583 165.771 158.406 165.031C158.229 164.281 157.953 163.625 157.578 163.062C157.214 162.49 156.745 162.042 156.172 161.719C155.599 161.385 154.917 161.219 154.125 161.219C153.396 161.219 152.76 161.344 152.219 161.594C151.688 161.844 151.234 162.182 150.859 162.609C150.484 163.026 150.177 163.505 149.938 164.047C149.708 164.578 149.536 165.13 149.422 165.703V169.75C149.63 170.479 149.922 171.167 150.297 171.812C150.672 172.448 151.172 172.964 151.797 173.359C152.422 173.745 153.208 173.938 154.156 173.938C154.938 173.938 155.609 173.776 156.172 173.453C156.745 173.12 157.214 172.667 157.578 172.094C157.953 171.521 158.229 170.865 158.406 170.125C158.583 169.375 158.672 168.578 158.672 167.734ZM175.234 173.109V164.406C175.234 163.74 175.099 163.161 174.828 162.672C174.568 162.172 174.172 161.786 173.641 161.516C173.109 161.245 172.453 161.109 171.672 161.109C170.943 161.109 170.302 161.234 169.75 161.484C169.208 161.734 168.781 162.062 168.469 162.469C168.167 162.875 168.016 163.312 168.016 163.781H165.125C165.125 163.177 165.281 162.578 165.594 161.984C165.906 161.391 166.354 160.854 166.938 160.375C167.531 159.885 168.24 159.5 169.062 159.219C169.896 158.927 170.823 158.781 171.844 158.781C173.073 158.781 174.156 158.99 175.094 159.406C176.042 159.823 176.781 160.453 177.312 161.297C177.854 162.13 178.125 163.177 178.125 164.438V172.312C178.125 172.875 178.172 173.474 178.266 174.109C178.37 174.745 178.521 175.292 178.719 175.75V176H175.703C175.557 175.667 175.443 175.224 175.359 174.672C175.276 174.109 175.234 173.589 175.234 173.109ZM175.734 165.75L175.766 167.781H172.844C172.021 167.781 171.286 167.849 170.641 167.984C169.995 168.109 169.453 168.302 169.016 168.562C168.578 168.823 168.245 169.151 168.016 169.547C167.786 169.932 167.672 170.385 167.672 170.906C167.672 171.438 167.792 171.922 168.031 172.359C168.271 172.797 168.63 173.146 169.109 173.406C169.599 173.656 170.198 173.781 170.906 173.781C171.792 173.781 172.573 173.594 173.25 173.219C173.927 172.844 174.464 172.385 174.859 171.844C175.266 171.302 175.484 170.776 175.516 170.266L176.75 171.656C176.677 172.094 176.479 172.578 176.156 173.109C175.833 173.641 175.401 174.151 174.859 174.641C174.328 175.12 173.693 175.521 172.953 175.844C172.224 176.156 171.401 176.312 170.484 176.312C169.339 176.312 168.333 176.089 167.469 175.641C166.615 175.193 165.948 174.594 165.469 173.844C165 173.083 164.766 172.234 164.766 171.297C164.766 170.391 164.943 169.594 165.297 168.906C165.651 168.208 166.161 167.63 166.828 167.172C167.495 166.703 168.297 166.349 169.234 166.109C170.172 165.87 171.219 165.75 172.375 165.75H175.734ZM206.172 173.625L205.891 181.016H203.312V176H201.109V173.625H206.172ZM182.75 159.094H185.641V173.625H191.828V159.094H194.734V173.625H200.906V159.094H203.797V176H182.75V159.094ZM219.141 173.109V164.406C219.141 163.74 219.005 163.161 218.734 162.672C218.474 162.172 218.078 161.786 217.547 161.516C217.016 161.245 216.359 161.109 215.578 161.109C214.849 161.109 214.208 161.234 213.656 161.484C213.115 161.734 212.688 162.062 212.375 162.469C212.073 162.875 211.922 163.312 211.922 163.781H209.031C209.031 163.177 209.188 162.578 209.5 161.984C209.812 161.391 210.26 160.854 210.844 160.375C211.438 159.885 212.146 159.5 212.969 159.219C213.802 158.927 214.729 158.781 215.75 158.781C216.979 158.781 218.062 158.99 219 159.406C219.948 159.823 220.688 160.453 221.219 161.297C221.76 162.13 222.031 163.177 222.031 164.438V172.312C222.031 172.875 222.078 173.474 222.172 174.109C222.276 174.745 222.427 175.292 222.625 175.75V176H219.609C219.464 175.667 219.349 175.224 219.266 174.672C219.182 174.109 219.141 173.589 219.141 173.109ZM219.641 165.75L219.672 167.781H216.75C215.927 167.781 215.193 167.849 214.547 167.984C213.901 168.109 213.359 168.302 212.922 168.562C212.484 168.823 212.151 169.151 211.922 169.547C211.693 169.932 211.578 170.385 211.578 170.906C211.578 171.438 211.698 171.922 211.938 172.359C212.177 172.797 212.536 173.146 213.016 173.406C213.505 173.656 214.104 173.781 214.812 173.781C215.698 173.781 216.479 173.594 217.156 173.219C217.833 172.844 218.37 172.385 218.766 171.844C219.172 171.302 219.391 170.776 219.422 170.266L220.656 171.656C220.583 172.094 220.385 172.578 220.062 173.109C219.74 173.641 219.307 174.151 218.766 174.641C218.234 175.12 217.599 175.521 216.859 175.844C216.13 176.156 215.307 176.312 214.391 176.312C213.245 176.312 212.24 176.089 211.375 175.641C210.521 175.193 209.854 174.594 209.375 173.844C208.906 173.083 208.672 172.234 208.672 171.297C208.672 170.391 208.849 169.594 209.203 168.906C209.557 168.208 210.068 167.63 210.734 167.172C211.401 166.703 212.203 166.349 213.141 166.109C214.078 165.87 215.125 165.75 216.281 165.75H219.641ZM233.594 176.312C232.417 176.312 231.349 176.115 230.391 175.719C229.443 175.312 228.625 174.745 227.938 174.016C227.26 173.286 226.74 172.422 226.375 171.422C226.01 170.422 225.828 169.328 225.828 168.141V167.484C225.828 166.109 226.031 164.885 226.438 163.812C226.844 162.729 227.396 161.812 228.094 161.062C228.792 160.312 229.583 159.745 230.469 159.359C231.354 158.974 232.271 158.781 233.219 158.781C234.427 158.781 235.469 158.99 236.344 159.406C237.229 159.823 237.953 160.406 238.516 161.156C239.078 161.896 239.495 162.771 239.766 163.781C240.036 164.781 240.172 165.875 240.172 167.062V168.359H227.547V166H237.281V165.781C237.24 165.031 237.083 164.302 236.812 163.594C236.552 162.885 236.135 162.302 235.562 161.844C234.99 161.385 234.208 161.156 233.219 161.156C232.562 161.156 231.958 161.297 231.406 161.578C230.854 161.849 230.38 162.255 229.984 162.797C229.589 163.339 229.281 164 229.062 164.781C228.844 165.562 228.734 166.464 228.734 167.484V168.141C228.734 168.943 228.844 169.698 229.062 170.406C229.292 171.104 229.62 171.719 230.047 172.25C230.484 172.781 231.01 173.198 231.625 173.5C232.25 173.802 232.958 173.953 233.75 173.953C234.771 173.953 235.635 173.745 236.344 173.328C237.052 172.911 237.672 172.354 238.203 171.656L239.953 173.047C239.589 173.599 239.125 174.125 238.562 174.625C238 175.125 237.307 175.531 236.484 175.844C235.672 176.156 234.708 176.312 233.594 176.312ZM253.266 172.156L259.016 159.094H261.797L254.266 176H252.266L244.766 159.094H247.547L253.266 172.156ZM246.703 159.094V176H243.812V159.094H246.703ZM259.734 176V159.094H262.641V176H259.734ZM278.359 171.422L286.156 159.094H289.062V176H286.156V163.672L278.359 176H275.484V159.094H278.359V171.422ZM296.75 159.094H299.641L299.391 165.422C299.328 167.026 299.146 168.411 298.844 169.578C298.542 170.745 298.156 171.74 297.688 172.562C297.219 173.375 296.693 174.057 296.109 174.609C295.536 175.161 294.943 175.625 294.328 176H292.891L292.969 173.641L293.562 173.625C293.906 173.219 294.24 172.802 294.562 172.375C294.885 171.938 295.182 171.422 295.453 170.828C295.724 170.224 295.948 169.49 296.125 168.625C296.312 167.75 296.432 166.682 296.484 165.422L296.75 159.094ZM297.469 159.094H307.641V176H304.75V161.766H297.469V159.094ZM292.234 173.625H309.812V180.984H306.922V176H295.125V180.984H292.219L292.234 173.625ZM320.031 176.312C318.854 176.312 317.786 176.115 316.828 175.719C315.88 175.312 315.062 174.745 314.375 174.016C313.698 173.286 313.177 172.422 312.812 171.422C312.448 170.422 312.266 169.328 312.266 168.141V167.484C312.266 166.109 312.469 164.885 312.875 163.812C313.281 162.729 313.833 161.812 314.531 161.062C315.229 160.312 316.021 159.745 316.906 159.359C317.792 158.974 318.708 158.781 319.656 158.781C320.865 158.781 321.906 158.99 322.781 159.406C323.667 159.823 324.391 160.406 324.953 161.156C325.516 161.896 325.932 162.771 326.203 163.781C326.474 164.781 326.609 165.875 326.609 167.062V168.359H313.984V166H323.719V165.781C323.677 165.031 323.521 164.302 323.25 163.594C322.99 162.885 322.573 162.302 322 161.844C321.427 161.385 320.646 161.156 319.656 161.156C319 161.156 318.396 161.297 317.844 161.578C317.292 161.849 316.818 162.255 316.422 162.797C316.026 163.339 315.719 164 315.5 164.781C315.281 165.562 315.172 166.464 315.172 167.484V168.141C315.172 168.943 315.281 169.698 315.5 170.406C315.729 171.104 316.057 171.719 316.484 172.25C316.922 172.781 317.448 173.198 318.062 173.5C318.688 173.802 319.396 173.953 320.188 173.953C321.208 173.953 322.073 173.745 322.781 173.328C323.49 172.911 324.109 172.354 324.641 171.656L326.391 173.047C326.026 173.599 325.562 174.125 325 174.625C324.438 175.125 323.745 175.531 322.922 175.844C322.109 176.156 321.146 176.312 320.031 176.312ZM333.109 171.422L340.906 159.094H343.812V176H340.906V163.672L333.109 176H330.234V159.094H333.109V171.422ZM364.328 168.562H358.781L358.75 166.25H363.281C364.177 166.25 364.922 166.161 365.516 165.984C366.12 165.807 366.573 165.542 366.875 165.188C367.177 164.833 367.328 164.396 367.328 163.875C367.328 163.469 367.24 163.115 367.062 162.812C366.896 162.5 366.641 162.245 366.297 162.047C365.953 161.839 365.526 161.688 365.016 161.594C364.516 161.49 363.927 161.438 363.25 161.438H359.547V176H356.656V159.094H363.25C364.323 159.094 365.286 159.188 366.141 159.375C367.005 159.562 367.74 159.849 368.344 160.234C368.958 160.609 369.427 161.089 369.75 161.672C370.073 162.255 370.234 162.943 370.234 163.734C370.234 164.245 370.13 164.729 369.922 165.188C369.714 165.646 369.406 166.052 369 166.406C368.594 166.76 368.094 167.052 367.5 167.281C366.906 167.5 366.224 167.641 365.453 167.703L364.328 168.562ZM364.328 176H357.734L359.172 173.656H364.328C365.13 173.656 365.797 173.557 366.328 173.359C366.859 173.151 367.255 172.859 367.516 172.484C367.786 172.099 367.922 171.641 367.922 171.109C367.922 170.578 367.786 170.125 367.516 169.75C367.255 169.365 366.859 169.073 366.328 168.875C365.797 168.667 365.13 168.562 364.328 168.562H359.938L359.969 166.25H365.453L366.5 167.125C367.427 167.198 368.214 167.427 368.859 167.812C369.505 168.198 369.995 168.688 370.328 169.281C370.661 169.865 370.828 170.5 370.828 171.188C370.828 171.979 370.677 172.677 370.375 173.281C370.083 173.885 369.656 174.391 369.094 174.797C368.531 175.193 367.849 175.495 367.047 175.703C366.245 175.901 365.339 176 364.328 176ZM385.531 162.344V182.5H382.625V159.094H385.281L385.531 162.344ZM396.922 167.406V167.734C396.922 168.964 396.776 170.104 396.484 171.156C396.193 172.198 395.766 173.104 395.203 173.875C394.651 174.646 393.969 175.245 393.156 175.672C392.344 176.099 391.411 176.312 390.359 176.312C389.286 176.312 388.339 176.135 387.516 175.781C386.693 175.427 385.995 174.911 385.422 174.234C384.849 173.557 384.391 172.745 384.047 171.797C383.714 170.849 383.484 169.781 383.359 168.594V166.844C383.484 165.594 383.719 164.474 384.062 163.484C384.406 162.495 384.859 161.651 385.422 160.953C385.995 160.245 386.688 159.708 387.5 159.344C388.312 158.969 389.25 158.781 390.312 158.781C391.375 158.781 392.318 158.99 393.141 159.406C393.964 159.812 394.656 160.396 395.219 161.156C395.781 161.917 396.203 162.828 396.484 163.891C396.776 164.943 396.922 166.115 396.922 167.406ZM394.016 167.734V167.406C394.016 166.562 393.927 165.771 393.75 165.031C393.573 164.281 393.297 163.625 392.922 163.062C392.557 162.49 392.089 162.042 391.516 161.719C390.943 161.385 390.26 161.219 389.469 161.219C388.74 161.219 388.104 161.344 387.562 161.594C387.031 161.844 386.578 162.182 386.203 162.609C385.828 163.026 385.521 163.505 385.281 164.047C385.052 164.578 384.88 165.13 384.766 165.703V169.75C384.974 170.479 385.266 171.167 385.641 171.812C386.016 172.448 386.516 172.964 387.141 173.359C387.766 173.745 388.552 173.938 389.5 173.938C390.281 173.938 390.953 173.776 391.516 173.453C392.089 173.12 392.557 172.667 392.922 172.094C393.297 171.521 393.573 170.865 393.75 170.125C393.927 169.375 394.016 168.578 394.016 167.734ZM407.625 176.312C406.448 176.312 405.38 176.115 404.422 175.719C403.474 175.312 402.656 174.745 401.969 174.016C401.292 173.286 400.771 172.422 400.406 171.422C400.042 170.422 399.859 169.328 399.859 168.141V167.484C399.859 166.109 400.062 164.885 400.469 163.812C400.875 162.729 401.427 161.812 402.125 161.062C402.823 160.312 403.615 159.745 404.5 159.359C405.385 158.974 406.302 158.781 407.25 158.781C408.458 158.781 409.5 158.99 410.375 159.406C411.26 159.823 411.984 160.406 412.547 161.156C413.109 161.896 413.526 162.771 413.797 163.781C414.068 164.781 414.203 165.875 414.203 167.062V168.359H401.578V166H411.312V165.781C411.271 165.031 411.115 164.302 410.844 163.594C410.583 162.885 410.167 162.302 409.594 161.844C409.021 161.385 408.24 161.156 407.25 161.156C406.594 161.156 405.99 161.297 405.438 161.578C404.885 161.849 404.411 162.255 404.016 162.797C403.62 163.339 403.312 164 403.094 164.781C402.875 165.562 402.766 166.464 402.766 167.484V168.141C402.766 168.943 402.875 169.698 403.094 170.406C403.323 171.104 403.651 171.719 404.078 172.25C404.516 172.781 405.042 173.198 405.656 173.5C406.281 173.802 406.99 173.953 407.781 173.953C408.802 173.953 409.667 173.745 410.375 173.328C411.083 172.911 411.703 172.354 412.234 171.656L413.984 173.047C413.62 173.599 413.156 174.125 412.594 174.625C412.031 175.125 411.339 175.531 410.516 175.844C409.703 176.156 408.74 176.312 407.625 176.312ZM427.547 173.109V164.406C427.547 163.74 427.411 163.161 427.141 162.672C426.88 162.172 426.484 161.786 425.953 161.516C425.422 161.245 424.766 161.109 423.984 161.109C423.255 161.109 422.615 161.234 422.062 161.484C421.521 161.734 421.094 162.062 420.781 162.469C420.479 162.875 420.328 163.312 420.328 163.781H417.438C417.438 163.177 417.594 162.578 417.906 161.984C418.219 161.391 418.667 160.854 419.25 160.375C419.844 159.885 420.552 159.5 421.375 159.219C422.208 158.927 423.135 158.781 424.156 158.781C425.385 158.781 426.469 158.99 427.406 159.406C428.354 159.823 429.094 160.453 429.625 161.297C430.167 162.13 430.438 163.177 430.438 164.438V172.312C430.438 172.875 430.484 173.474 430.578 174.109C430.682 174.745 430.833 175.292 431.031 175.75V176H428.016C427.87 175.667 427.755 175.224 427.672 174.672C427.589 174.109 427.547 173.589 427.547 173.109ZM428.047 165.75L428.078 167.781H425.156C424.333 167.781 423.599 167.849 422.953 167.984C422.307 168.109 421.766 168.302 421.328 168.562C420.891 168.823 420.557 169.151 420.328 169.547C420.099 169.932 419.984 170.385 419.984 170.906C419.984 171.438 420.104 171.922 420.344 172.359C420.583 172.797 420.943 173.146 421.422 173.406C421.911 173.656 422.51 173.781 423.219 173.781C424.104 173.781 424.885 173.594 425.562 173.219C426.24 172.844 426.776 172.385 427.172 171.844C427.578 171.302 427.797 170.776 427.828 170.266L429.062 171.656C428.99 172.094 428.792 172.578 428.469 173.109C428.146 173.641 427.714 174.151 427.172 174.641C426.641 175.12 426.005 175.521 425.266 175.844C424.536 176.156 423.714 176.312 422.797 176.312C421.651 176.312 420.646 176.089 419.781 175.641C418.927 175.193 418.26 174.594 417.781 173.844C417.312 173.083 417.078 172.234 417.078 171.297C417.078 170.391 417.255 169.594 417.609 168.906C417.964 168.208 418.474 167.63 419.141 167.172C419.807 166.703 420.609 166.349 421.547 166.109C422.484 165.87 423.531 165.75 424.688 165.75H428.047ZM446.281 159.094V161.484H438.109V159.094H446.281ZM448.828 159.094V176H445.938V159.094H448.828ZM437.406 159.094H440.312L439.875 167.25C439.802 168.51 439.682 169.625 439.516 170.594C439.359 171.552 439.141 172.375 438.859 173.062C438.589 173.75 438.245 174.312 437.828 174.75C437.422 175.177 436.932 175.495 436.359 175.703C435.786 175.901 435.125 176 434.375 176H433.469V173.453L434.094 173.406C434.542 173.375 434.922 173.271 435.234 173.094C435.557 172.917 435.828 172.656 436.047 172.312C436.266 171.958 436.443 171.505 436.578 170.953C436.724 170.401 436.833 169.745 436.906 168.984C436.99 168.224 437.052 167.339 437.094 166.328L437.406 159.094ZM455.859 164.906H460.938C462.302 164.906 463.453 165.146 464.391 165.625C465.328 166.094 466.036 166.745 466.516 167.578C467.005 168.401 467.25 169.339 467.25 170.391C467.25 171.172 467.115 171.906 466.844 172.594C466.573 173.271 466.167 173.865 465.625 174.375C465.094 174.885 464.432 175.286 463.641 175.578C462.859 175.859 461.958 176 460.938 176H453.75V159.094H456.641V173.625H460.938C461.771 173.625 462.438 173.474 462.938 173.172C463.438 172.87 463.797 172.479 464.016 172C464.234 171.521 464.344 171.021 464.344 170.5C464.344 169.99 464.234 169.49 464.016 169C463.797 168.51 463.438 168.104 462.938 167.781C462.438 167.448 461.771 167.281 460.938 167.281H455.859V164.906ZM482.328 166.422V168.766H473.391V166.422H482.328ZM474 159.094V176H471.109V159.094H474ZM484.672 159.094V176H481.766V159.094H484.672ZM488.562 167.734V167.375C488.562 166.156 488.74 165.026 489.094 163.984C489.448 162.932 489.958 162.021 490.625 161.25C491.292 160.469 492.099 159.865 493.047 159.438C493.995 159 495.057 158.781 496.234 158.781C497.422 158.781 498.49 159 499.438 159.438C500.396 159.865 501.208 160.469 501.875 161.25C502.552 162.021 503.068 162.932 503.422 163.984C503.776 165.026 503.953 166.156 503.953 167.375V167.734C503.953 168.953 503.776 170.083 503.422 171.125C503.068 172.167 502.552 173.078 501.875 173.859C501.208 174.63 500.401 175.234 499.453 175.672C498.516 176.099 497.453 176.312 496.266 176.312C495.078 176.312 494.01 176.099 493.062 175.672C492.115 175.234 491.302 174.63 490.625 173.859C489.958 173.078 489.448 172.167 489.094 171.125C488.74 170.083 488.562 168.953 488.562 167.734ZM491.453 167.375V167.734C491.453 168.578 491.552 169.375 491.75 170.125C491.948 170.865 492.245 171.521 492.641 172.094C493.047 172.667 493.552 173.12 494.156 173.453C494.76 173.776 495.464 173.938 496.266 173.938C497.057 173.938 497.75 173.776 498.344 173.453C498.948 173.12 499.448 172.667 499.844 172.094C500.24 171.521 500.536 170.865 500.734 170.125C500.943 169.375 501.047 168.578 501.047 167.734V167.375C501.047 166.542 500.943 165.755 500.734 165.016C500.536 164.266 500.234 163.604 499.828 163.031C499.432 162.448 498.932 161.99 498.328 161.656C497.734 161.323 497.036 161.156 496.234 161.156C495.443 161.156 494.745 161.323 494.141 161.656C493.547 161.99 493.047 162.448 492.641 163.031C492.245 163.604 491.948 164.266 491.75 165.016C491.552 165.755 491.453 166.542 491.453 167.375ZM514.344 173.938C515.031 173.938 515.667 173.797 516.25 173.516C516.833 173.234 517.312 172.849 517.688 172.359C518.062 171.859 518.276 171.292 518.328 170.656H521.078C521.026 171.656 520.688 172.589 520.062 173.453C519.448 174.307 518.641 175 517.641 175.531C516.641 176.052 515.542 176.312 514.344 176.312C513.073 176.312 511.964 176.089 511.016 175.641C510.078 175.193 509.297 174.578 508.672 173.797C508.057 173.016 507.594 172.12 507.281 171.109C506.979 170.089 506.828 169.01 506.828 167.875V167.219C506.828 166.083 506.979 165.01 507.281 164C507.594 162.979 508.057 162.078 508.672 161.297C509.297 160.516 510.078 159.901 511.016 159.453C511.964 159.005 513.073 158.781 514.344 158.781C515.667 158.781 516.823 159.052 517.812 159.594C518.802 160.125 519.578 160.854 520.141 161.781C520.714 162.698 521.026 163.74 521.078 164.906H518.328C518.276 164.208 518.078 163.578 517.734 163.016C517.401 162.453 516.943 162.005 516.359 161.672C515.786 161.328 515.115 161.156 514.344 161.156C513.458 161.156 512.714 161.333 512.109 161.688C511.516 162.031 511.042 162.5 510.688 163.094C510.344 163.677 510.094 164.328 509.938 165.047C509.792 165.755 509.719 166.479 509.719 167.219V167.875C509.719 168.615 509.792 169.344 509.938 170.062C510.083 170.781 510.328 171.432 510.672 172.016C511.026 172.599 511.5 173.068 512.094 173.422C512.698 173.766 513.448 173.938 514.344 173.938ZM531.219 159.094V176H528.312V159.094H531.219ZM536.891 159.094V161.438H522.75V159.094H536.891ZM542.109 164.906H547.188C548.552 164.906 549.703 165.146 550.641 165.625C551.578 166.094 552.286 166.745 552.766 167.578C553.255 168.401 553.5 169.339 553.5 170.391C553.5 171.172 553.365 171.906 553.094 172.594C552.823 173.271 552.417 173.865 551.875 174.375C551.344 174.885 550.682 175.286 549.891 175.578C549.109 175.859 548.208 176 547.188 176H540V159.094H542.891V173.625H547.188C548.021 173.625 548.688 173.474 549.188 173.172C549.688 172.87 550.047 172.479 550.266 172C550.484 171.521 550.594 171.021 550.594 170.5C550.594 169.99 550.484 169.49 550.266 169C550.047 168.51 549.688 168.104 549.188 167.781C548.688 167.448 548.021 167.281 547.188 167.281H542.109V164.906ZM557.156 174.469C557.156 173.979 557.307 173.568 557.609 173.234C557.922 172.891 558.37 172.719 558.953 172.719C559.536 172.719 559.979 172.891 560.281 173.234C560.594 173.568 560.75 173.979 560.75 174.469C560.75 174.948 560.594 175.354 560.281 175.688C559.979 176.021 559.536 176.188 558.953 176.188C558.37 176.188 557.922 176.021 557.609 175.688C557.307 175.354 557.156 174.948 557.156 174.469Z" fill="#282406" fill-opacity="0.83"/>
<path d="M76.0455 225L69.6818 201.727H72.5455L77.4091 220.682H77.6364L82.5909 201.727H85.7727L90.7273 220.682H90.9545L95.8182 201.727H98.6818L92.3182 225H89.4091L84.2727 206.455H84.0909L78.9545 225H76.0455ZM107.523 225.364C105.841 225.364 104.39 224.992 103.17 224.25C101.958 223.5 101.023 222.455 100.364 221.114C99.7121 219.765 99.3864 218.197 99.3864 216.409C99.3864 214.621 99.7121 213.045 100.364 211.682C101.023 210.311 101.939 209.242 103.114 208.477C104.295 207.705 105.674 207.318 107.25 207.318C108.159 207.318 109.057 207.47 109.943 207.773C110.83 208.076 111.636 208.568 112.364 209.25C113.091 209.924 113.67 210.818 114.102 211.932C114.534 213.045 114.75 214.417 114.75 216.045V217.182H101.295V214.864H112.023C112.023 213.879 111.826 213 111.432 212.227C111.045 211.455 110.492 210.845 109.773 210.398C109.061 209.951 108.22 209.727 107.25 209.727C106.182 209.727 105.258 209.992 104.477 210.523C103.705 211.045 103.11 211.727 102.693 212.568C102.277 213.409 102.068 214.311 102.068 215.273V216.818C102.068 218.136 102.295 219.254 102.75 220.17C103.212 221.08 103.852 221.773 104.67 222.25C105.489 222.72 106.439 222.955 107.523 222.955C108.227 222.955 108.864 222.856 109.432 222.659C110.008 222.455 110.504 222.152 110.92 221.75C111.337 221.341 111.659 220.833 111.886 220.227L114.477 220.955C114.205 221.833 113.746 222.606 113.102 223.273C112.458 223.932 111.663 224.447 110.716 224.818C109.769 225.182 108.705 225.364 107.523 225.364ZM119.193 225V201.727H121.875V210.318H122.102C122.299 210.015 122.572 209.629 122.92 209.159C123.277 208.682 123.784 208.258 124.443 207.886C125.11 207.508 126.011 207.318 127.148 207.318C128.617 207.318 129.913 207.686 131.034 208.42C132.155 209.155 133.03 210.197 133.659 211.545C134.288 212.894 134.602 214.485 134.602 216.318C134.602 218.167 134.288 219.769 133.659 221.125C133.03 222.473 132.159 223.519 131.045 224.261C129.932 224.996 128.648 225.364 127.193 225.364C126.072 225.364 125.174 225.178 124.5 224.807C123.826 224.428 123.307 224 122.943 223.523C122.58 223.038 122.299 222.636 122.102 222.318H121.784V225H119.193ZM121.83 216.273C121.83 217.591 122.023 218.754 122.409 219.761C122.795 220.761 123.36 221.545 124.102 222.114C124.845 222.674 125.754 222.955 126.83 222.955C127.951 222.955 128.886 222.659 129.636 222.068C130.394 221.47 130.962 220.667 131.341 219.659C131.727 218.644 131.92 217.515 131.92 216.273C131.92 215.045 131.731 213.939 131.352 212.955C130.981 211.962 130.417 211.178 129.659 210.602C128.909 210.019 127.966 209.727 126.83 209.727C125.739 209.727 124.822 210.004 124.08 210.557C123.337 211.102 122.777 211.867 122.398 212.852C122.019 213.83 121.83 214.97 121.83 216.273ZM148.705 213.773V216.273H138.523V213.773H148.705ZM153.423 225V207.545H167.151V225H164.469V210.045H156.105V225H153.423ZM172.048 231.545V207.545H174.639V210.318H174.957C175.154 210.015 175.427 209.629 175.776 209.159C176.132 208.682 176.639 208.258 177.298 207.886C177.965 207.508 178.866 207.318 180.003 207.318C181.473 207.318 182.768 207.686 183.889 208.42C185.01 209.155 185.885 210.197 186.514 211.545C187.143 212.894 187.457 214.485 187.457 216.318C187.457 218.167 187.143 219.769 186.514 221.125C185.885 222.473 185.014 223.519 183.901 224.261C182.787 224.996 181.503 225.364 180.048 225.364C178.927 225.364 178.029 225.178 177.355 224.807C176.681 224.428 176.162 224 175.798 223.523C175.435 223.038 175.154 222.636 174.957 222.318H174.73V231.545H172.048ZM174.685 216.273C174.685 217.591 174.878 218.754 175.264 219.761C175.651 220.761 176.215 221.545 176.957 222.114C177.7 222.674 178.609 222.955 179.685 222.955C180.806 222.955 181.741 222.659 182.491 222.068C183.249 221.47 183.817 220.667 184.196 219.659C184.582 218.644 184.776 217.515 184.776 216.273C184.776 215.045 184.586 213.939 184.207 212.955C183.836 211.962 183.272 211.178 182.514 210.602C181.764 210.019 180.821 209.727 179.685 209.727C178.594 209.727 177.677 210.004 176.935 210.557C176.192 211.102 175.632 211.867 175.253 212.852C174.874 213.83 174.685 214.97 174.685 216.273ZM194.23 221.045L202.639 207.545H205.73V225H203.048V211.5L194.685 225H191.548V207.545H194.23V221.045ZM209.097 225V222.5H209.733C210.256 222.5 210.691 222.398 211.04 222.193C211.388 221.981 211.669 221.614 211.881 221.091C212.1 220.561 212.267 219.826 212.381 218.886C212.502 217.939 212.589 216.735 212.642 215.273L212.96 207.545H224.597V225H221.915V210.045H215.506L215.233 216.273C215.172 217.705 215.044 218.966 214.847 220.057C214.657 221.14 214.366 222.049 213.972 222.784C213.585 223.519 213.07 224.072 212.426 224.443C211.782 224.814 210.975 225 210.006 225H209.097ZM236.608 225.364C235.032 225.364 233.65 224.989 232.46 224.239C231.278 223.489 230.354 222.439 229.688 221.091C229.028 219.742 228.699 218.167 228.699 216.364C228.699 214.545 229.028 212.958 229.688 211.602C230.354 210.246 231.278 209.193 232.46 208.443C233.65 207.693 235.032 207.318 236.608 207.318C238.184 207.318 239.563 207.693 240.744 208.443C241.934 209.193 242.858 210.246 243.517 211.602C244.184 212.958 244.517 214.545 244.517 216.364C244.517 218.167 244.184 219.742 243.517 221.091C242.858 222.439 241.934 223.489 240.744 224.239C239.563 224.989 238.184 225.364 236.608 225.364ZM236.608 222.955C237.805 222.955 238.79 222.648 239.562 222.034C240.335 221.42 240.907 220.614 241.278 219.614C241.65 218.614 241.835 217.53 241.835 216.364C241.835 215.197 241.65 214.11 241.278 213.102C240.907 212.095 240.335 211.28 239.562 210.659C238.79 210.038 237.805 209.727 236.608 209.727C235.411 209.727 234.426 210.038 233.653 210.659C232.881 211.28 232.309 212.095 231.938 213.102C231.566 214.11 231.381 215.197 231.381 216.364C231.381 217.53 231.566 218.614 231.938 219.614C232.309 220.614 232.881 221.42 233.653 222.034C234.426 222.648 235.411 222.955 236.608 222.955ZM246.801 225L253.892 216.136L246.892 207.545H250.074L255.892 215H257.347V207.545H260.028V215H261.438L267.256 207.545H270.438L263.483 216.136L270.528 225H267.301L261.392 217.5H260.028V225H257.347V217.5H255.983L250.028 225H246.801ZM280.96 225.364C279.278 225.364 277.828 224.992 276.608 224.25C275.396 223.5 274.46 222.455 273.801 221.114C273.15 219.765 272.824 218.197 272.824 216.409C272.824 214.621 273.15 213.045 273.801 211.682C274.46 210.311 275.377 209.242 276.551 208.477C277.733 207.705 279.112 207.318 280.688 207.318C281.597 207.318 282.494 207.47 283.381 207.773C284.267 208.076 285.074 208.568 285.801 209.25C286.528 209.924 287.108 210.818 287.54 211.932C287.972 213.045 288.188 214.417 288.188 216.045V217.182H274.733V214.864H285.46C285.46 213.879 285.263 213 284.869 212.227C284.483 211.455 283.93 210.845 283.21 210.398C282.498 209.951 281.657 209.727 280.688 209.727C279.619 209.727 278.695 209.992 277.915 210.523C277.142 211.045 276.547 211.727 276.131 212.568C275.714 213.409 275.506 214.311 275.506 215.273V216.818C275.506 218.136 275.733 219.254 276.188 220.17C276.65 221.08 277.29 221.773 278.108 222.25C278.926 222.72 279.877 222.955 280.96 222.955C281.665 222.955 282.301 222.856 282.869 222.659C283.445 222.455 283.941 222.152 284.358 221.75C284.775 221.341 285.097 220.833 285.324 220.227L287.915 220.955C287.642 221.833 287.184 222.606 286.54 223.273C285.896 223.932 285.1 224.447 284.153 224.818C283.206 225.182 282.142 225.364 280.96 225.364ZM303.949 215.045V217.545H294.312V215.045H303.949ZM294.949 207.545V225H292.267V207.545H294.949ZM305.994 207.545V225H303.312V207.545H305.994ZM313.574 221.045L321.983 207.545H325.074V225H322.392V211.5L314.028 225H310.892V207.545H313.574V221.045ZM340.486 225V210H335.849C334.804 210 333.982 210.242 333.384 210.727C332.785 211.212 332.486 211.879 332.486 212.727C332.486 213.561 332.755 214.216 333.293 214.693C333.838 215.17 334.584 215.409 335.531 215.409H341.168V217.909H335.531C334.349 217.909 333.33 217.701 332.474 217.284C331.618 216.867 330.959 216.273 330.497 215.5C330.035 214.72 329.804 213.795 329.804 212.727C329.804 211.652 330.046 210.727 330.531 209.955C331.016 209.182 331.709 208.587 332.611 208.17C333.52 207.754 334.599 207.545 335.849 207.545H343.031V225H340.486ZM328.849 225L333.804 216.318H336.713L331.759 225H328.849ZM355.091 230V222.5H356.545C356.902 222.129 357.208 221.727 357.466 221.295C357.723 220.864 357.947 220.352 358.136 219.761C358.333 219.163 358.5 218.436 358.636 217.58C358.773 216.716 358.894 215.674 359 214.455L359.591 207.545H370.682V222.5H373.364V230H370.682V225H357.773V230H355.091ZM359.591 222.5H368V210.045H362.091L361.636 214.455C361.447 216.28 361.212 217.875 360.932 219.239C360.652 220.602 360.205 221.689 359.591 222.5ZM375.378 225V222.5H376.014C376.537 222.5 376.973 222.398 377.321 222.193C377.67 221.981 377.95 221.614 378.162 221.091C378.382 220.561 378.548 219.826 378.662 218.886C378.783 217.939 378.87 216.735 378.923 215.273L379.241 207.545H390.878V225H388.196V210.045H381.787L381.514 216.273C381.454 217.705 381.325 218.966 381.128 220.057C380.938 221.14 380.647 222.049 380.253 222.784C379.866 223.519 379.351 224.072 378.707 224.443C378.063 224.814 377.257 225 376.287 225H375.378ZM406.298 225V210H401.662C400.616 210 399.795 210.242 399.196 210.727C398.598 211.212 398.298 211.879 398.298 212.727C398.298 213.561 398.567 214.216 399.105 214.693C399.651 215.17 400.397 215.409 401.344 215.409H406.98V217.909H401.344C400.162 217.909 399.143 217.701 398.287 217.284C397.431 216.867 396.772 216.273 396.31 215.5C395.848 214.72 395.616 213.795 395.616 212.727C395.616 211.652 395.859 210.727 396.344 209.955C396.829 209.182 397.522 208.587 398.423 208.17C399.332 207.754 400.412 207.545 401.662 207.545H408.844V225H406.298ZM394.662 225L399.616 216.318H402.526L397.571 225H394.662ZM422.767 225V207.545H429.903C431.782 207.545 433.275 207.97 434.381 208.818C435.487 209.667 436.04 210.788 436.04 212.182C436.04 213.242 435.725 214.064 435.097 214.648C434.468 215.223 433.661 215.614 432.676 215.818C433.32 215.909 433.945 216.136 434.551 216.5C435.165 216.864 435.672 217.364 436.074 218C436.475 218.629 436.676 219.402 436.676 220.318C436.676 221.212 436.449 222.011 435.994 222.716C435.54 223.42 434.888 223.977 434.04 224.386C433.191 224.795 432.176 225 430.994 225H422.767ZM425.312 222.545H430.994C431.919 222.545 432.642 222.326 433.165 221.886C433.688 221.447 433.949 220.848 433.949 220.091C433.949 219.189 433.688 218.481 433.165 217.966C432.642 217.443 431.919 217.182 430.994 217.182H425.312V222.545ZM425.312 214.864H429.903C430.623 214.864 431.241 214.765 431.756 214.568C432.271 214.364 432.665 214.076 432.938 213.705C433.218 213.326 433.358 212.879 433.358 212.364C433.358 211.629 433.051 211.053 432.438 210.636C431.824 210.212 430.979 210 429.903 210H425.312V214.864ZM445.872 225.409C444.766 225.409 443.762 225.201 442.861 224.784C441.959 224.36 441.243 223.75 440.713 222.955C440.183 222.152 439.918 221.182 439.918 220.045C439.918 219.045 440.115 218.235 440.509 217.614C440.902 216.985 441.429 216.492 442.088 216.136C442.747 215.78 443.474 215.515 444.27 215.341C445.073 215.159 445.88 215.015 446.69 214.909C447.751 214.773 448.611 214.67 449.27 214.602C449.937 214.527 450.421 214.402 450.724 214.227C451.035 214.053 451.19 213.75 451.19 213.318V213.227C451.19 212.106 450.884 211.235 450.27 210.614C449.664 209.992 448.743 209.682 447.509 209.682C446.228 209.682 445.224 209.962 444.497 210.523C443.77 211.083 443.259 211.682 442.963 212.318L440.418 211.409C440.872 210.348 441.478 209.523 442.236 208.932C443.001 208.333 443.834 207.917 444.736 207.682C445.645 207.439 446.539 207.318 447.418 207.318C447.978 207.318 448.622 207.386 449.349 207.523C450.084 207.652 450.793 207.92 451.474 208.33C452.164 208.739 452.736 209.356 453.19 210.182C453.645 211.008 453.872 212.114 453.872 213.5V225H451.19V222.636H451.054C450.872 223.015 450.569 223.42 450.145 223.852C449.721 224.284 449.156 224.652 448.452 224.955C447.747 225.258 446.887 225.409 445.872 225.409ZM446.281 223C447.342 223 448.236 222.792 448.963 222.375C449.698 221.958 450.251 221.42 450.622 220.761C451.001 220.102 451.19 219.409 451.19 218.682V216.227C451.077 216.364 450.827 216.489 450.44 216.602C450.062 216.708 449.622 216.803 449.122 216.886C448.63 216.962 448.149 217.03 447.679 217.091C447.217 217.144 446.842 217.189 446.554 217.227C445.857 217.318 445.205 217.466 444.599 217.67C444.001 217.867 443.516 218.167 443.145 218.568C442.781 218.962 442.599 219.5 442.599 220.182C442.599 221.114 442.944 221.818 443.634 222.295C444.33 222.765 445.213 223 446.281 223ZM458.767 207.545H461.449V222.5H468.04V207.545H470.722V222.5H477.312V207.545H479.994V225H458.767V207.545ZM492.21 225.364C490.528 225.364 489.078 224.992 487.858 224.25C486.646 223.5 485.71 222.455 485.051 221.114C484.4 219.765 484.074 218.197 484.074 216.409C484.074 214.621 484.4 213.045 485.051 211.682C485.71 210.311 486.627 209.242 487.801 208.477C488.983 207.705 490.362 207.318 491.938 207.318C492.847 207.318 493.744 207.47 494.631 207.773C495.517 208.076 496.324 208.568 497.051 209.25C497.778 209.924 498.358 210.818 498.79 211.932C499.222 213.045 499.438 214.417 499.438 216.045V217.182H485.983V214.864H496.71C496.71 213.879 496.513 213 496.119 212.227C495.733 211.455 495.18 210.845 494.46 210.398C493.748 209.951 492.907 209.727 491.938 209.727C490.869 209.727 489.945 209.992 489.165 210.523C488.392 211.045 487.797 211.727 487.381 212.568C486.964 213.409 486.756 214.311 486.756 215.273V216.818C486.756 218.136 486.983 219.254 487.438 220.17C487.9 221.08 488.54 221.773 489.358 222.25C490.176 222.72 491.127 222.955 492.21 222.955C492.915 222.955 493.551 222.856 494.119 222.659C494.695 222.455 495.191 222.152 495.608 221.75C496.025 221.341 496.347 220.833 496.574 220.227L499.165 220.955C498.892 221.833 498.434 222.606 497.79 223.273C497.146 223.932 496.35 224.447 495.403 224.818C494.456 225.182 493.392 225.364 492.21 225.364ZM514.29 207.545V210.045H506.199V225H503.517V207.545H514.29ZM524.389 225.364C522.813 225.364 521.431 224.989 520.241 224.239C519.06 223.489 518.135 222.439 517.469 221.091C516.81 219.742 516.48 218.167 516.48 216.364C516.48 214.545 516.81 212.958 517.469 211.602C518.135 210.246 519.06 209.193 520.241 208.443C521.431 207.693 522.813 207.318 524.389 207.318C525.965 207.318 527.344 207.693 528.526 208.443C529.715 209.193 530.639 210.246 531.298 211.602C531.965 212.958 532.298 214.545 532.298 216.364C532.298 218.167 531.965 219.742 531.298 221.091C530.639 222.439 529.715 223.489 528.526 224.239C527.344 224.989 525.965 225.364 524.389 225.364ZM524.389 222.955C525.586 222.955 526.571 222.648 527.344 222.034C528.116 221.42 528.688 220.614 529.06 219.614C529.431 218.614 529.616 217.53 529.616 216.364C529.616 215.197 529.431 214.11 529.06 213.102C528.688 212.095 528.116 211.28 527.344 210.659C526.571 210.038 525.586 209.727 524.389 209.727C523.192 209.727 522.207 210.038 521.435 210.659C520.662 211.28 520.09 212.095 519.719 213.102C519.348 214.11 519.162 215.197 519.162 216.364C519.162 217.53 519.348 218.614 519.719 219.614C520.09 220.614 520.662 221.42 521.435 222.034C522.207 222.648 523.192 222.955 524.389 222.955ZM558.347 201L559.71 202.636C559.18 203.152 558.566 203.511 557.869 203.716C557.172 203.92 556.384 204.045 555.506 204.091C554.627 204.136 553.65 204.182 552.574 204.227C551.362 204.273 550.358 204.568 549.562 205.114C548.767 205.659 548.153 206.447 547.722 207.477C547.29 208.508 547.013 209.773 546.892 211.273H547.119C547.71 210.182 548.528 209.379 549.574 208.864C550.619 208.348 551.741 208.091 552.938 208.091C554.301 208.091 555.528 208.409 556.619 209.045C557.71 209.682 558.574 210.625 559.21 211.875C559.847 213.125 560.165 214.667 560.165 216.5C560.165 218.326 559.839 219.902 559.188 221.227C558.544 222.553 557.638 223.576 556.472 224.295C555.313 225.008 553.953 225.364 552.392 225.364C550.831 225.364 549.464 224.996 548.29 224.261C547.116 223.519 546.203 222.42 545.551 220.966C544.9 219.504 544.574 217.697 544.574 215.545V213.682C544.574 209.795 545.233 206.848 546.551 204.841C547.877 202.833 549.869 201.795 552.528 201.727C553.468 201.697 554.305 201.689 555.04 201.705C555.775 201.72 556.415 201.686 556.96 201.602C557.506 201.519 557.968 201.318 558.347 201ZM552.392 222.955C553.445 222.955 554.35 222.689 555.108 222.159C555.873 221.629 556.46 220.883 556.869 219.92C557.278 218.951 557.483 217.811 557.483 216.5C557.483 215.227 557.275 214.144 556.858 213.25C556.449 212.356 555.862 211.674 555.097 211.205C554.331 210.735 553.415 210.5 552.347 210.5C551.566 210.5 550.866 210.633 550.244 210.898C549.623 211.163 549.093 211.553 548.653 212.068C548.214 212.583 547.873 213.212 547.631 213.955C547.396 214.697 547.271 215.545 547.256 216.5C547.256 218.455 547.714 220.019 548.631 221.193C549.547 222.367 550.801 222.955 552.392 222.955ZM566.949 221.045L575.358 207.545H578.449V225H575.767V211.5L567.403 225H564.267V207.545H566.949V221.045ZM582.27 220.545H585.134C585.194 221.333 585.55 221.932 586.202 222.341C586.861 222.75 587.717 222.955 588.77 222.955C589.846 222.955 590.766 222.735 591.531 222.295C592.296 221.848 592.679 221.129 592.679 220.136C592.679 219.553 592.535 219.045 592.247 218.614C591.959 218.174 591.554 217.833 591.031 217.591C590.509 217.348 589.891 217.227 589.179 217.227H586.179V214.818H589.179C590.247 214.818 591.035 214.576 591.543 214.091C592.058 213.606 592.315 213 592.315 212.273C592.315 211.492 592.039 210.867 591.486 210.398C590.933 209.92 590.149 209.682 589.134 209.682C588.111 209.682 587.259 209.913 586.577 210.375C585.895 210.83 585.535 211.417 585.497 212.136H582.679C582.709 211.197 582.997 210.367 583.543 209.648C584.088 208.92 584.83 208.352 585.77 207.943C586.709 207.527 587.785 207.318 588.997 207.318C590.224 207.318 591.289 207.534 592.19 207.966C593.099 208.39 593.8 208.97 594.293 209.705C594.793 210.432 595.043 211.258 595.043 212.182C595.043 213.167 594.766 213.962 594.213 214.568C593.66 215.174 592.967 215.606 592.134 215.864V216.045C592.793 216.091 593.365 216.303 593.849 216.682C594.342 217.053 594.724 217.542 594.997 218.148C595.27 218.746 595.406 219.409 595.406 220.136C595.406 221.197 595.122 222.121 594.554 222.909C593.986 223.689 593.205 224.295 592.213 224.727C591.221 225.152 590.088 225.364 588.815 225.364C587.58 225.364 586.474 225.163 585.497 224.761C584.52 224.352 583.743 223.788 583.168 223.068C582.599 222.341 582.3 221.5 582.27 220.545ZM610.855 215.045V217.545H601.219V215.045H610.855ZM601.855 207.545V225H599.173V207.545H601.855ZM612.901 207.545V225H610.219V207.545H612.901ZM625.116 225.364C623.435 225.364 621.984 224.992 620.764 224.25C619.552 223.5 618.616 222.455 617.957 221.114C617.306 219.765 616.98 218.197 616.98 216.409C616.98 214.621 617.306 213.045 617.957 211.682C618.616 210.311 619.533 209.242 620.707 208.477C621.889 207.705 623.268 207.318 624.844 207.318C625.753 207.318 626.651 207.47 627.537 207.773C628.423 208.076 629.23 208.568 629.957 209.25C630.685 209.924 631.264 210.818 631.696 211.932C632.128 213.045 632.344 214.417 632.344 216.045V217.182H618.889V214.864H629.616C629.616 213.879 629.42 213 629.026 212.227C628.639 211.455 628.086 210.845 627.366 210.398C626.654 209.951 625.813 209.727 624.844 209.727C623.776 209.727 622.851 209.992 622.071 210.523C621.298 211.045 620.704 211.727 620.287 212.568C619.87 213.409 619.662 214.311 619.662 215.273V216.818C619.662 218.136 619.889 219.254 620.344 220.17C620.806 221.08 621.446 221.773 622.264 222.25C623.082 222.72 624.033 222.955 625.116 222.955C625.821 222.955 626.457 222.856 627.026 222.659C627.601 222.455 628.098 222.152 628.514 221.75C628.931 221.341 629.253 220.833 629.48 220.227L632.071 220.955C631.798 221.833 631.34 222.606 630.696 223.273C630.052 223.932 629.257 224.447 628.31 224.818C627.363 225.182 626.298 225.364 625.116 225.364ZM643.514 225.364C641.878 225.364 640.469 224.977 639.287 224.205C638.105 223.432 637.196 222.367 636.56 221.011C635.923 219.655 635.605 218.106 635.605 216.364C635.605 214.591 635.931 213.027 636.582 211.67C637.241 210.307 638.158 209.242 639.332 208.477C640.514 207.705 641.893 207.318 643.469 207.318C644.696 207.318 645.802 207.545 646.787 208C647.772 208.455 648.579 209.091 649.207 209.909C649.836 210.727 650.226 211.682 650.378 212.773H647.696C647.491 211.977 647.037 211.273 646.332 210.659C645.635 210.038 644.696 209.727 643.514 209.727C642.469 209.727 641.552 210 640.764 210.545C639.984 211.083 639.374 211.845 638.935 212.83C638.503 213.807 638.287 214.955 638.287 216.273C638.287 217.621 638.499 218.795 638.923 219.795C639.355 220.795 639.961 221.572 640.741 222.125C641.529 222.678 642.454 222.955 643.514 222.955C644.211 222.955 644.844 222.833 645.412 222.591C645.98 222.348 646.461 222 646.855 221.545C647.249 221.091 647.529 220.545 647.696 219.909H650.378C650.226 220.939 649.851 221.867 649.253 222.693C648.662 223.511 647.878 224.163 646.901 224.648C645.931 225.125 644.802 225.364 643.514 225.364ZM659.435 225.409C658.329 225.409 657.325 225.201 656.423 224.784C655.522 224.36 654.806 223.75 654.276 222.955C653.745 222.152 653.48 221.182 653.48 220.045C653.48 219.045 653.677 218.235 654.071 217.614C654.465 216.985 654.991 216.492 655.651 216.136C656.31 215.78 657.037 215.515 657.832 215.341C658.635 215.159 659.442 215.015 660.253 214.909C661.313 214.773 662.173 214.67 662.832 214.602C663.499 214.527 663.984 214.402 664.287 214.227C664.598 214.053 664.753 213.75 664.753 213.318V213.227C664.753 212.106 664.446 211.235 663.832 210.614C663.226 209.992 662.306 209.682 661.071 209.682C659.791 209.682 658.787 209.962 658.06 210.523C657.332 211.083 656.821 211.682 656.526 212.318L653.98 211.409C654.435 210.348 655.041 209.523 655.798 208.932C656.563 208.333 657.397 207.917 658.298 207.682C659.207 207.439 660.101 207.318 660.98 207.318C661.541 207.318 662.185 207.386 662.912 207.523C663.647 207.652 664.355 207.92 665.037 208.33C665.726 208.739 666.298 209.356 666.753 210.182C667.207 211.008 667.435 212.114 667.435 213.5V225H664.753V222.636H664.616C664.435 223.015 664.132 223.42 663.707 223.852C663.283 224.284 662.719 224.652 662.014 224.955C661.31 225.258 660.45 225.409 659.435 225.409ZM659.844 223C660.904 223 661.798 222.792 662.526 222.375C663.26 221.958 663.813 221.42 664.185 220.761C664.563 220.102 664.753 219.409 664.753 218.682V216.227C664.639 216.364 664.389 216.489 664.003 216.602C663.624 216.708 663.185 216.803 662.685 216.886C662.192 216.962 661.711 217.03 661.241 217.091C660.779 217.144 660.404 217.189 660.116 217.227C659.42 217.318 658.768 217.466 658.162 217.67C657.563 217.867 657.079 218.167 656.707 218.568C656.344 218.962 656.162 219.5 656.162 220.182C656.162 221.114 656.507 221.818 657.196 222.295C657.893 222.765 658.776 223 659.844 223ZM674.284 225.182C673.723 225.182 673.242 224.981 672.841 224.58C672.439 224.178 672.239 223.697 672.239 223.136C672.239 222.576 672.439 222.095 672.841 221.693C673.242 221.292 673.723 221.091 674.284 221.091C674.845 221.091 675.326 221.292 675.727 221.693C676.129 222.095 676.33 222.576 676.33 223.136C676.33 223.508 676.235 223.848 676.045 224.159C675.864 224.47 675.617 224.72 675.307 224.909C675.004 225.091 674.663 225.182 674.284 225.182Z" fill="#282406" fill-opacity="0.83"/>
<path d="M83.592 128.48C81.48 128.48 79.64 128.08 78.072 127.28C76.536 126.48 75.336 125.328 74.472 123.824C73.64 122.288 73.224 120.48 73.224 118.4V102.56C73.224 100.448 73.64 98.64 74.472 97.136C75.336 95.632 76.536 94.48 78.072 93.68C79.64 92.88 81.48 92.48 83.592 92.48C85.704 92.48 87.528 92.896 89.064 93.728C90.6 94.528 91.784 95.68 92.616 97.184C93.448 98.688 93.864 100.48 93.864 102.56H89.544C89.544 100.576 89.016 99.056 87.96 98C86.936 96.912 85.48 96.368 83.592 96.368C81.704 96.368 80.216 96.896 79.128 97.952C78.072 99.008 77.544 100.528 77.544 102.512V118.4C77.544 120.384 78.072 121.92 79.128 123.008C80.216 124.096 81.704 124.64 83.592 124.64C85.48 124.64 86.936 124.096 87.96 123.008C89.016 121.92 89.544 120.384 89.544 118.4V114.08H82.44V110.144H93.864V118.4C93.864 120.448 93.448 122.24 92.616 123.776C91.784 125.28 90.6 126.448 89.064 127.28C87.528 128.08 85.704 128.48 83.592 128.48ZM112.181 128.384C110.069 128.384 108.245 127.984 106.709 127.184C105.173 126.384 103.973 125.232 103.109 123.728C102.277 122.192 101.861 120.384 101.861 118.304V111.296C101.861 109.184 102.277 107.376 103.109 105.872C103.973 104.368 105.173 103.216 106.709 102.416C108.245 101.616 110.069 101.216 112.181 101.216C114.293 101.216 116.117 101.616 117.653 102.416C119.189 103.216 120.373 104.368 121.205 105.872C122.069 107.376 122.501 109.168 122.501 111.248V118.304C122.501 120.384 122.069 122.192 121.205 123.728C120.373 125.232 119.189 126.384 117.653 127.184C116.117 127.984 114.293 128.384 112.181 128.384ZM112.181 124.544C114.069 124.544 115.541 124.016 116.597 122.96C117.653 121.904 118.181 120.352 118.181 118.304V111.296C118.181 109.248 117.653 107.696 116.597 106.64C115.541 105.584 114.069 105.056 112.181 105.056C110.325 105.056 108.853 105.584 107.765 106.64C106.709 107.696 106.181 109.248 106.181 111.296V118.304C106.181 120.352 106.709 121.904 107.765 122.96C108.853 124.016 110.325 124.544 112.181 124.544ZM144.563 128C143.027 128 141.683 127.696 140.531 127.088C139.379 126.48 138.483 125.616 137.843 124.496C137.203 123.376 136.883 122.064 136.883 120.56V96.896H128.003V92.96H141.203V120.56C141.203 121.648 141.507 122.512 142.115 123.152C142.723 123.76 143.539 124.064 144.563 124.064H152.963V128H144.563ZM168.208 128.48C165.584 128.48 163.456 127.6 161.824 125.84C160.224 124.08 159.424 121.696 159.424 118.688V110.96C159.424 107.92 160.224 105.52 161.824 103.76C163.424 102 165.552 101.12 168.208 101.12C170.384 101.12 172.128 101.712 173.44 102.896C174.752 104.08 175.408 105.664 175.408 107.648L174.544 106.64H175.504L175.408 100.64V92.96H179.728V128H175.408V122.96H174.544L175.408 121.952C175.408 123.968 174.752 125.568 173.44 126.752C172.128 127.904 170.384 128.48 168.208 128.48ZM169.648 124.736C171.44 124.736 172.848 124.176 173.872 123.056C174.896 121.936 175.408 120.384 175.408 118.4V111.2C175.408 109.216 174.896 107.664 173.872 106.544C172.848 105.424 171.44 104.864 169.648 104.864C167.824 104.864 166.384 105.408 165.328 106.496C164.272 107.584 163.744 109.152 163.744 111.2V118.4C163.744 120.448 164.272 122.016 165.328 123.104C166.384 124.192 167.824 124.736 169.648 124.736ZM198.525 128.48C196.445 128.48 194.621 128.064 193.053 127.232C191.517 126.4 190.317 125.232 189.453 123.728C188.621 122.192 188.205 120.416 188.205 118.4V111.2C188.205 109.152 188.621 107.376 189.453 105.872C190.317 104.368 191.517 103.2 193.053 102.368C194.621 101.536 196.445 101.12 198.525 101.12C200.605 101.12 202.413 101.536 203.949 102.368C205.517 103.2 206.717 104.368 207.549 105.872C208.413 107.376 208.845 109.152 208.845 111.2V115.856H192.429V118.4C192.429 120.48 192.957 122.08 194.013 123.2C195.069 124.288 196.573 124.832 198.525 124.832C200.189 124.832 201.533 124.544 202.557 123.968C203.581 123.36 204.205 122.464 204.429 121.28H208.749C208.461 123.488 207.373 125.248 205.485 126.56C203.629 127.84 201.309 128.48 198.525 128.48ZM204.621 112.976V111.2C204.621 109.12 204.093 107.52 203.037 106.4C202.013 105.28 200.509 104.72 198.525 104.72C196.573 104.72 195.069 105.28 194.013 106.4C192.957 107.52 192.429 109.12 192.429 111.2V112.592H204.957L204.621 112.976ZM217.322 128V101.6H221.642V106.64H222.554L221.642 107.648C221.642 105.568 222.266 103.968 223.514 102.848C224.762 101.696 226.49 101.12 228.698 101.12C231.354 101.12 233.466 101.936 235.034 103.568C236.602 105.2 237.386 107.424 237.386 110.24V128H233.066V110.72C233.066 108.832 232.554 107.392 231.53 106.4C230.538 105.376 229.178 104.864 227.45 104.864C225.658 104.864 224.234 105.408 223.178 106.496C222.154 107.584 221.642 109.152 221.642 111.2V128H217.322ZM274.885 136.64V101.6H279.205V106.64H280.069L279.205 107.648C279.205 105.632 279.861 104.048 281.173 102.896C282.517 101.712 284.277 101.12 286.453 101.12C289.109 101.12 291.221 102 292.789 103.76C294.389 105.488 295.189 107.872 295.189 110.912V118.64C295.189 120.656 294.821 122.4 294.085 123.872C293.381 125.344 292.373 126.48 291.061 127.28C289.781 128.08 288.245 128.48 286.453 128.48C284.309 128.48 282.565 127.888 281.221 126.704C279.877 125.52 279.205 123.936 279.205 121.952L280.069 122.96H279.109L279.205 128.96V136.64H274.885ZM285.013 124.736C286.837 124.736 288.261 124.192 289.285 123.104C290.341 122.016 290.869 120.448 290.869 118.4V111.2C290.869 109.152 290.341 107.584 289.285 106.496C288.261 105.408 286.837 104.864 285.013 104.864C283.253 104.864 281.845 105.424 280.789 106.544C279.733 107.664 279.205 109.216 279.205 111.2V118.4C279.205 120.384 279.733 121.936 280.789 123.056C281.845 124.176 283.253 124.736 285.013 124.736ZM303.33 128V124.064H312.69V105.536H304.53V101.6H317.01V124.064H325.89V128H303.33ZM314.37 96.848C313.314 96.848 312.482 96.576 311.874 96.032C311.266 95.488 310.962 94.752 310.962 93.824C310.962 92.864 311.266 92.112 311.874 91.568C312.482 90.992 313.314 90.704 314.37 90.704C315.426 90.704 316.258 90.992 316.866 91.568C317.474 92.112 317.778 92.864 317.778 93.824C317.778 94.752 317.474 95.488 316.866 96.032C316.258 96.576 315.426 96.848 314.37 96.848ZM330.431 128L339.791 114.416L331.007 101.6H336.095L341.327 109.76C341.551 110.112 341.759 110.496 341.951 110.912C342.175 111.328 342.351 111.664 342.479 111.92C342.575 111.664 342.719 111.328 342.911 110.912C343.135 110.496 343.359 110.112 343.583 109.76L348.863 101.6H353.903L345.119 114.464L354.431 128H349.343L343.679 119.36C343.455 119.008 343.231 118.608 343.007 118.16C342.815 117.68 342.639 117.296 342.479 117.008C342.351 117.296 342.159 117.68 341.903 118.16C341.679 118.608 341.439 119.008 341.183 119.36L335.471 128H330.431ZM371.213 128.48C369.133 128.48 367.309 128.064 365.741 127.232C364.205 126.4 363.005 125.232 362.141 123.728C361.309 122.192 360.893 120.416 360.893 118.4V111.2C360.893 109.152 361.309 107.376 362.141 105.872C363.005 104.368 364.205 103.2 365.741 102.368C367.309 101.536 369.133 101.12 371.213 101.12C373.293 101.12 375.101 101.536 376.637 102.368C378.205 103.2 379.405 104.368 380.237 105.872C381.101 107.376 381.533 109.152 381.533 111.2V115.856H365.117V118.4C365.117 120.48 365.645 122.08 366.701 123.2C367.757 124.288 369.261 124.832 371.213 124.832C372.877 124.832 374.221 124.544 375.245 123.968C376.269 123.36 376.893 122.464 377.117 121.28H381.437C381.149 123.488 380.061 125.248 378.173 126.56C376.317 127.84 373.997 128.48 371.213 128.48ZM377.309 112.976V111.2C377.309 109.12 376.781 107.52 375.725 106.4C374.701 105.28 373.197 104.72 371.213 104.72C369.261 104.72 367.757 105.28 366.701 106.4C365.645 107.52 365.117 109.12 365.117 111.2V112.592H377.645L377.309 112.976ZM403.594 128C402.058 128 400.714 127.696 399.562 127.088C398.41 126.48 397.514 125.616 396.874 124.496C396.234 123.376 395.914 122.064 395.914 120.56V96.896H387.034V92.96H400.234V120.56C400.234 121.648 400.538 122.512 401.146 123.152C401.754 123.76 402.57 124.064 403.594 124.064H411.994V128H403.594Z" fill="#282406"/>
</svg>
