<svg width="42" height="42" viewBox="0 0 42 42" fill="none" xmlns="http://www.w3.org/2000/svg">
<path d="M1.03308 41.0195L3.84765 30.7901C2.11707 27.7971 1.19473 24.3967 1.20424 20.9206C1.20424 10.0282 10.1044 1.17212 21.0394 1.17212C26.3452 1.17212 31.3278 3.22748 35.0647 6.95932C38.8111 10.6912 40.8745 15.6543 40.865 20.9301C40.865 31.8225 31.9649 40.6786 21.0299 40.6786H21.0204C17.7018 40.6786 14.4403 39.8451 11.5402 38.2727L1.03308 41.0195ZM12.0346 34.6924L12.6337 35.0524C15.163 36.5489 18.0632 37.3351 21.0204 37.3445H21.0299C30.1107 37.3445 37.5084 29.985 37.5084 20.9301C37.5084 16.5447 35.7969 12.4245 32.6875 9.31778C29.5782 6.21106 25.4324 4.50616 21.0299 4.50616C11.9396 4.50616 4.54179 11.8657 4.54179 20.9206C4.54179 24.0178 5.40708 27.0393 7.06159 29.6535L7.45145 30.2786L5.78743 36.3311L12.0346 34.6924Z" fill="black" fill-opacity="0.24"/>
<path d="M1.93286 39.9637L4.61859 30.2074C2.96583 27.3544 2.0925 24.1085 2.0925 20.7971C2.0925 10.4141 10.5817 1.96729 20.9959 1.96729C26.0575 1.96729 30.7997 3.93165 34.3682 7.48622C37.9366 11.0408 39.8993 15.774 39.8993 20.8065C39.8993 31.1896 31.4101 39.6363 20.9959 39.6363H20.9865C17.8219 39.6363 14.7135 38.8412 11.9527 37.3446L1.93286 39.9637Z" fill="url(#paint0_linear_38_309)"/>
<path d="M1.24731 40.6465L4.02695 30.544C2.31785 27.5881 1.40696 24.23 1.41635 20.797C1.41635 10.0398 10.206 1.2937 21.0053 1.2937C26.2452 1.2937 31.166 3.32354 34.8565 7.00907C38.5564 10.6946 40.5942 15.5961 40.5848 20.8064C40.5848 31.5636 31.7951 40.3097 20.9959 40.3097H20.9865C17.7091 40.3097 14.4881 39.4866 11.624 37.9338L1.24731 40.6465ZM12.1123 34.3979L12.7039 34.7534C15.2018 36.2313 18.066 37.0077 20.9865 37.0171H20.9959C29.964 37.0171 37.2699 29.7489 37.2699 20.8064C37.2699 16.4754 35.5796 12.4064 32.5088 9.33824C29.4381 6.27009 25.3437 4.58635 20.9959 4.58635C12.0184 4.58635 4.71247 11.8545 4.71247 20.797C4.71247 23.8558 5.56702 26.8398 7.20099 29.4215L7.58601 30.0389L5.94264 36.0162L12.1123 34.3979Z" fill="white"/>
<path d="M16.1033 12.631C15.7371 11.8172 15.3521 11.7985 15.0046 11.7891C14.7229 11.7798 14.3942 11.7798 14.0655 11.7798C13.7369 11.7798 13.211 11.9014 12.7602 12.3878C12.3095 12.8742 11.0511 14.0528 11.0511 16.4568C11.0511 18.8515 12.8072 21.1713 13.0514 21.4987C13.2955 21.8261 16.4414 26.9054 21.409 28.8604C25.5409 30.488 26.3861 30.1606 27.2782 30.0764C28.1797 29.9923 30.1705 28.8978 30.5837 27.7566C30.9875 26.6154 30.9875 25.6426 30.8654 25.4368C30.7434 25.231 30.4147 25.1094 29.9264 24.8662C29.4381 24.623 27.034 23.4444 26.5833 23.276C26.1325 23.1076 25.8039 23.0328 25.4846 23.5192C25.1559 24.0056 24.2169 25.1001 23.9351 25.4274C23.6534 25.7548 23.3623 25.7923 22.874 25.549C22.3857 25.3058 20.808 24.7914 18.9393 23.1263C17.4837 21.8355 16.4977 20.2359 16.216 19.7495C15.9343 19.2631 16.1878 19.0012 16.432 18.758C16.648 18.5428 16.9203 18.1874 17.1645 17.9067C17.4086 17.6261 17.4931 17.4203 17.6528 17.0929C17.8124 16.7655 17.7373 16.4849 17.6152 16.2417C17.4931 15.9985 16.5353 13.5945 16.1033 12.631Z" fill="white"/>
<defs>
<linearGradient id="paint0_linear_38_309" x1="4861.49" y1="9766.36" x2="4861.49" y2="1.42134" gradientUnits="userSpaceOnUse">
<stop stop-color="#20B038"/>
<stop offset="1" stop-color="#60D66A"/>
</linearGradient>
</defs>
</svg>
