<svg width="609" height="160" viewBox="0 0 609 160" fill="none" xmlns="http://www.w3.org/2000/svg">
<path d="M626 159.677H0C47 118.677 117.5 118.677 117.5 118.677C97.0779 70.7099 218 25.1772 245 73.1773C233.04 -18.3223 463.237 -30.2795 475.5 73.1773C528.5 73.1773 531.5 92.1772 531.5 124.177C581.5 115.677 602.521 125.733 626 159.677Z" fill="#FFE5DF"/>
<path d="M626 159.677H0C86.5 139.677 132.782 149.18 124.5 145.177C165.379 92.9546 240.271 109.591 253.5 126.177C306.811 78.8839 399.683 82.1087 458 128.177C489.886 120.4 488.576 115.201 514.5 135.677C561.728 136.288 585.82 146.63 626 159.677Z" fill="#E4C6BF"/>
</svg>
