<svg width="606" height="165" viewBox="0 0 606 165" fill="none" xmlns="http://www.w3.org/2000/svg">
<path d="M576.783 164.813H31.7834C-25.2169 164.813 2.2832 91.3133 52.7834 108.813C73.7832 55.3134 147.283 51.3134 172.783 91.3133C152.677 -28.3459 332.665 -29.1987 339.579 81.6784C342.099 40.6779 414.389 15.2238 435.283 51.3134C471.783 20.8134 532.283 54.8134 519.783 100.313C576.783 41.3134 645.783 164.813 576.783 164.813Z" fill="#FFE5DF"/>
<path d="M576.784 164.813H31.7837C-11.7164 156.313 54.7831 131.313 81.2831 148.813C125.783 115.313 140.783 120.813 200.283 137.813C241.783 115.813 276.283 96.8133 345.283 142.813C380.283 106.313 406.783 110.313 432.783 142.813C477.283 129.313 482.783 122.813 503.283 146.313C565.783 126.313 583.783 158.313 576.784 164.813Z" fill="#E4C6BF"/>
</svg>
