<svg width="45" height="83" viewBox="0 0 45 83" fill="none" xmlns="http://www.w3.org/2000/svg">
<path d="M12.25 46.4286H21.5V36.5714H12.25V46.4286Z" fill="#FFE34E" stroke="#565656" stroke-width="2"/>
<rect width="11.25" height="11.8571" transform="matrix(1 0 0 -1 11.25 47.4286)" fill="url(#paint0_radial_209_954)"/>
<rect width="11.25" height="11.8571" transform="matrix(1 0 0 -1 11.25 47.4286)" fill="url(#paint1_linear_209_954)" fill-opacity="0.2"/>
<path d="M23.5 82H32.75V72.1429H23.5V82Z" fill="#FFE34E" stroke="#565656" stroke-width="2"/>
<rect width="11.25" height="11.8571" transform="matrix(1 0 0 -1 22.5 83)" fill="url(#paint2_radial_209_954)"/>
<rect width="11.25" height="11.8571" transform="matrix(1 0 0 -1 22.5 83)" fill="url(#paint3_linear_209_954)" fill-opacity="0.2"/>
<path d="M12.25 82H21.5V72.1429H12.25V82Z" fill="#FFE34E" stroke="#565656" stroke-width="2"/>
<rect width="11.25" height="11.8571" transform="matrix(1 0 0 -1 11.25 83)" fill="url(#paint4_radial_209_954)"/>
<rect width="11.25" height="11.8571" transform="matrix(1 0 0 -1 11.25 83)" fill="url(#paint5_linear_209_954)" fill-opacity="0.2"/>
<path d="M1 82H10.25V72.1429H1V82Z" fill="#FFE34E" stroke="#565656" stroke-width="2"/>
<rect width="11.25" height="11.8571" transform="matrix(1 0 0 -1 0 83)" fill="url(#paint6_radial_209_954)"/>
<rect width="11.25" height="11.8571" transform="matrix(1 0 0 -1 0 83)" fill="url(#paint7_linear_209_954)" fill-opacity="0.2"/>
<path d="M1 34.5714H10.25V24.7143H1V34.5714Z" fill="#FFE34E" stroke="#565656" stroke-width="2"/>
<rect width="11.25" height="11.8571" transform="matrix(1 0 0 -1 0 35.5714)" fill="url(#paint8_radial_209_954)"/>
<rect width="11.25" height="11.8571" transform="matrix(1 0 0 -1 0 35.5714)" fill="url(#paint9_linear_209_954)" fill-opacity="0.2"/>
<path d="M34.75 70.1428H44V60.2857H34.75V70.1428Z" fill="#FFE34E" stroke="#565656" stroke-width="2"/>
<rect width="11.25" height="11.8571" transform="matrix(1 0 0 -1 33.75 71.1428)" fill="url(#paint10_radial_209_954)"/>
<rect width="11.25" height="11.8571" transform="matrix(1 0 0 -1 33.75 71.1428)" fill="url(#paint11_linear_209_954)" fill-opacity="0.2"/>
<path d="M34.75 58.2858H44V48.4286H34.75V58.2858Z" fill="#FFE34E" stroke="#565656" stroke-width="2"/>
<rect width="11.25" height="11.8571" transform="matrix(1 0 0 -1 33.75 59.2858)" fill="url(#paint12_radial_209_954)"/>
<rect width="11.25" height="11.8571" transform="matrix(1 0 0 -1 33.75 59.2858)" fill="url(#paint13_linear_209_954)" fill-opacity="0.2"/>
<path d="M23.5 46.4286H32.75V36.5714H23.5V46.4286Z" fill="#FFE34E" stroke="#565656" stroke-width="2"/>
<rect width="11.25" height="11.8571" transform="matrix(1 0 0 -1 22.5 47.4286)" fill="url(#paint14_radial_209_954)"/>
<rect width="11.25" height="11.8571" transform="matrix(1 0 0 -1 22.5 47.4286)" fill="url(#paint15_linear_209_954)" fill-opacity="0.2"/>
<path d="M1 46.4286H10.25V36.5714H1V46.4286Z" fill="#FFE34E" stroke="#565656" stroke-width="2"/>
<rect width="11.25" height="11.8571" transform="matrix(1 0 0 -1 0 47.4286)" fill="url(#paint16_radial_209_954)"/>
<rect width="11.25" height="11.8571" transform="matrix(1 0 0 -1 0 47.4286)" fill="url(#paint17_linear_209_954)" fill-opacity="0.2"/>
<path d="M23.5 10.8571H32.75V0.999913H23.5V10.8571Z" fill="#FFE34E" stroke="#565656" stroke-width="2"/>
<rect width="11.25" height="11.8571" transform="matrix(1 0 0 -1 22.5 11.8571)" fill="url(#paint18_radial_209_954)"/>
<rect width="11.25" height="11.8571" transform="matrix(1 0 0 -1 22.5 11.8571)" fill="url(#paint19_linear_209_954)" fill-opacity="0.2"/>
<path d="M34.75 10.8571H44V0.999913H34.75V10.8571Z" fill="#FFE34E" stroke="#565656" stroke-width="2"/>
<rect width="11.25" height="11.8571" transform="matrix(1 0 0 -1 33.75 11.8571)" fill="url(#paint20_radial_209_954)"/>
<rect width="11.25" height="11.8571" transform="matrix(1 0 0 -1 33.75 11.8571)" fill="url(#paint21_linear_209_954)" fill-opacity="0.2"/>
<path d="M1 10.8571H10.25V0.999913H1V10.8571Z" fill="#FFE34E" stroke="#565656" stroke-width="2"/>
<rect width="11.25" height="11.8571" transform="matrix(1 0 0 -1 0 11.8571)" fill="url(#paint22_radial_209_954)"/>
<rect width="11.25" height="11.8571" transform="matrix(1 0 0 -1 0 11.8571)" fill="url(#paint23_linear_209_954)" fill-opacity="0.2"/>
<path d="M12.25 10.8571H21.5V0.999913H12.25V10.8571Z" fill="#FFE34E" stroke="#565656" stroke-width="2"/>
<rect width="11.25" height="11.8571" transform="matrix(1 0 0 -1 11.25 11.8571)" fill="url(#paint24_radial_209_954)"/>
<rect width="11.25" height="11.8571" transform="matrix(1 0 0 -1 11.25 11.8571)" fill="url(#paint25_linear_209_954)" fill-opacity="0.2"/>
<path d="M1 22.7142H10.25V12.8571H1V22.7142Z" fill="#FFE34E" stroke="#565656" stroke-width="2"/>
<rect width="11.25" height="11.8571" transform="matrix(1 0 0 -1 0 23.7142)" fill="url(#paint26_radial_209_954)"/>
<rect width="11.25" height="11.8571" transform="matrix(1 0 0 -1 0 23.7142)" fill="url(#paint27_linear_209_954)" fill-opacity="0.2"/>
<defs>
<radialGradient id="paint0_radial_209_954" cx="0" cy="0" r="1" gradientUnits="userSpaceOnUse" gradientTransform="translate(3.30882 3.48739) rotate(54.292) scale(4.72429 4.65164)">
<stop stop-color="#FFFEFE" stop-opacity="0.35"/>
<stop offset="1" stop-color="#FFFEFE" stop-opacity="0"/>
</radialGradient>
<linearGradient id="paint1_linear_209_954" x1="0" y1="0" x2="11.8408" y2="11.2345" gradientUnits="userSpaceOnUse">
<stop stop-color="white" stop-opacity="0.46"/>
<stop offset="1" stop-opacity="0.58"/>
</linearGradient>
<radialGradient id="paint2_radial_209_954" cx="0" cy="0" r="1" gradientUnits="userSpaceOnUse" gradientTransform="translate(3.30882 3.48739) rotate(54.292) scale(4.72429 4.65164)">
<stop stop-color="#FFFEFE" stop-opacity="0.35"/>
<stop offset="1" stop-color="#FFFEFE" stop-opacity="0"/>
</radialGradient>
<linearGradient id="paint3_linear_209_954" x1="0" y1="0" x2="11.8408" y2="11.2345" gradientUnits="userSpaceOnUse">
<stop stop-color="white" stop-opacity="0.46"/>
<stop offset="1" stop-opacity="0.58"/>
</linearGradient>
<radialGradient id="paint4_radial_209_954" cx="0" cy="0" r="1" gradientUnits="userSpaceOnUse" gradientTransform="translate(3.30882 3.48739) rotate(54.292) scale(4.72429 4.65164)">
<stop stop-color="#FFFEFE" stop-opacity="0.35"/>
<stop offset="1" stop-color="#FFFEFE" stop-opacity="0"/>
</radialGradient>
<linearGradient id="paint5_linear_209_954" x1="0" y1="0" x2="11.8408" y2="11.2345" gradientUnits="userSpaceOnUse">
<stop stop-color="white" stop-opacity="0.46"/>
<stop offset="1" stop-opacity="0.58"/>
</linearGradient>
<radialGradient id="paint6_radial_209_954" cx="0" cy="0" r="1" gradientUnits="userSpaceOnUse" gradientTransform="translate(3.30882 3.48739) rotate(54.292) scale(4.72429 4.65164)">
<stop stop-color="#FFFEFE" stop-opacity="0.35"/>
<stop offset="1" stop-color="#FFFEFE" stop-opacity="0"/>
</radialGradient>
<linearGradient id="paint7_linear_209_954" x1="0" y1="0" x2="11.8408" y2="11.2345" gradientUnits="userSpaceOnUse">
<stop stop-color="white" stop-opacity="0.46"/>
<stop offset="1" stop-opacity="0.58"/>
</linearGradient>
<radialGradient id="paint8_radial_209_954" cx="0" cy="0" r="1" gradientUnits="userSpaceOnUse" gradientTransform="translate(3.30882 3.48739) rotate(54.292) scale(4.72429 4.65164)">
<stop stop-color="#FFFEFE" stop-opacity="0.35"/>
<stop offset="1" stop-color="#FFFEFE" stop-opacity="0"/>
</radialGradient>
<linearGradient id="paint9_linear_209_954" x1="0" y1="0" x2="11.8408" y2="11.2345" gradientUnits="userSpaceOnUse">
<stop stop-color="white" stop-opacity="0.46"/>
<stop offset="1" stop-opacity="0.58"/>
</linearGradient>
<radialGradient id="paint10_radial_209_954" cx="0" cy="0" r="1" gradientUnits="userSpaceOnUse" gradientTransform="translate(3.30882 3.48739) rotate(54.292) scale(4.72429 4.65164)">
<stop stop-color="#FFFEFE" stop-opacity="0.35"/>
<stop offset="1" stop-color="#FFFEFE" stop-opacity="0"/>
</radialGradient>
<linearGradient id="paint11_linear_209_954" x1="0" y1="0" x2="11.8408" y2="11.2345" gradientUnits="userSpaceOnUse">
<stop stop-color="white" stop-opacity="0.46"/>
<stop offset="1" stop-opacity="0.58"/>
</linearGradient>
<radialGradient id="paint12_radial_209_954" cx="0" cy="0" r="1" gradientUnits="userSpaceOnUse" gradientTransform="translate(3.30882 3.48739) rotate(54.292) scale(4.72429 4.65164)">
<stop stop-color="#FFFEFE" stop-opacity="0.35"/>
<stop offset="1" stop-color="#FFFEFE" stop-opacity="0"/>
</radialGradient>
<linearGradient id="paint13_linear_209_954" x1="0" y1="0" x2="11.8408" y2="11.2345" gradientUnits="userSpaceOnUse">
<stop stop-color="white" stop-opacity="0.46"/>
<stop offset="1" stop-opacity="0.58"/>
</linearGradient>
<radialGradient id="paint14_radial_209_954" cx="0" cy="0" r="1" gradientUnits="userSpaceOnUse" gradientTransform="translate(3.30882 3.48739) rotate(54.292) scale(4.72429 4.65164)">
<stop stop-color="#FFFEFE" stop-opacity="0.35"/>
<stop offset="1" stop-color="#FFFEFE" stop-opacity="0"/>
</radialGradient>
<linearGradient id="paint15_linear_209_954" x1="0" y1="0" x2="11.8408" y2="11.2345" gradientUnits="userSpaceOnUse">
<stop stop-color="white" stop-opacity="0.46"/>
<stop offset="1" stop-opacity="0.58"/>
</linearGradient>
<radialGradient id="paint16_radial_209_954" cx="0" cy="0" r="1" gradientUnits="userSpaceOnUse" gradientTransform="translate(3.30882 3.48739) rotate(54.292) scale(4.72429 4.65164)">
<stop stop-color="#FFFEFE" stop-opacity="0.35"/>
<stop offset="1" stop-color="#FFFEFE" stop-opacity="0"/>
</radialGradient>
<linearGradient id="paint17_linear_209_954" x1="0" y1="0" x2="11.8408" y2="11.2345" gradientUnits="userSpaceOnUse">
<stop stop-color="white" stop-opacity="0.46"/>
<stop offset="1" stop-opacity="0.58"/>
</linearGradient>
<radialGradient id="paint18_radial_209_954" cx="0" cy="0" r="1" gradientUnits="userSpaceOnUse" gradientTransform="translate(3.30882 3.48739) rotate(54.292) scale(4.72429 4.65164)">
<stop stop-color="#FFFEFE" stop-opacity="0.35"/>
<stop offset="1" stop-color="#FFFEFE" stop-opacity="0"/>
</radialGradient>
<linearGradient id="paint19_linear_209_954" x1="0" y1="0" x2="11.8408" y2="11.2345" gradientUnits="userSpaceOnUse">
<stop stop-color="white" stop-opacity="0.46"/>
<stop offset="1" stop-opacity="0.58"/>
</linearGradient>
<radialGradient id="paint20_radial_209_954" cx="0" cy="0" r="1" gradientUnits="userSpaceOnUse" gradientTransform="translate(3.30882 3.48739) rotate(54.292) scale(4.72429 4.65164)">
<stop stop-color="#FFFEFE" stop-opacity="0.35"/>
<stop offset="1" stop-color="#FFFEFE" stop-opacity="0"/>
</radialGradient>
<linearGradient id="paint21_linear_209_954" x1="0" y1="0" x2="11.8408" y2="11.2345" gradientUnits="userSpaceOnUse">
<stop stop-color="white" stop-opacity="0.46"/>
<stop offset="1" stop-opacity="0.58"/>
</linearGradient>
<radialGradient id="paint22_radial_209_954" cx="0" cy="0" r="1" gradientUnits="userSpaceOnUse" gradientTransform="translate(3.30882 3.48739) rotate(54.292) scale(4.72429 4.65164)">
<stop stop-color="#FFFEFE" stop-opacity="0.35"/>
<stop offset="1" stop-color="#FFFEFE" stop-opacity="0"/>
</radialGradient>
<linearGradient id="paint23_linear_209_954" x1="0" y1="0" x2="11.8408" y2="11.2345" gradientUnits="userSpaceOnUse">
<stop stop-color="white" stop-opacity="0.46"/>
<stop offset="1" stop-opacity="0.58"/>
</linearGradient>
<radialGradient id="paint24_radial_209_954" cx="0" cy="0" r="1" gradientUnits="userSpaceOnUse" gradientTransform="translate(3.30882 3.48739) rotate(54.292) scale(4.72429 4.65164)">
<stop stop-color="#FFFEFE" stop-opacity="0.35"/>
<stop offset="1" stop-color="#FFFEFE" stop-opacity="0"/>
</radialGradient>
<linearGradient id="paint25_linear_209_954" x1="0" y1="0" x2="11.8408" y2="11.2345" gradientUnits="userSpaceOnUse">
<stop stop-color="white" stop-opacity="0.46"/>
<stop offset="1" stop-opacity="0.58"/>
</linearGradient>
<radialGradient id="paint26_radial_209_954" cx="0" cy="0" r="1" gradientUnits="userSpaceOnUse" gradientTransform="translate(3.30882 3.48739) rotate(54.292) scale(4.72429 4.65164)">
<stop stop-color="#FFFEFE" stop-opacity="0.35"/>
<stop offset="1" stop-color="#FFFEFE" stop-opacity="0"/>
</radialGradient>
<linearGradient id="paint27_linear_209_954" x1="0" y1="0" x2="11.8408" y2="11.2345" gradientUnits="userSpaceOnUse">
<stop stop-color="white" stop-opacity="0.46"/>
<stop offset="1" stop-opacity="0.58"/>
</linearGradient>
</defs>
</svg>
