<svg width="76" height="68" viewBox="0 0 76 68" fill="none" xmlns="http://www.w3.org/2000/svg">
<path d="M53.4383 15.6875L55.2726 12.5104C57.0781 17.9536 59.2409 20.2151 65.4561 22.6259L59.7302 25.9621M53.4383 15.6875C55.4061 20.1908 57.7863 22.0431 62.3707 24.4227M53.4383 15.6875L51.923 18.312M51.923 18.312C53.6813 22.4058 56.0051 23.6893 59.7302 25.9621M51.923 18.312L50.2336 21.2383M59.7302 25.9621L56.8921 27.5757M50.2336 21.2383C51.2658 24.4465 53.3314 25.4399 56.8921 27.5757M50.2336 21.2383L48.5735 24.1137M56.8921 27.5757L54.0054 29.2735M48.5735 24.1137C49.4904 26.816 51.266 27.5866 54.0054 29.2735M48.5735 24.1137L46.9784 26.8764M54.0054 29.2735L51.1673 30.8871M46.9784 26.8764C47.5148 29.2262 48.9793 29.7328 51.1673 30.8871M46.9784 26.8764L46.0214 28.534L45.1441 30.0535M51.1673 30.8871L48.9392 32.2446L47.9667 32.7401M45.1441 30.0535C45.5376 31.5011 46.4698 31.8566 47.9667 32.7401M45.1441 30.0535L44.3466 31.4349L43.5491 32.8162M47.9667 32.7401L46.3981 33.7244L45.2127 34.4023M43.5491 32.8162C43.726 33.6443 44.2479 33.8839 45.2127 34.4023M43.5491 32.8162L42.9908 33.7832L42.4325 34.7501M45.2127 34.4023L44.0907 35.0681L43.2218 35.5741M42.4325 34.7501C42.4882 35.2804 42.6763 35.4485 43.2218 35.5741M42.4325 34.7501L42.0338 35.4408L41.316 36.684L42.4259 36.0376L43.2218 35.5741" stroke="#3E3E3E" stroke-width="0.5" stroke-linecap="round"/>
<path d="M41.1218 12.2942L41.1218 8.62555C45.407 12.4368 48.4107 13.3139 54.9987 12.2942L51.708 18.0463M41.1218 12.2942C45.0776 15.2103 48.065 15.6243 53.225 15.3929M41.1218 12.2942L41.1218 15.3247M41.1218 15.3247C44.6914 17.9909 47.3455 17.9406 51.708 18.0463M41.1218 15.3247L41.1218 18.7037M51.708 18.0463L50.0569 20.8628M41.1218 18.7037C43.6198 20.9659 45.9053 20.7935 50.0569 20.8628M41.1218 18.7037L41.1218 22.0239M50.0569 20.8628L48.4058 23.7765M41.1218 22.0239C43.267 23.9057 45.1901 23.6853 48.4058 23.7765M41.1218 22.0239L41.1218 25.214M48.4058 23.7765L46.7548 26.593M41.1218 25.214C42.7612 26.9808 44.2828 26.6873 46.7548 26.593M41.1218 25.214L41.1218 27.1281L41.1218 28.8826M46.7548 26.593L45.5039 28.8826L44.9095 29.798M41.1218 28.8826C42.1864 29.9395 43.1713 29.7813 44.9095 29.798M41.1218 28.8826L41.1218 30.4777L41.1218 32.0727M44.9095 29.798L44.0432 31.4347L43.3555 32.6145M41.1218 32.0727C41.689 32.7014 42.2608 32.6479 43.3555 32.6145M41.1218 32.0727L41.1218 33.1892L41.1218 34.3058M43.3555 32.6145L42.7168 33.7521L42.2173 34.6248M41.1218 34.3058C41.4351 34.7372 41.6821 34.7887 42.2173 34.6248M41.1218 34.3058L41.1218 35.1033L41.1218 36.5388L41.7598 35.4241L42.2173 34.6248" stroke="#3E3E3E" stroke-width="0.5" stroke-linecap="round"/>
<path d="M62.3125 24.8338L65.4896 22.9995C64.3316 28.6162 65.0739 31.6561 69.251 36.8515L62.6241 36.8777M62.3125 24.8338C61.765 29.7176 62.9001 32.5119 65.6805 36.8649M62.3125 24.8338L59.688 26.349M59.688 26.349C59.1638 30.7735 60.5344 33.0469 62.6241 36.8777M59.688 26.349L56.7617 28.0385M62.6241 36.8777L59.3594 36.8561M56.7617 28.0385C56.0516 31.333 57.3437 33.2261 59.3594 36.8561M56.7617 28.0385L53.8863 29.6986M59.3594 36.8561L56.0106 36.8831M53.8863 29.6986C53.3292 32.4973 54.4817 34.0526 56.0106 36.8831M53.8863 29.6986L51.1236 31.2937M56.0106 36.8831L52.7459 36.8615M51.1236 31.2937C50.4132 33.5968 51.4282 34.7678 52.7459 36.8615M51.1236 31.2937L49.466 32.2507L47.9465 33.128M52.7459 36.8615L50.1376 36.9231L49.0476 36.8659M47.9465 33.128C47.5635 34.5784 48.193 35.3523 49.0476 36.8659M47.9465 33.128L46.5651 33.9255L45.1838 34.723M49.0476 36.8659L47.1971 36.9341L45.8315 36.9284M45.1838 34.723C44.923 35.5286 45.2551 35.9971 45.8315 36.9284M45.1838 34.723L44.2168 35.2813L43.2499 35.8396M45.8315 36.9284L44.5269 36.9441L43.5214 36.9478M43.2499 35.8396C43.0329 36.3266 43.1119 36.5663 43.5214 36.9478M43.2499 35.8396L42.5592 36.2383L41.316 36.9561L42.6004 36.9513L43.5214 36.9478" stroke="#3E3E3E" stroke-width="0.5" stroke-linecap="round"/>
<path d="M18.8108 55.48C16.6988 55.48 14.8588 55.08 13.2908 54.28C11.7548 53.48 10.5548 52.328 9.69075 50.824C8.85875 49.288 8.44275 47.48 8.44275 45.4V29.56C8.44275 27.448 8.85875 25.64 9.69075 24.136C10.5548 22.632 11.7548 21.48 13.2908 20.68C14.8588 19.88 16.6988 19.48 18.8108 19.48C20.9228 19.48 22.7468 19.896 24.2828 20.728C25.8188 21.528 27.0028 22.68 27.8348 24.184C28.6668 25.688 29.0828 27.48 29.0828 29.56H24.7628C24.7628 27.576 24.2348 26.056 23.1788 25C22.1548 23.912 20.6988 23.368 18.8108 23.368C16.9228 23.368 15.4348 23.896 14.3468 24.952C13.2908 26.008 12.7628 27.528 12.7628 29.512V45.4C12.7628 47.384 13.2908 48.92 14.3468 50.008C15.4348 51.096 16.9228 51.64 18.8108 51.64C20.6988 51.64 22.1548 51.096 23.1788 50.008C24.2348 48.92 24.7628 47.384 24.7628 45.4V41.08H17.6588V37.144H29.0828V45.4C29.0828 47.448 28.6668 49.24 27.8348 50.776C27.0028 52.28 25.8188 53.448 24.2828 54.28C22.7468 55.08 20.9228 55.48 18.8108 55.48ZM37.416 55V19.96H48.696C50.872 19.96 52.76 20.392 54.36 21.256C55.96 22.088 57.192 23.272 58.056 24.808C58.952 26.344 59.4 28.168 59.4 30.28C59.4 32.36 58.952 34.184 58.056 35.752C57.192 37.288 55.96 38.488 54.36 39.352C52.76 40.184 50.872 40.6 48.696 40.6H41.736V55H37.416ZM41.736 36.712H48.696C50.584 36.712 52.088 36.136 53.208 34.984C54.36 33.8 54.936 32.232 54.936 30.28C54.936 28.296 54.36 26.728 53.208 25.576C52.088 24.424 50.584 23.848 48.696 23.848H41.736V36.712Z" fill="#2E2F55"/>
</svg>
